<svg width="168" height="131" viewBox="0 0 168 131" fill="none" xmlns="http://www.w3.org/2000/svg">
<g clip-path="url(#clip0)">
<path opacity="0.18" d="M19.9816 17.8705C11.1568 28.1806 7.35348 41.835 4.78836 55.1818C2.14543 68.9894 0.566577 82.9809 0.0658156 97.0319C-0.230452 105.278 0.250666 114.531 6.22412 120.198C8.45752 122.32 11.2657 123.716 14.0689 124.986C19.0649 127.258 24.261 129.263 29.7128 129.878C38.7477 130.895 47.7243 128.051 56.3718 125.228C71.6055 120.254 87.4444 115.177 103.339 117.189C110.71 118.122 117.81 120.562 125.136 121.81C132.462 123.057 140.395 122.999 146.827 119.268C151.301 116.669 154.677 112.498 157.341 108.051C163.319 98.0713 166.143 86.45 167.047 74.8337C167.492 69.098 167.485 63.286 166.378 57.6418C165.112 51.192 162.448 45.1158 159.759 39.1234C156.467 31.7714 153.056 24.3991 148.349 17.8654C143.641 11.3318 137.498 5.61639 130.026 2.66595C115.802 -2.94269 100.25 2.01792 85.8769 4.27459C78.5336 5.42072 70.937 6.16023 63.6088 4.50077C60.0814 3.7028 57.2504 2.06112 53.6319 1.93152C49.8159 1.79683 45.7264 2.6939 42.0851 3.74854C33.5845 6.21106 25.7575 11.1183 19.9816 17.8705Z" fill="#4A72CE"/>
<path d="M81.1443 54.0537H69.0657V63.9546H81.1443V54.0537Z" fill="#4A72CE"/>
<path d="M81.1443 54.0537H69.0657V63.9546H81.1443V54.0537Z" fill="url(#paint0_linear)"/>
<path d="M91.3085 33.7411H60.474C58.4629 33.7411 56.8327 35.3772 56.8327 37.3955V54.3028C56.8327 56.321 58.4629 57.9571 60.474 57.9571H91.3085C93.3196 57.9571 94.9498 56.321 94.9498 54.3028V37.3955C94.9498 35.3772 93.3196 33.7411 91.3085 33.7411Z" fill="white"/>
<path d="M111.007 63.8428H46.8482V65.8936H111.007V63.8428Z" fill="white"/>
<path d="M111.007 65.0372H46.8482V65.8936H111.007V65.0372Z" fill="#D9DBE2"/>
<path opacity="0.18" d="M83.0612 113.439C120.888 113.439 151.552 109.893 151.552 105.52C151.552 101.147 120.888 97.6013 83.0612 97.6013C45.2347 97.6013 14.5703 101.147 14.5703 105.52C14.5703 109.893 45.2347 113.439 83.0612 113.439Z" fill="#4A72CE"/>
<path d="M134.095 80.9991C134.095 80.9991 141.14 103.805 140.375 104.364C139.61 104.923 139.127 103.403 139.127 103.403L132.021 82.2087L134.095 80.9991Z" fill="#4A72CE"/>
<path d="M118.953 83.6319L118.887 83.7971L110.86 104.465C110.738 104.785 110.555 105.077 110.32 105.324C110.275 105.379 110.218 105.425 110.155 105.457C110.091 105.489 110.022 105.508 109.95 105.512C109.879 105.517 109.808 105.506 109.741 105.482C109.674 105.457 109.612 105.419 109.561 105.37C108.836 104.775 116.377 83.5633 116.377 83.5633L118.953 83.6319Z" fill="#4A72CE"/>
<path d="M124.961 82.1147C124.961 82.1147 124.708 105.988 123.814 106.285C122.92 106.582 122.92 104.986 122.92 104.986L122.617 82.623L124.961 82.1147Z" fill="#4A72CE"/>
<path d="M132.837 81.2761C132.837 81.2761 140.504 103.385 139.737 103.934C138.97 104.483 139.127 103.401 139.127 103.401L132.021 82.2062L132.837 81.2761Z" fill="#3A59A0"/>
<path d="M118.884 83.7971L110.857 104.465C110.736 104.785 110.552 105.077 110.318 105.324C110.346 102.956 117.177 83.7589 117.177 83.7589L118.884 83.7971Z" fill="#3A59A0"/>
<path d="M124.961 82.1147C124.961 82.1147 124.708 105.988 123.814 106.285C122.92 106.582 123.472 104.486 123.472 104.486L123.789 82.3765L124.961 82.1147Z" fill="url(#paint1_linear)"/>
<path d="M140.54 75.5429C138.858 79.4336 135.075 82.1172 131.021 83.3218C127.861 84.2595 124.531 84.4044 121.219 84.2138C120.292 84.1647 119.364 84.0944 118.433 84.0029C116.813 83.8377 115.169 83.6268 113.653 83.0321C112.136 82.4374 110.723 81.4108 109.953 79.9597C109.484 79.0045 109.225 77.9593 109.193 76.8949C109.034 74.1655 109.895 71.2634 111.979 69.5251C113.615 68.1528 115.749 67.6191 117.446 66.346C119.345 64.9152 121.295 63.6369 123.305 62.351C125.316 61.0651 127.357 59.7665 129.606 58.9483C131.854 58.13 134.361 57.8225 136.635 58.5467C137.422 58.8009 138.635 59.4133 139.823 62.3307C141.547 66.501 142.327 71.4031 140.54 75.5429Z" fill="#2F3653"/>
<path d="M128.089 47.9089C127.281 49.0194 124.82 50.0919 124.82 50.0919C124.536 48.994 125.141 48.5874 125.141 48.5874C125.772 48.6433 126.6 47.1007 126.329 46.6154C125.995 46.0105 125.531 46.2265 125.222 46.4858C124.904 46.2367 124.64 45.9241 124.448 45.5676C124.255 45.2111 124.139 44.8185 124.106 44.4146C124.065 43.9394 124.883 42.5976 123.316 42.0156C121.748 41.4337 119.54 42.0156 119.54 42.0156C119.54 42.0156 118.97 40.5493 120.806 39.8479C124.926 38.2672 129.823 40.9635 129.55 45.5963C129.476 46.8517 129.393 48.2774 130.259 49.1846C130.732 49.6776 131.401 49.9165 132.031 50.1656C132.854 50.4858 133.69 50.8746 134.267 51.548C134.845 52.2215 135.09 53.2532 134.632 54.0131C134.414 54.3765 134.037 54.7246 134.125 55.1389C134.189 55.3247 134.298 55.4916 134.442 55.6242C135.388 56.6429 135.996 57.9314 136.182 59.3117C136.269 59.9987 136.207 60.6966 136.001 61.3575C135.794 62.0184 135.448 62.6269 134.986 63.1414C133.72 64.4756 131.695 64.8237 129.879 64.5493C128.41 64.3256 126.957 63.7157 125.959 62.6103C124.44 60.9254 124.25 58.4781 123.827 56.257C123.802 55.9829 123.692 55.7236 123.513 55.515C123.07 55.0982 122.358 55.4362 121.753 55.4209C120.707 55.3981 120.006 54.2469 119.981 53.1999C119.955 52.1528 120.378 51.1668 120.591 50.1274C120.804 49.088 120.738 47.8885 119.945 47.2049C119.649 46.9508 119.279 46.7907 118.96 46.562C117.547 45.5455 117.631 43.1999 118.836 41.9394C120.041 40.6789 121.976 40.3689 123.69 40.6687C125.068 40.9229 128.177 41.6853 128.815 42.9559C129.454 44.2265 128.902 46.7958 128.089 47.9089Z" fill="#FC682D"/>
<path d="M117.603 54.5289L110.961 61.3904L102.144 56.7246C101.055 56.0517 99.7934 55.7133 98.5152 55.7513C98.3835 55.7513 98.2062 55.8275 98.2366 55.9546C98.267 56.0817 98.4139 56.0918 98.4367 56.2087C98.4594 56.3256 98.3176 56.3968 98.2012 56.4222L96.0944 56.8923C95.7854 56.9635 95.4107 57.1083 95.393 57.426C95.4023 57.5318 95.4357 57.6339 95.4906 57.7247C95.5454 57.8155 95.6203 57.8924 95.7095 57.9495C97.0997 59.1109 99.0495 59.365 100.852 59.1973C101.027 59.1719 101.204 59.1719 101.379 59.1973C101.551 59.2403 101.715 59.3097 101.865 59.4031C102.546 59.7818 103.206 60.1966 103.843 60.6458C105.572 61.8657 107.12 63.332 108.874 64.5162C109.227 64.7963 109.649 64.9762 110.095 65.0372C110.491 65.0311 110.881 64.9365 111.237 64.7602C113.769 63.7437 116.365 62.6585 118.292 60.7221C118.463 60.5676 118.602 60.3811 118.702 60.1732C118.772 59.9627 118.805 59.7418 118.801 59.52C118.826 58.5899 118.814 57.6581 118.765 56.7246C118.773 56.2997 118.68 55.8791 118.494 55.4972C118.396 55.3085 118.239 55.1576 118.046 55.068C117.854 54.9784 117.638 54.9551 117.431 55.0016" fill="#FDBAAC"/>
<path d="M113.402 61.7665C113.186 61.9325 112.952 62.0739 112.706 62.1884C112.169 62.4146 111.564 62.3714 110.981 62.3561C110.099 62.3336 109.216 62.3863 108.343 62.5137C108.124 62.529 107.912 62.596 107.725 62.7094C107.633 62.7686 107.563 62.856 107.524 62.9585C107.486 63.0611 107.482 63.1734 107.512 63.2786C107.571 63.3929 107.658 63.4901 107.765 63.5607C108.472 64.1325 109.231 64.7271 110.133 64.8313C111.212 64.9737 112.245 64.3993 113.172 63.8453L115.111 62.7246C115.401 62.5825 115.654 62.3746 115.851 62.1172C116.122 61.6979 116.185 60.5264 115.526 60.4044C114.987 60.2977 113.82 61.454 113.402 61.7665Z" fill="#DEA095"/>
<path d="M118.58 52.8136C118.708 52.7722 118.839 52.7449 118.973 52.7323C119.641 52.6687 120.401 52.8339 121.072 52.8644C122.016 52.9051 122.964 52.9279 123.911 52.8974C125.716 52.8441 128.679 52.6433 130.294 54.6255C132.297 57.0728 130.57 61.3752 129.172 64.6026C128.666 65.8072 128.398 69.7081 128.666 72.5594C128.666 72.5594 123.045 74.534 118.099 73.5048L116.403 67.116C116.309 66.7856 116.015 66.4349 115.871 66.1198C115.479 65.2652 115.193 64.3657 115.02 63.4413C114.817 62.3739 114.514 60.5976 114.969 59.5709C115.038 59.4133 115.273 59.2913 115.294 59.1262C115.321 58.8974 115.02 58.5162 114.926 58.3104C114.618 57.6446 114.369 56.9522 114.184 56.2418C114.143 56.1329 114.138 56.0134 114.169 55.9012C114.213 55.8129 114.28 55.7375 114.362 55.6827C115.104 55.0855 115.848 54.4883 116.641 53.9495C117.18 53.576 117.897 53.022 118.58 52.8136Z" fill="white"/>
<path d="M124.842 48.2926C124.468 49.4896 122.9 51.5963 121.107 51.1109C121.318 51.4937 121.417 51.9286 121.392 52.3653C121.367 52.8019 121.219 53.2225 120.966 53.5785C120.966 53.5785 121.548 55.0703 125.483 52.8644C125.483 52.8644 124.42 52.7755 124.708 50.5772C124.795 49.8236 125.06 49.102 125.483 48.473C125.435 48.5201 125.375 48.5536 125.31 48.5702C125.244 48.5869 125.176 48.586 125.111 48.5677C125.046 48.5495 124.987 48.5144 124.94 48.4662C124.893 48.4179 124.859 48.358 124.842 48.2926Z" fill="#FDBAAC"/>
<path d="M124.663 48.8949C124.663 48.8949 123.799 52.5772 122.336 52.4222C120.872 52.2672 120.966 50.0258 120.966 50.0258L124.663 48.8949Z" fill="#DEA095"/>
<path d="M132.305 55.9597C132.406 54.83 132.07 53.7046 131.368 52.8161C130.547 51.8555 129.289 51.4235 128.117 50.9559C127.61 50.7576 127.083 50.501 126.873 50.008C126.734 49.6827 126.764 49.3116 126.709 48.9609C126.653 48.6102 126.455 48.2291 126.096 48.1808C125.987 48.1744 125.878 48.1897 125.775 48.2259C125.672 48.2621 125.577 48.3185 125.496 48.3917C124.751 48.966 124.513 50.0207 124.683 50.9482C124.853 51.8758 125.362 52.6967 125.888 53.4743C126.415 54.2519 126.972 55.0296 127.271 55.9216C127.496 56.6001 127.562 57.3218 127.727 58.0181C128.091 59.5429 129.37 60.4578 130.872 59.5887C131.907 58.9864 132.231 57.0296 132.305 55.9597Z" fill="#FC682D"/>
<path d="M120.793 39.853C120.793 39.853 118.408 39.9927 117.699 43.4616C116.99 46.9305 120.436 46.872 120.436 46.872L122.531 40.8542L120.793 39.853Z" fill="#FC682D"/>
<path d="M122.384 51.2888C120.224 51.4692 118.912 49.4463 118.669 46.8034C118.644 46.5137 118.633 46.2189 118.633 45.9165C118.629 45.0548 118.728 44.1956 118.927 43.3574C119.872 39.2913 125.627 40.9254 125.627 40.9254C130.137 42.9559 126.136 50.9762 122.384 51.2888Z" fill="#FDBAAC"/>
<path d="M120.839 40.8339C121.401 42.7932 122.153 45.5785 124.06 46.6535C124.278 46.7754 124.68 46.9813 124.941 46.9279C125.202 46.8746 125.194 46.6357 125.432 46.4197C125.506 46.3457 125.601 46.2965 125.704 46.2787C125.807 46.261 125.913 46.2756 126.007 46.3206C126.085 46.3795 126.147 46.4566 126.188 46.5452C126.229 46.6338 126.248 46.7312 126.243 46.8288C126.244 47.0692 126.182 47.3058 126.065 47.5155C125.948 47.7252 125.779 47.901 125.574 48.0258C125.385 48.1125 125.205 48.2163 125.035 48.3358C124.845 48.5237 124.732 48.7753 124.716 49.0423C124.683 49.4016 124.754 49.7629 124.919 50.0835C125.084 50.404 125.337 50.6706 125.648 50.8517C125.687 50.8762 125.731 50.8902 125.777 50.8923C125.832 50.881 125.882 50.8515 125.919 50.8085L126.772 50.0258C127.178 49.6795 127.545 49.2882 127.863 48.8593C128.255 48.2774 128.467 47.5921 128.471 46.8898C128.471 46.5721 128.344 46.2519 128.35 45.947C128.403 45.545 128.509 45.1518 128.666 44.778C128.857 44.2925 128.955 43.7752 128.955 43.2532C128.886 42.2367 128.043 41.4286 127.134 40.966C125.696 40.2519 124.035 40.1706 122.429 40.1528C122.109 40.1323 121.788 40.1755 121.485 40.2799C121.209 40.4349 121.095 40.7399 120.839 40.8339Z" fill="#FC682D"/>
<path d="M124.663 65.5201L126.311 69.1541C126.311 69.1541 129.856 64.717 131.206 59.9267C132.386 55.6929 130.294 54.6281 130.294 54.6281C128.694 54.0385 127.608 56.3282 126.035 60.9533C125.169 63.487 124.663 65.5201 124.663 65.5201Z" fill="#FDBAAC"/>
<path d="M126.311 69.1465C126.311 69.1465 126.374 66.191 124.939 65.6039C123.503 65.0169 113.44 63.4337 113.44 63.4337L112.495 64.5264C112.495 64.5264 122.376 70.2443 126.311 69.1465Z" fill="#FDBAAC"/>
<path d="M110.004 76.9559L110.125 76.8288C109.637 77.3803 109.31 77.7767 109.209 77.8987C109.457 77.57 109.722 77.2557 110.004 76.9559Z" fill="#DC9ED5"/>
<path d="M129.266 77.5353C128.972 79.2558 127.803 80.7348 126.377 81.7386C124.951 82.7424 123.285 83.332 121.616 83.8403C120.631 84.1427 120.019 85.4108 119.13 85.9368C118.806 86.0962 118.526 86.3316 118.312 86.623C117.988 87.149 118.15 87.8301 118.312 88.4248C119.066 91.0558 119.826 93.6861 120.591 96.3155C120.968 97.6217 121.351 99.0067 120.991 100.321C120.631 101.634 119.254 102.765 117.97 102.331C115.46 98.2647 112.95 94.1986 110.439 90.1325C110.439 90.1325 109.201 85.2227 111.799 81.0474C112.921 79.2481 121.708 71.8225 121.708 71.8225C123.954 71.4946 126.238 71.3422 128.408 71.2177C128.663 73.3371 129.631 75.4311 129.266 77.5353Z" fill="#4A72CE"/>
<path d="M121.715 71.8148C121.715 71.8148 112.749 79.1389 111.807 81.0398C109.176 86.3434 110.447 90.1249 110.447 90.1249C108.252 93.6675 106.058 97.21 103.863 100.753C102.344 100.786 100.295 100.371 100.219 98.8415C100.228 98.4105 100.33 97.9866 100.518 97.5988C102.173 93.4633 103.826 89.3295 105.479 85.1973C106.459 82.7373 107.474 80.2265 109.044 78.1173L109.183 77.9343V77.919L109.204 77.8936C109.305 77.7717 109.632 77.3854 110.12 76.8238V76.8085C111.546 75.21 114.329 72.3485 116.901 71.2177C116.901 71.2177 119.887 72.0436 121.687 71.8225L121.715 71.8148Z" fill="#4A72CE"/>
<path d="M121.715 71.8148C121.715 71.8148 112.749 79.1389 111.807 81.0398C109.176 86.3434 110.447 90.1249 110.447 90.1249C108.252 93.6675 106.058 97.21 103.863 100.753C102.344 100.786 100.295 100.371 100.219 98.8415C100.228 98.4105 100.33 97.9866 100.518 97.5988C102.173 93.4633 103.826 89.3295 105.479 85.1973C106.459 82.7373 107.474 80.2265 109.044 78.1173L109.183 77.9343V77.919L109.204 77.8936C109.305 77.7717 109.632 77.3854 110.12 76.8238V76.8085C111.546 75.21 114.329 72.3485 116.901 71.2177C116.901 71.2177 119.887 72.0436 121.687 71.8225L121.715 71.8148Z" fill="#3A59A1"/>
<path d="M117.112 104.656C116.524 105.2 115.742 105.744 115.77 106.547C115.767 106.626 115.789 106.704 115.833 106.77C115.914 106.851 116.024 106.897 116.139 106.897C117.947 107.098 119.629 105.993 121.034 104.831C121.388 104.539 121.758 104.204 121.842 103.751C121.925 103.299 121.687 102.844 121.482 102.427C121.149 101.75 120.877 101.044 120.669 100.318C120.733 100.534 119.824 101.301 119.669 101.436C119.345 101.721 118.866 101.927 118.613 102.272C118.36 102.618 118.307 103.035 118.107 103.378C117.843 103.853 117.508 104.285 117.112 104.656Z" fill="#EB9D80"/>
<path d="M98.4493 101.256C97.8137 101.482 97.0769 101.604 96.6768 102.145C96.5985 102.241 96.5517 102.359 96.5426 102.483C96.5426 102.819 96.93 102.991 97.2567 103.068C98.5607 103.335 99.9079 103.146 101.225 102.956C101.431 102.959 101.631 102.885 101.785 102.747C101.939 102.609 102.035 102.417 102.055 102.211L102.574 100.605C102.596 100.558 102.602 100.506 102.592 100.455C102.57 100.406 102.533 100.365 102.486 100.338C102.13 100.088 101.751 99.873 101.354 99.6954C100.819 99.4413 100.784 99.4641 100.427 99.8885C99.8976 100.509 99.2159 100.981 98.4493 101.256Z" fill="#EB9D80"/>
<path d="M112.361 63.2329C111.32 63.0677 110.151 62.933 109.31 63.5658C108.911 63.9102 108.583 64.3309 108.348 64.8034C108.183 65.0855 108.016 65.4235 108.15 65.7183C108.284 66.013 108.614 66.1045 108.91 66.1782C109.87 66.412 110.903 66.6306 111.822 66.2697C112.5 66.0156 113.05 65.4387 113.762 65.2684C113.882 65.2519 113.998 65.2122 114.103 65.1515C114.201 65.0704 114.269 64.9599 114.298 64.8364C114.726 63.4031 113.313 63.3676 112.361 63.2329Z" fill="#FDBAAC"/>
<path d="M101.212 104.176C101.176 104.25 101.12 104.314 101.05 104.359C100.945 104.396 100.831 104.396 100.726 104.359C100.138 104.279 99.5446 104.259 98.9532 104.298C97.7405 104.279 96.531 104.168 95.3347 103.967C94.8131 103.891 94.2332 103.782 93.9319 103.35C93.8928 103.301 93.8683 103.242 93.861 103.18C93.8643 103.085 93.9011 102.995 93.9648 102.925C94.4895 102.295 95.1787 101.823 95.9551 101.563C96.2423 101.441 96.5498 101.374 96.8616 101.365C97.0177 101.362 97.1726 101.394 97.3152 101.457C97.4578 101.521 97.5848 101.615 97.6871 101.734C97.9024 102.008 97.9404 102.402 98.1759 102.648C98.4113 102.895 98.8165 102.925 99.171 102.903C99.5825 102.888 99.9923 102.841 100.397 102.763C100.703 102.704 101.156 102.493 101.46 102.572C102.172 102.768 101.412 103.817 101.212 104.176Z" fill="#4A72CE"/>
<path d="M122.295 104.681C122.309 104.775 122.297 104.871 122.26 104.958C122.184 105.061 122.076 105.136 121.953 105.169C121.341 105.469 120.762 105.831 120.224 106.249C119.069 107.001 117.859 107.665 116.605 108.234C116.063 108.488 115.443 108.76 114.883 108.544C114.816 108.523 114.755 108.483 114.709 108.43C114.653 108.339 114.631 108.231 114.648 108.125C114.742 107.193 115.093 106.306 115.661 105.563C115.856 105.265 116.106 105.006 116.398 104.801C116.543 104.699 116.709 104.63 116.884 104.599C117.059 104.568 117.239 104.577 117.41 104.623C117.788 104.745 118.066 105.098 118.454 105.177C118.841 105.256 119.239 105.032 119.565 104.793C119.946 104.515 120.305 104.209 120.639 103.876C120.892 103.622 121.183 103.139 121.525 103.017C122.31 102.735 122.267 104.209 122.295 104.681Z" fill="#4A72CE"/>
<path d="M131.846 56.0689C132.096 56.8451 132.265 57.6446 132.353 58.4552L132.507 59.548C132.562 59.7745 132.55 60.012 132.472 60.2316C132.292 60.6153 131.565 60.4578 131.206 60.5162C130.563 60.6204 129.922 60.7221 129.279 60.8212C127.992 61.0194 126.706 61.2091 125.42 61.3904C125.352 60.7345 125.368 60.0727 125.468 59.4209C125.587 58.8008 125.853 58.2189 126.005 57.6064C126.129 57.0982 126.174 56.5899 126.304 56.0816C126.575 55.0373 127.196 54.118 128.061 53.4768C129.416 52.4832 131.403 54.8898 131.819 55.9724L131.846 56.0689Z" fill="white"/>
<path d="M140.54 75.5429C138.858 79.4336 135.075 82.1172 131.021 83.3218C127.861 84.2595 124.531 84.4044 121.219 84.2138C121.219 83.9876 121.351 83.8504 121.627 83.8377C124.799 83.6776 126.114 79.4921 127.066 77.3625C128.018 75.2329 128.669 72.5569 134.865 70.0893C140.902 67.6903 140.165 63.177 140.466 64.0867C141.892 68.3663 142.327 71.4031 140.54 75.5429Z" fill="#2F3653"/>
<path d="M140.973 75.7208C139.291 79.609 135.508 82.2926 131.454 83.4997C128.294 84.4349 124.05 84.595 120.738 84.4019C120.738 84.1782 121.351 83.8504 121.627 83.8377C124.799 83.6776 126.184 78.7068 127.137 76.5772C128.089 74.4476 128.962 73.1973 134.865 70.0893C143.685 65.4489 137.303 59.1363 137.192 58.7322C139.306 59.4158 140.484 63.7284 140.783 64.6382C142.208 68.9177 142.76 71.5785 140.973 75.7208Z" fill="white"/>
<path opacity="0.23" d="M128.993 82.8186C126.311 83.5048 123.473 83.5302 120.862 84.4578C121.69 84.163 123.424 84.6204 124.346 84.5925C125.613 84.5537 126.875 84.4203 128.122 84.1935C130.327 83.792 133.249 83.177 135.067 81.8123C133.882 80.8009 130.304 82.4832 128.993 82.8186Z" fill="#4A72CE"/>
<path d="M130.601 106.557C130.56 106.583 130.515 106.602 130.469 106.615C130.386 106.638 130.3 106.642 130.216 106.628C129.276 106.511 124.665 84.4756 124.665 84.4756L125.296 84.1071C125.341 84.0817 125.394 84.0537 125.44 84.0334C125.601 83.9654 125.773 83.9307 125.947 83.9312C126.122 83.9318 126.294 83.9677 126.454 84.0368C126.614 84.1058 126.759 84.2066 126.879 84.3331C126.999 84.4596 127.093 84.6092 127.154 84.7729V84.7983C127.181 84.8648 127.2 84.9338 127.213 85.0042L130.839 105.185C130.839 105.185 131.054 106.247 130.601 106.557Z" fill="#4A72CE"/>
<path d="M130.704 104.742C130.704 104.742 130.666 106.013 130.601 106.557C130.56 106.811 130.522 106.913 130.469 106.615C130.016 103.95 126.25 87.5861 125.437 84.0384C125.598 83.9705 125.771 83.9357 125.945 83.9363C126.119 83.9369 126.291 83.9728 126.452 84.0418C126.612 84.1109 126.756 84.2117 126.877 84.3382C126.997 84.4647 127.09 84.6143 127.152 84.778V84.8034L130.704 104.742Z" fill="url(#paint2_linear)"/>
<path d="M33.4909 80.9991C33.4909 80.9991 26.4589 103.805 27.2186 104.364C27.9783 104.923 28.4644 103.403 28.4644 103.403L35.5749 82.2087L33.4909 80.9991Z" fill="#4A72CE"/>
<path d="M48.6334 83.6319L48.6992 83.7971L56.7263 104.465C56.8477 104.785 57.0311 105.077 57.2657 105.324C57.3112 105.379 57.3676 105.425 57.4312 105.457C57.4949 105.489 57.5644 105.508 57.6356 105.512C57.7068 105.517 57.7781 105.506 57.8452 105.482C57.9122 105.457 57.9735 105.419 58.0253 105.37C58.7597 104.775 51.2188 83.5734 51.2188 83.5734L48.6334 83.6319Z" fill="#4A72CE"/>
<path d="M42.6397 82.1147C42.6397 82.1147 42.8929 105.988 43.7842 106.285C44.6756 106.582 44.6908 104.986 44.6908 104.986L44.9946 82.623L42.6397 82.1147Z" fill="#4A72CE"/>
<path d="M34.7494 81.2761C34.7494 81.2761 27.0819 103.385 27.8491 103.934C28.6164 104.483 28.4594 103.401 28.4594 103.401L35.5748 82.2088L34.7494 81.2761Z" fill="#375498"/>
<path d="M48.6992 83.7971L56.7263 104.465C56.8477 104.785 57.0311 105.077 57.2657 105.324C57.2403 102.956 50.4059 83.7589 50.4059 83.7589L48.6992 83.7971Z" fill="#375498"/>
<path d="M42.6397 82.1147C42.6397 82.1147 42.8929 105.988 43.7842 106.285C44.6756 106.582 44.1261 104.486 44.1261 104.486L43.8096 82.3765L42.6397 82.1147Z" fill="url(#paint3_linear)"/>
<path d="M27.0464 75.5429C28.7278 79.4336 32.5109 82.1172 36.5649 83.3218C39.7251 84.2595 43.055 84.4044 46.3671 84.2138C47.2939 84.1647 48.2181 84.0935 49.1398 84.0003C50.7604 83.8377 52.4038 83.6268 53.9206 83.0321C55.4374 82.4374 56.8504 81.4108 57.6202 79.9597C58.0902 79.0048 58.3493 77.9594 58.3798 76.8949C58.5394 74.1655 57.6784 71.2634 55.5944 69.5251C53.9586 68.1528 51.824 67.6191 50.1274 66.346C48.2282 64.9152 46.2785 63.6369 44.2679 62.351C42.2573 61.0651 40.2164 59.7665 37.9678 58.9483C35.7192 58.13 33.2123 57.8225 30.9384 58.5467C30.1509 58.8009 28.938 59.4133 27.7504 62.3307C26.0411 66.501 25.2587 71.4031 27.0464 75.5429Z" fill="#2F3653"/>
<path d="M33.0705 61.3777C33.3736 62.0296 33.6095 62.7108 33.7744 63.4108C33.9264 64.2647 34.1872 65.1033 34.3366 65.9648C34.6373 67.6923 34.7805 69.4437 34.7645 71.1973C34.7645 71.8911 34.7645 72.6738 35.2583 73.1541C35.5926 73.4768 36.0712 73.581 36.5244 73.6624C37.4183 73.8428 38.2261 74.1986 39.1199 74.3511C40.094 74.4928 41.0783 74.5523 42.0623 74.5289C44.9642 74.5289 50.3629 74.2037 50.1831 70.1427C50.0099 65.5578 49.6076 60.9845 48.9778 56.44C48.76 54.9 48.7245 53.1236 48.251 51.642C47.8611 50.3943 46.4127 50.3841 45.2124 50.5112L44.9845 50.5366C44.7515 50.5594 44.5186 50.5899 44.2932 50.6179C42.6952 50.7847 41.087 50.8323 39.482 50.7602C37.6766 50.7043 34.7848 50.5239 33.0097 52.2316C32.8864 52.3487 32.7705 52.4734 32.6628 52.6052C30.8979 54.7678 31.8449 58.2774 33.0705 61.3777Z" fill="white"/>
<path opacity="0.43" d="M39.8011 60.9279C39.9556 62.961 39.3807 65.1287 40.4443 66.8288C40.493 66.9244 40.5699 67.0025 40.6646 67.0524C40.8173 67.0825 40.9755 67.0648 41.1178 67.0016C41.2817 66.9688 41.4506 66.9712 41.6135 67.0088C41.7763 67.0464 41.9294 67.1182 42.0625 67.2196C42.1956 67.321 42.3057 67.4496 42.3855 67.5969C42.4654 67.7442 42.5132 67.9068 42.5257 68.074C42.778 67.8832 42.9869 67.6405 43.1384 67.3623C43.2899 67.084 43.3806 66.7765 43.4044 66.4603C43.4272 66.1071 43.4044 65.6776 43.6981 65.4845C44.078 65.2303 44.5692 65.6802 44.6502 66.1274C44.7313 66.5747 44.6047 67.0474 44.7313 67.4845C44.8933 68.0563 45.4631 68.4298 46.0404 68.5518C46.6281 68.6388 47.2253 68.6388 47.813 68.5518C48.2395 68.4878 48.6753 68.5341 49.0791 68.6865C49.469 68.872 49.7703 69.3167 49.6513 69.7335C49.5095 70.2291 48.9119 70.4019 48.4055 70.4959L41.4521 71.797L37.8741 72.4679C37.0916 72.6128 35.7091 73.3066 35.6837 72.1452C35.647 70.408 35.3762 68.6837 34.8785 67.0194C34.6785 66.3485 34.6557 65.6624 34.4607 65.0118C34.2227 64.2214 33.7846 63.4641 33.5162 62.6738C32.9753 61.0849 32.611 59.4409 32.4299 57.7716C32.3033 56.5976 32.3843 55.1821 33.387 54.5696C34.1112 54.13 35.0861 54.3155 35.7673 54.8237C36.5979 55.4413 36.9802 56.412 37.7475 57.0626C38.6388 57.825 39.3326 58.684 39.6314 59.8453C39.7189 60.2006 39.7757 60.5628 39.8011 60.9279Z" fill="#D9DBE2"/>
<path d="M43.3462 53.6827C43.2888 53.7593 43.2451 53.8453 43.217 53.9368C43.2113 54.0368 43.2313 54.1366 43.2753 54.2265C44.2527 56.6865 44.8655 59.2735 45.4732 61.8504C46.01 64.1173 46.5494 66.4019 46.6608 68.7297C46.6775 68.9001 46.6647 69.072 46.6228 69.238C46.4456 69.8123 45.6986 70.0004 45.3719 70.4959L44.2856 69.2507C44.2145 69.1772 44.1578 69.091 44.1185 68.9965C44.0856 68.8647 44.0856 68.7268 44.1185 68.595C44.4857 66.1071 44.078 63.5683 43.4981 61.1185C42.9917 59.0143 42.3662 56.9076 42.4042 54.745C42.4042 54.4908 42.4042 54.1808 42.2092 54.0105C42.0986 53.9353 41.9774 53.8771 41.8496 53.8377C41.7046 53.7664 41.5752 53.6669 41.469 53.5448C41.3628 53.4228 41.2818 53.2807 41.2309 53.1269C41.18 52.9732 41.1601 52.8107 41.1724 52.6492C41.1847 52.4876 41.229 52.3301 41.3027 52.1859C41.5332 52.1818 41.7596 52.1235 41.9636 52.0156C42.17 51.908 42.4075 51.8765 42.6346 51.9267C43.136 52.0995 43.6323 53.21 43.3462 53.6827Z" fill="#4A72CE"/>
<path d="M33.0123 52.2367C34.7848 50.5289 37.6791 50.7119 39.4846 50.7653C41.0896 50.8374 42.6977 50.7898 44.2957 50.623C44.5211 50.595 44.7541 50.5645 44.987 50.5417C44.0324 50.1503 42.6777 50.412 41.6597 50.4451C40.1168 50.4959 38.5747 50.5899 37.0334 50.7272C35.5749 50.8619 33.9593 51.1134 33.0123 52.2367Z" fill="white"/>
<path d="M38.4869 45.8479C38.892 47.1185 40.5278 48.3434 42.4422 47.8148C42.4422 47.8148 41.6825 50.102 42.6321 51.4972C42.6321 51.4972 42.0117 53.0906 37.8032 50.7348C37.8032 50.7348 38.9401 50.6408 38.6312 48.2977C38.54 47.4919 38.2559 46.7203 37.8032 46.0486C37.8553 46.099 37.9197 46.1347 37.9899 46.152C38.0601 46.1693 38.1337 46.1677 38.2031 46.1474C38.2725 46.127 38.3353 46.0885 38.3851 46.0359C38.435 45.9834 38.4701 45.9185 38.4869 45.8479Z" fill="#D5846C"/>
<path d="M40.5506 48.8034C42.7688 49.4591 44.5768 47.6242 45.3998 44.9101C45.4884 44.6153 45.5644 44.3053 45.6277 43.9902C45.8185 43.0892 45.9035 42.1689 45.8809 41.2481C45.7518 36.8034 39.3731 37.2557 39.3731 37.2557C34.2227 38.4069 36.689 47.6649 40.5506 48.8034Z" fill="#EB9D80"/>
<path d="M54.346 76.473L54.2144 76.3358C54.736 76.9254 55.088 77.3523 55.1943 77.4794C54.931 77.1338 54.6448 76.7958 54.346 76.473Z" fill="#DC9ED5"/>
<path d="M35.3495 37.5658C35.7335 36.7618 36.3744 36.1097 37.1701 35.7132C37.8994 35.3269 38.9629 35.4031 39.5605 34.8008C39.8821 34.4781 39.9454 33.9876 40.1303 33.5709C40.3198 33.1515 40.6373 32.8035 41.0368 32.5772C41.2973 32.4284 41.5884 32.3415 41.8876 32.3231C42.8119 32.2799 43.645 32.9965 44.002 33.8479C44.2552 33.4285 44.7794 33.2659 45.2681 33.2761C46.3924 33.2989 47.423 34.0969 47.8864 35.1261C48.0766 35.5286 48.1637 35.9723 48.1396 36.4171C48.1141 36.8655 47.9205 37.2877 47.5977 37.5988C47.5299 37.6702 47.4412 37.7183 47.3445 37.736C47.2974 37.7442 47.249 37.7354 47.2078 37.7113C47.1666 37.6871 47.1352 37.6491 47.1191 37.6039C46.8001 38.2784 46.4032 38.913 45.9366 39.4946C45.7795 39.7114 45.5717 39.8859 45.3314 40.0029C45.0925 40.0884 44.8341 40.1034 44.5869 40.0461C44.2477 39.983 43.9232 39.8572 43.6298 39.6751C43.5779 39.6327 43.5115 39.6126 43.4449 39.6191C43.3791 39.6369 43.3436 39.703 43.3107 39.764C43.2199 39.9426 43.0931 40.1003 42.9383 40.2272C42.7836 40.354 42.6043 40.4473 42.4118 40.501C42.0745 40.5467 41.7319 40.5338 41.3989 40.4629C40.9424 40.4057 40.4805 40.4057 40.0239 40.4629C39.7449 40.4869 39.4749 40.5738 39.2339 40.717C39.0876 40.8271 38.9689 40.9698 38.8872 41.1339C38.8055 41.298 38.7629 41.4789 38.7629 41.6623C38.7629 41.8072 38.9047 43.0016 38.73 43.0296C38.4489 43.0779 38.3932 42.6103 38.1476 42.4654C37.9019 42.3205 37.6639 42.5086 37.5373 42.7195C37.4334 42.9023 37.3886 43.1128 37.409 43.3222C37.4294 43.5316 37.5141 43.7295 37.6513 43.8885C37.7363 43.9613 37.8024 44.0537 37.8437 44.1579C37.8582 44.2632 37.8405 44.3704 37.7931 44.4654L37.3601 45.5582C36.7801 44.1833 36.0846 42.8604 35.2811 41.6039C34.9393 41.0956 34.5417 40.5289 34.6937 39.9419C34.8456 39.3549 35.4786 38.9254 35.347 38.3536C35.3216 38.2443 35.2685 38.1427 35.2533 38.0308C35.2413 37.8698 35.2746 37.7087 35.3495 37.5658Z" fill="#FC682D"/>
<path d="M39.006 71.3015C39.006 71.3015 41.7078 78.069 43.8754 78.778C46.043 79.487 59.4991 83.5633 59.4991 83.5633L65.2193 103.014L66.6981 102.105C67.2577 101.759 68.5947 101.261 68.934 100.699C69.3848 99.9597 68.7061 98.0182 68.577 97.177L67.992 93.365C67.2054 88.2113 66.4162 83.0567 65.6244 77.9012C65.6249 77.6462 65.5468 77.3972 65.4008 77.1884C65.2548 76.9797 65.0482 76.8212 64.8091 76.7348C62.162 75.3122 59.443 74.0288 56.663 72.8898C55.3007 72.3307 53.9257 71.8123 52.5406 71.3193C52.2671 71.2227 50.2388 70.1096 50.1831 70.1528C50.1654 70.1605 48.7271 71.2456 39.006 71.3015Z" fill="#2F3653"/>
<path d="M63.6139 103.728C62.991 102.346 62.9378 100.788 62.7555 99.2837C62.6213 98.1503 62.406 97.0296 62.1908 95.9089L59.2484 80.4883C59.2365 80.1601 59.1231 79.8438 58.9238 79.5833C58.7246 79.3228 58.4495 79.131 58.1367 79.0347C53.4117 76.7195 48.7676 74.2901 44.083 71.8834C44.083 71.8834 39.0186 70.0385 35.2583 72.6153C35.2583 72.6153 34.7519 78.7881 36.9194 79.4972C41.7087 81.0643 46.5359 82.4959 51.4011 83.792C51.6296 83.8385 51.8455 83.9338 52.0341 84.0715C52.2469 84.2847 52.3945 84.5545 52.4595 84.8491C54.2321 90.2646 56.0046 95.6827 57.6227 101.141C57.8151 101.785 58.0051 102.428 58.1924 103.07C58.3368 103.561 58.4457 104.849 58.8027 105.19C59.2762 105.67 59.9017 105.19 60.5347 104.936L63.9886 103.538L52.8166 76.3765L51.1909 75.5378" fill="#4C516C"/>
<path d="M71.3953 101.116C71.9677 101.13 72.5382 101.186 73.102 101.286C73.6291 101.345 74.1297 101.549 74.5479 101.876C74.7848 102.084 74.9431 102.367 74.9961 102.679C75.0193 102.834 75.0075 102.993 74.9615 103.143C74.9155 103.293 74.8364 103.43 74.7302 103.545C74.5266 103.721 74.2872 103.851 74.0288 103.924C73.4261 104.138 72.8226 104.349 72.2183 104.557C70.9243 105.004 69.6101 105.457 68.2427 105.53C68.1617 105.541 68.0791 105.533 68.0022 105.505C67.9431 105.475 67.8899 105.434 67.8452 105.385C67.0248 104.58 66.2499 103.634 66.0524 102.498C66.0423 102.46 66.0423 102.42 66.0524 102.382C66.0743 102.339 66.1077 102.304 66.1486 102.28C66.9742 101.719 67.8814 101.291 68.8378 101.009C69.7038 100.758 70.5192 101.098 71.3953 101.116Z" fill="#2F3653"/>
<path d="M64.8496 103.723C65.422 103.737 65.9925 103.794 66.5563 103.894C67.0834 103.952 67.584 104.156 68.0022 104.483C68.2391 104.691 68.3974 104.975 68.4504 105.286C68.4736 105.441 68.4618 105.6 68.4158 105.75C68.3697 105.9 68.2907 106.038 68.1845 106.153C67.9809 106.329 67.7415 106.458 67.4831 106.531C66.8804 106.745 66.2769 106.956 65.6726 107.164C64.3786 107.612 63.0644 108.064 61.697 108.138C61.6118 108.151 61.5247 108.142 61.4438 108.112C61.3847 108.082 61.3315 108.042 61.2868 107.993C60.4664 107.187 59.6915 106.242 59.494 105.106C59.4839 105.068 59.4839 105.027 59.494 104.989C59.5159 104.947 59.5493 104.911 59.5902 104.887C60.4158 104.327 61.323 103.898 62.2794 103.617C63.1581 103.365 63.9608 103.703 64.8496 103.723Z" fill="#2F3653"/>
<path d="M27.0464 75.5429C28.7278 79.4336 32.5109 82.1172 36.5649 83.3218C39.7251 84.2595 43.055 84.4044 46.3671 84.2138C46.3671 83.9876 46.2354 83.8504 45.9594 83.8377C42.7865 83.6776 41.4723 79.4921 40.5202 77.3625C39.5681 75.2329 38.9173 72.5569 32.7211 70.0893C26.6843 67.6903 27.4212 63.177 27.1198 64.0867C25.6993 68.3663 25.2587 71.4031 27.0464 75.5429Z" fill="#2F3653"/>
<path d="M26.6134 75.7208C28.2948 79.609 32.0779 82.2926 36.1319 83.4997C39.2921 84.4349 43.5361 84.595 46.8482 84.4019C46.8482 84.1782 46.2354 83.8504 45.9594 83.8377C42.7866 83.6776 41.4014 78.7068 40.4493 76.5772C39.4972 74.4476 38.6135 73.1973 32.7211 70.0944C23.9014 65.454 30.2826 59.1414 30.394 58.7373C28.2796 59.4209 27.1021 63.7335 26.8033 64.6433C25.3777 68.9178 24.8257 71.5785 26.6134 75.7208Z" fill="white"/>
<path opacity="0.23" d="M38.5932 82.8186C41.2748 83.5048 44.1134 83.5302 46.7241 84.4578C45.8961 84.163 44.1615 84.6204 43.2398 84.5925C41.974 84.5538 40.7129 84.4205 39.4668 84.1935C37.2588 83.792 34.3391 83.177 32.5185 81.8123C33.7036 80.8009 37.2816 82.4832 38.5932 82.8186Z" fill="#4A72CE"/>
<path d="M36.9853 106.557C37.0262 106.583 37.0705 106.602 37.117 106.615C37.1995 106.638 37.2858 106.642 37.3702 106.628C38.3096 106.511 42.9208 84.4756 42.9208 84.4756L42.2902 84.1071C42.2447 84.0817 42.1915 84.0537 42.1459 84.0334C41.9854 83.9654 41.8128 83.9307 41.6385 83.9312C41.4643 83.9318 41.2919 83.9677 41.1318 84.0368C40.9717 84.1058 40.8272 84.2066 40.7069 84.3331C40.5865 84.4596 40.4929 84.6092 40.4316 84.7729V84.7983C40.4034 84.8643 40.383 84.9334 40.3708 85.0042L36.7447 105.185C36.7447 105.185 36.532 106.247 36.9853 106.557Z" fill="#4A72CE"/>
<path d="M36.8815 104.742C36.8815 104.742 36.9194 106.013 36.9853 106.557C37.0258 106.811 37.0638 106.913 37.117 106.615C37.5702 103.95 41.3356 87.5861 42.1484 84.0384C41.9879 83.9705 41.8153 83.9357 41.6411 83.9363C41.4668 83.9369 41.2945 83.9728 41.1344 84.0418C40.9743 84.1109 40.8297 84.2117 40.7094 84.3382C40.5891 84.4647 40.4955 84.6143 40.4341 84.778V84.8034L36.8815 104.742Z" fill="url(#paint4_linear)"/>
<path d="M42.0421 73.7412C41.9863 74.0738 41.8116 74.3746 41.5508 74.5874C41.2699 74.8203 40.9328 74.9746 40.5734 75.0347C39.8872 75.144 39.1858 74.9534 38.5223 74.745C36.3976 74.084 34.3318 73.2459 32.3463 72.2393C31.693 71.9089 31.022 71.5379 30.6295 70.9178C30.1965 70.2215 30.1914 69.3447 30.2142 68.5264C30.3123 65.0992 30.6074 61.6806 31.0979 58.2875C31.3106 56.7856 31.2929 54.4603 32.1893 53.027C32.4088 52.6506 32.7201 52.3364 33.094 52.1141C33.4679 51.8918 33.8921 51.7687 34.3265 51.7564C35.7496 51.67 36.927 53.027 37.1879 54.4298C37.4487 55.8326 37.0435 57.271 36.6814 58.6535C36.175 60.6459 35.7344 62.6662 35.4153 64.6992C35.2659 65.6039 35.1494 66.5849 35.5824 67.3955C35.7871 67.7455 36.0432 68.0625 36.3421 68.3358C37.5463 69.513 38.8732 70.5567 40.2999 71.4489C41.1634 71.9953 42.1915 72.7323 42.0421 73.7412Z" fill="white"/>
<path d="M62.1022 61.8656C62.0327 62.2228 61.886 62.5604 61.6725 62.8546C61.459 63.1487 61.1839 63.3924 60.8664 63.5683C60.2311 63.9157 59.5487 64.1683 58.8407 64.318L55.9337 65.0804C54.4144 65.4819 52.5836 65.7996 51.4568 64.6992C51.2559 64.5137 51.1043 64.2809 51.0158 64.0217C50.9274 63.7625 50.9049 63.4852 50.9504 63.2151C50.9819 63.0781 51.0414 62.9492 51.1251 62.8364C51.3393 62.5998 51.5973 62.4073 51.8847 62.2697C52.7229 61.7713 53.4524 61.1084 54.0295 60.3205C52.3076 59.6751 50.5148 59.0169 49.074 57.8961C48.8057 57.6939 48.5519 57.4732 48.3143 57.2354C47.2549 56.1648 46.5358 54.8028 46.2481 53.3218C46.1215 52.7017 45.9062 51.6649 46.1316 51.0499C46.438 50.2087 47.0153 50.5975 47.8358 50.8339C50.9731 51.7386 53.875 53.3523 56.468 55.3167C57.9627 56.4642 59.3766 57.7141 60.6993 59.0575C61.4615 59.8225 62.2516 60.7856 62.1022 61.8656Z" fill="white"/>
<path opacity="0.38" d="M55.1918 61.2837C54.1789 61.9877 53.1356 62.6662 52.0822 63.3168C51.7759 63.5073 51.3504 63.6929 51.0896 63.4387C51.0174 63.3718 50.9701 63.2821 50.9554 63.1846C50.9869 63.0476 51.0464 62.9187 51.1301 62.806C51.3443 62.5694 51.6023 62.3769 51.8898 62.2392C52.728 61.7408 53.4575 61.0779 54.0346 60.2901C52.3076 59.6751 50.5148 59.0169 49.074 57.8962C49.074 57.8276 49.074 57.7589 49.074 57.6827C49.074 57.4286 49.0208 55.5785 48.8765 55.4896L55.3488 59.5099C55.6003 59.6287 55.8027 59.8318 55.9211 60.0842C56.0857 60.5544 55.6147 60.994 55.1918 61.2837Z" fill="#D9DBE2"/>
<path d="M48.9195 65.0652C48.7341 65.5409 48.6354 66.0462 48.6283 66.5569C48.5547 67.2512 48.6656 67.9527 48.9499 68.5899C49.269 69.2075 49.9299 69.6878 50.6186 69.6065C50.8542 69.5715 51.0791 69.4851 51.2778 69.3533C51.4764 69.2216 51.6438 69.0478 51.7683 68.8441C52.0156 68.4338 52.1477 67.964 52.1506 67.4845C52.4671 67.4032 52.6419 67.0626 52.7204 66.7424C52.7624 66.4166 52.8637 66.1014 53.0192 65.8123C53.2116 65.5404 53.5433 65.3879 53.7054 65.0957C53.7721 64.9574 53.8045 64.8049 53.7996 64.6513C53.7947 64.4977 53.7529 64.3476 53.6775 64.2138C53.2623 63.4082 51.9632 62.7119 51.1124 63.0855C50.2616 63.4591 49.3146 64.1579 48.9195 65.0652Z" fill="#EB9D80"/>
<path d="M40.7557 74.5035C41.29 75.3015 42.4194 75.4082 43.3664 75.2659C44.3328 75.1259 45.2671 74.8162 46.1265 74.3511C46.3548 74.2559 46.5416 74.0819 46.6532 73.8606C46.7013 73.705 46.7013 73.5384 46.6532 73.3828C46.5753 73.1233 46.4452 72.8825 46.271 72.6753C46.0968 72.4681 45.8822 72.299 45.6403 72.1783C45.1551 71.9398 44.6397 71.7688 44.1084 71.67C43.2499 71.4743 42.3358 71.2786 41.5078 71.5683C40.6798 71.8581 40.5253 71.8225 40.4341 72.656C40.386 73.2608 40.4088 73.9927 40.7557 74.5035Z" fill="#EB9D80"/>
<path d="M38.1602 49.6725L39.8796 50.5671C40.4858 50.8502 41.0541 51.2088 41.5711 51.6344C41.2577 52.3333 41.0536 53.0764 40.9659 53.8377C40.5136 53.2721 39.9882 52.7696 39.4035 52.3434C38.8591 51.9826 38.2261 51.7589 37.7171 51.3447C37.117 50.8568 37.8538 50.1706 38.1602 49.6725Z" fill="white"/>
<path d="M43.5538 51.3701L44.3565 52.4425C44.4111 52.504 44.4495 52.5783 44.4679 52.6585C43.8498 52.3677 43.1983 52.1544 42.5283 52.0232C42.4915 52.0219 42.4555 52.0126 42.4227 51.9959C42.3899 51.9793 42.3611 51.9556 42.3383 51.9266C42.3147 51.8731 42.3102 51.8129 42.3257 51.7564C42.3759 51.3535 42.3081 50.9447 42.1307 50.5798C42.0579 50.4659 42.0104 50.3376 41.9914 50.2036C41.9585 49.609 42.589 50.2341 42.7359 50.379C43.0324 50.6888 43.3058 51.0201 43.5538 51.3701Z" fill="white"/>
<path opacity="0.41" d="M94.9498 52.0232V54.3104C94.9502 54.7902 94.8563 55.2653 94.6736 55.7087C94.4909 56.152 94.2229 56.5549 93.885 56.8943C93.547 57.2336 93.1458 57.5029 92.7042 57.6865C92.2625 57.8702 91.7891 57.9648 91.3111 57.9648H60.474C59.5091 57.9614 58.585 57.5739 57.9047 56.8872C57.2243 56.2006 56.8433 55.2711 56.8453 54.3028V52.0156L94.9498 52.0232Z" fill="#4A72CE"/>
<path opacity="0.43" d="M41.5508 74.5874C41.27 74.8203 40.9328 74.9746 40.5734 75.0347C39.8872 75.1439 39.1858 74.9533 38.5223 74.745C36.3976 74.084 34.3318 73.2458 32.3463 72.2392C31.693 71.9089 31.022 71.5378 30.6295 70.9178C30.1965 70.2214 30.1914 69.3447 30.2142 68.5264C30.3123 65.0992 30.6074 61.6806 31.0979 58.2875C31.3106 56.7856 31.2929 54.4603 32.1893 53.027C32.4533 53.1036 32.7121 53.1969 32.9642 53.3066C33.3079 53.4224 33.603 53.6506 33.8023 53.9546C34.0201 54.3561 33.9289 54.8542 33.8251 55.3066C32.8813 59.6241 32.2308 64.001 31.8778 68.407C31.8308 68.6126 31.8476 68.8277 31.9259 69.0235C32.0042 69.2193 32.1403 69.3863 32.3159 69.5023C33.1783 70.2842 34.0984 70.9995 35.0684 71.642C36.5877 72.6586 38.4312 73.8225 40.2392 74.1579C40.7532 74.257 41.1735 74.2621 41.5508 74.5874Z" fill="#D9DBE2"/>
<path d="M121.789 15.3803H92.8582C89.6319 15.3803 87.0165 18.0051 87.0165 21.243V23.6929C87.0165 26.9308 89.6319 29.5556 92.8582 29.5556H121.789C125.015 29.5556 127.63 26.9308 127.63 23.6929V21.243C127.63 18.0051 125.015 15.3803 121.789 15.3803Z" fill="white"/>
<path d="M111.764 34.2367L108.102 29.0194H111.764V34.2367Z" fill="white"/>
</g>
<defs>
<linearGradient id="paint0_linear" x1="75.1683" y1="50.3714" x2="75.0051" y2="72.7398" gradientUnits="userSpaceOnUse">
<stop offset="0.01"/>
<stop offset="0.08" stop-opacity="0.69"/>
<stop offset="0.21" stop-opacity="0.32"/>
<stop offset="1" stop-opacity="0"/>
</linearGradient>
<linearGradient id="paint1_linear" x1="1015.17" y1="10009.8" x2="801.123" y2="10012.4" gradientUnits="userSpaceOnUse">
<stop offset="0.01"/>
<stop offset="0.08" stop-opacity="0.69"/>
<stop offset="0.21" stop-opacity="0.32"/>
<stop offset="1" stop-opacity="0"/>
</linearGradient>
<linearGradient id="paint2_linear" x1="3058.3" y1="9205.21" x2="2466.23" y2="9287.5" gradientUnits="userSpaceOnUse">
<stop offset="0.01"/>
<stop offset="0.08" stop-opacity="0.69"/>
<stop offset="0.21" stop-opacity="0.32"/>
<stop offset="1" stop-opacity="0"/>
</linearGradient>
<linearGradient id="paint3_linear" x1="-5536.82" y1="10009.8" x2="-5323.23" y2="10012.4" gradientUnits="userSpaceOnUse">
<stop offset="0.01"/>
<stop offset="0.08" stop-opacity="0.69"/>
<stop offset="0.21" stop-opacity="0.32"/>
<stop offset="1" stop-opacity="0"/>
</linearGradient>
<linearGradient id="paint4_linear" x1="-19882.6" y1="9205.21" x2="-19290.5" y2="9287.49" gradientUnits="userSpaceOnUse">
<stop offset="0.01"/>
<stop offset="0.08" stop-opacity="0.69"/>
<stop offset="0.21" stop-opacity="0.32"/>
<stop offset="1" stop-opacity="0"/>
</linearGradient>
<clipPath id="clip0">
<rect width="167.323" height="130" fill="white" transform="translate(0 0.0892944)"/>
</clipPath>
</defs>
</svg>
