<svg width="153" height="131" viewBox="0 0 153 131" fill="none" xmlns="http://www.w3.org/2000/svg">
<g clip-path="url(#clip0)">
<path opacity="0.18" d="M127.631 14.3342C126.16 11.7206 124.274 9.36313 122.047 7.35373C116.788 2.70007 109.663 0.587307 102.65 0.173131C95.6373 -0.241045 88.6382 0.899102 81.7089 2.0346C77.837 2.70007 73.8954 3.34227 70.4145 5.18047C64.7882 8.16812 61.3212 13.7618 58.6593 19.3416C55.9974 24.9213 54.3128 31.1107 48.0815 33.7679C44.1585 35.4479 39.5141 35.997 35.4282 37.4164C27.517 40.1713 19.8338 43.9315 13.3792 49.353C7.11537 54.6116 3.55066 65.4686 1.57751 73.1984C-0.395639 80.9281 -0.707433 89.2907 1.76366 96.932C5.74254 109.222 16.5623 118.381 28.5455 123.202C40.5286 128.023 53.6752 129.056 66.5752 129.47C77.744 129.829 89.406 130.545 100.547 129.689C104.931 129.354 108.979 128.959 113.461 128.907C118.781 128.92 124.075 128.166 129.181 126.669C137.339 124.161 144.906 119.042 149.043 111.596C154.627 101.497 153.18 88.8858 149.387 77.9777C145.594 67.0695 139.689 56.9292 136.562 45.8116C134.677 39.101 133.835 32.1345 132.02 25.4006C131.038 21.5387 129.563 17.8193 127.631 14.3342Z" fill="#4A72CE"/>
<path opacity="0.18" d="M51.0088 116.524C49.4731 117.189 47.8536 118.711 48.4679 120.27C55.2064 122.723 62.5545 122.723 69.7258 122.69C87.1072 122.611 104.489 122.536 121.847 122.378C123.294 122.378 124.807 122.336 126.077 121.643C127.347 120.95 128.26 119.367 127.706 118.032C127.185 116.784 125.705 116.291 124.388 115.975C120.04 114.927 115.616 114.23 111.157 113.89C107.537 113.611 103.446 113.364 101.096 110.595C100.207 109.548 99.6768 108.231 98.7693 107.207C93.3385 101.088 80.5642 103.815 75.9291 109.027C68.8695 116.985 59.8042 112.703 51.0088 116.524Z" fill="#4A72CE"/>
<path d="M67.9993 68.9728C66.9662 71.9279 66.0727 74.9853 66.054 78.1172C66.0354 81.2491 66.9848 84.4927 69.1953 86.7079C72.4296 89.9654 77.4648 90.3238 82.0394 90.5053L88.0891 90.7473C90.4671 90.8403 92.8684 90.9334 95.1999 90.4587C97.5314 89.9841 99.8117 88.8625 101.25 86.9545C102.175 85.6009 102.794 84.0621 103.065 82.4451C104.703 74.492 102.045 66.0177 97.0521 59.6143C95.6003 57.6694 93.8284 55.9856 91.8121 54.6349C88.4521 52.4988 78.4514 49.2971 75.1659 52.8758C73.6721 54.4999 72.7274 57.79 71.7827 59.7818C70.3593 62.7761 69.0963 65.8441 67.9993 68.9728Z" fill="white"/>
<path d="M71.1033 67.2788C70.2656 69.6708 69.5443 72.1419 69.5304 74.6782C69.5164 77.2144 70.2843 79.8344 72.0713 81.6261C74.6866 84.2461 78.7632 84.5486 82.4582 84.6975L87.3585 84.8929C89.2769 85.0448 91.2065 84.9652 93.1058 84.6556C94.9905 84.2693 96.8287 83.3665 97.9829 81.8215C98.7344 80.7295 99.2364 79.4855 99.4534 78.1777C100.78 71.7417 98.6297 64.8915 94.5903 59.712C93.4167 58.1373 91.9829 56.7744 90.3508 55.6819C87.6331 53.9554 79.545 51.368 76.8878 54.2579C75.6825 55.5749 74.9147 58.2368 74.1561 59.8423C73.0068 62.265 71.9877 64.7474 71.1033 67.2788Z" fill="url(#paint0_linear)"/>
<path d="M76.9529 109.702C76.4875 110.511 75.971 111.289 75.5289 112.103C74.8541 113.369 74.3887 114.863 74.8355 116.221C74.8979 116.458 75.0253 116.672 75.2031 116.84C75.4407 117.008 75.7186 117.109 76.0082 117.134C76.949 117.281 77.8994 117.359 78.8516 117.366C80.1546 117.366 81.56 117.213 82.528 116.338C84.4686 114.574 84.3383 110.232 83.226 108.101C83.1184 107.83 82.9327 107.596 82.6924 107.431C82.4522 107.265 82.1683 107.174 81.8765 107.17C80.997 106.999 80.0981 106.95 79.2053 107.026C78.2047 107.137 77.9395 107.379 77.5905 108.333C77.4145 108.806 77.2013 109.263 76.9529 109.702Z" fill="#4A72CE"/>
<path d="M79.5078 109.888C79.7414 109.929 79.9779 109.953 80.2151 109.958C80.9411 109.99 81.7648 109.985 82.2814 109.469C82.7979 108.952 82.8072 108.194 82.8072 107.491V104.764C82.8072 102.963 81.1226 103.21 79.801 103.433C79.4938 103.47 79.2 103.58 78.9447 103.754C78.4793 104.122 78.4281 104.792 78.4095 105.378L78.3165 108.25C78.2755 108.594 78.3269 108.942 78.4654 109.26C78.5804 109.436 78.734 109.584 78.9145 109.693C79.0951 109.802 79.2979 109.869 79.5078 109.888Z" fill="#FDBAAC"/>
<path d="M93.9806 109.702C94.446 110.511 94.9626 111.288 95.3767 112.103C96.0562 113.369 96.5215 114.863 96.0701 116.221C96.0077 116.458 95.8803 116.672 95.7025 116.84C95.4656 117.009 95.1874 117.111 94.8974 117.133C93.9582 117.281 93.0093 117.358 92.0587 117.366C90.7556 117.366 89.3456 117.213 88.3823 116.338C86.437 114.574 86.5673 110.232 87.6796 108.101C87.773 107.899 87.9023 107.716 88.0612 107.561C88.3416 107.345 88.6771 107.213 89.0291 107.179C89.9102 107.008 90.8106 106.96 91.705 107.035C92.7009 107.147 92.9661 107.389 93.3152 108.343C93.4987 108.813 93.7213 109.268 93.9806 109.702Z" fill="#4A72CE"/>
<path d="M91.4258 109.888C91.1922 109.929 90.9557 109.953 90.7184 109.958C89.9878 109.99 89.1688 109.985 88.6522 109.469C88.1357 108.952 88.1217 108.194 88.1217 107.491V104.764C88.1217 102.963 89.811 103.21 91.128 103.433C91.4368 103.469 91.7323 103.579 91.9889 103.754C92.4543 104.122 92.5008 104.792 92.5194 105.378L92.6125 108.25C92.6549 108.593 92.6051 108.942 92.4682 109.26C92.3532 109.436 92.1996 109.584 92.0191 109.693C91.8385 109.802 91.6357 109.869 91.4258 109.888Z" fill="#FDBAAC"/>
<path d="M90.1414 39.2359C90.1414 39.2359 95.8188 41.693 96.4843 42.2515C97.08 42.7494 95.4652 76.8328 95.3395 78.4988C95.2139 80.1648 86.1299 80.4301 82.2022 79.6808C79.5816 79.147 77.0171 78.368 74.5423 77.354C74.5423 77.354 73.2998 42.1491 74.077 41.5208C74.8541 40.8926 82.3605 38.5704 82.3605 38.5704L90.1414 39.2359Z" fill="#4A72CE"/>
<path d="M71.4662 81.2724C71.0428 82.8267 70.7868 84.5765 71.5965 85.9633C72.1361 86.8126 72.9434 87.4578 73.8908 87.7968C74.8325 88.1286 75.8133 88.3367 76.8086 88.4157C82.9066 89.1115 89.0782 88.7764 95.0649 87.4245C95.9001 87.3106 96.6842 86.9565 97.322 86.4054C97.8511 85.759 98.1579 84.9594 98.1969 84.1251C98.5517 81.1678 97.9395 78.1752 96.4517 75.5949C96.3484 75.3835 96.187 75.2059 95.9864 75.083C95.7935 74.9977 95.5822 74.9625 95.3721 74.9806L79.8801 75.0318C78.7554 75.0598 77.6302 75.0179 76.5108 74.9062C75.6406 74.8038 74.6493 74.25 74.0258 74.9946C72.6995 76.5489 71.9875 79.3364 71.4662 81.2724Z" fill="#473F47"/>
<path d="M71.4662 81.2724C71.0428 82.8267 70.7868 84.5765 71.5965 85.9633C72.1361 86.8126 72.9434 87.4578 73.8908 87.7968C74.8325 88.1286 75.8133 88.3367 76.8086 88.4157C82.9066 89.1115 89.0782 88.7764 95.0649 87.4245C95.9001 87.3106 96.6842 86.9565 97.322 86.4054C97.8511 85.759 98.1579 84.9594 98.1969 84.1251C98.5517 81.1678 97.9395 78.1752 96.4517 75.5949C96.3484 75.3835 96.187 75.2059 95.9864 75.083C95.7935 74.9977 95.5822 74.9625 95.3721 74.9806L79.8801 75.0318C78.7554 75.0598 77.6302 75.0179 76.5108 74.9062C75.6406 74.8038 74.6493 74.25 74.0258 74.9946C72.6995 76.5489 71.9875 79.3364 71.4662 81.2724Z" fill="url(#paint1_linear)"/>
<path d="M89.9273 105.779L90.8348 105.867C93.5805 106.142 94.688 103.801 94.9626 101.055C95.0278 100.483 95.1627 99.9057 95.2604 99.3379L97.0707 88.7927L97.9084 83.9064C97.9921 83.4131 98.0806 82.9244 98.1597 82.4311C98.4017 80.9978 97.9689 79.6157 97.6943 78.1777C97.5314 77.3075 97.322 76.3721 96.6519 75.795C95.9818 75.218 95.0557 75.1668 94.1901 75.1249C91.8912 75.0225 89.5597 74.9155 87.3213 75.4507C87.1836 75.4683 87.0566 75.5343 86.963 75.6368C86.9003 75.7552 86.879 75.8912 86.9025 76.0231C87.0653 78.2103 87.4144 80.3789 87.3678 82.5661L86.9723 100.138C86.693 102.87 87.1817 105.504 89.9273 105.779Z" fill="#473F47"/>
<path d="M81.3413 106.477L80.4106 106.565C77.6696 106.84 76.5574 104.499 76.2828 101.753L73.3278 84.5346C73.0904 83.1664 72.8903 81.8494 72.7879 80.458C72.6743 79.5172 72.7057 78.5645 72.881 77.6332C72.9717 77.1682 73.1672 76.7299 73.4527 76.3517C73.7381 75.9735 74.106 75.6654 74.5284 75.4507C74.9747 75.281 75.4471 75.1897 75.9245 75.1807C77.4962 75.078 79.0744 75.153 80.6293 75.4041C81.188 75.4515 81.725 75.6422 82.1883 75.9579C82.6466 76.4035 82.9694 76.9699 83.119 77.5913C83.5844 78.9316 84.1847 80.4115 84.0498 81.8448C83.9386 82.7604 83.8857 83.6821 83.8916 84.6044L84.0265 90.7007L84.2545 100.673C84.2499 100.729 84.2499 100.785 84.2545 100.841C84.557 103.554 84.0684 106.188 81.3413 106.477Z" fill="#473F47"/>
<path d="M129.097 70.5411V71.5463C129.098 71.7392 129.06 71.9303 128.987 72.1087C128.914 72.2871 128.806 72.4492 128.669 72.5858C128.533 72.7224 128.371 72.8308 128.193 72.9048C128.015 72.9788 127.824 73.0168 127.631 73.0168H41.7293C41.5364 73.0168 41.3454 72.9788 41.1673 72.9048C40.9891 72.8308 40.8273 72.7224 40.6911 72.5858C40.555 72.4492 40.4471 72.2871 40.3737 72.1087C40.3003 71.9303 40.2628 71.7392 40.2634 71.5463V70.5411C40.2634 70.1523 40.4179 69.7794 40.6928 69.5045C40.9677 69.2296 41.3406 69.0752 41.7293 69.0752H127.631C128.02 69.0752 128.393 69.2296 128.668 69.5045C128.943 69.7794 129.097 70.1523 129.097 70.5411Z" fill="#473F47"/>
<path d="M102.376 53.4947C102.376 53.4947 106.062 61.1732 105.666 63.2674C105.391 64.7426 102.567 66.0363 101.45 66.7064C100.333 67.3766 99.2114 68.2003 98.0526 68.6563C96.8938 69.1124 95.5722 68.9355 94.3948 68.8983L88.3451 68.7029C88.0565 68.7029 87.6703 68.5958 87.6703 68.3026C87.6703 68.1305 87.8192 67.9955 87.9635 67.8978C88.416 67.5823 88.9412 67.387 89.4899 67.33C90.797 67.2473 92.0884 67.0002 93.3338 66.5948L100.296 61.8015L98.6157 58.6882L102.376 53.4947Z" fill="#FDBAAC"/>
<path d="M74.4074 41.3533C73.1975 41.8792 72.3691 42.6051 72.0806 43.8477C71.6152 45.7696 70.6612 47.3798 69.7537 49.1249C69.2122 50.1845 68.7457 51.2808 68.3576 52.4057C68.207 52.7476 68.1523 53.1241 68.1994 53.4947C68.2798 53.775 68.416 54.0361 68.5996 54.2626C69.6762 55.7641 70.7962 57.2331 71.9596 58.6696C72.6618 58.3447 73.3331 57.9568 73.9653 57.5108C74.212 57.1199 74.1142 56.1799 74.1515 55.7238C74.2197 54.7931 74.2818 53.8515 74.3376 52.899L74.4074 41.3533Z" fill="#4A72CE"/>
<path d="M88.0705 34.9638C88.1157 35.1849 88.1452 35.4088 88.159 35.634C88.2194 36.5368 88.1264 37.4628 88.3963 38.3238C88.5006 38.634 88.6412 38.9308 88.8151 39.208C89.462 40.2318 88.6616 41.9024 88.0938 42.8332C87.3725 44.0105 86.2323 45.16 84.785 45.2996C82.9655 45.4625 82.1743 43.4381 81.8393 42.0002C81.6438 41.1718 81.4763 40.5761 81.7881 39.7571C82.0999 38.9381 82.5839 38.1562 82.8305 37.2907C83.0375 36.2932 83.1559 35.2794 83.1842 34.2611C83.1965 33.9899 83.268 33.7246 83.3936 33.484C83.5 33.3266 83.6375 33.1925 83.7975 33.0901C83.9576 32.9877 84.1368 32.919 84.3243 32.8883C84.6916 32.8239 85.0662 32.8129 85.4366 32.8557C86.0096 32.8544 86.574 32.9951 87.0793 33.2652C87.3487 33.4687 87.5751 33.7236 87.7452 34.0151C87.9154 34.3067 88.026 34.6292 88.0705 34.9638Z" fill="#FDBAAC"/>
<path d="M83.0213 36.4949C83.0213 36.4949 83.7612 41.1253 85.7297 40.2923C87.6982 39.4593 88.1775 36.802 88.1775 36.802L83.0213 36.4949Z" fill="#DEA095"/>
<path d="M88.8709 39.1754C88.8709 39.1754 87.1305 44.5364 85.2969 45.2531C85.2969 45.2531 84.8083 45.5742 86.2509 46.2722C87.6935 46.9703 91.1559 42.5167 90.3368 39.557C90.2439 39.1784 90.0551 38.8302 89.7886 38.5457C89.522 38.2613 89.1868 38.0502 88.8151 37.9329L88.8709 39.1754Z" fill="white"/>
<path d="M81.9788 38.6542C81.9788 38.6542 81.7136 42.5074 83.482 44.9878C83.482 44.9878 82.9189 46.0209 82.3697 46.0721C81.8206 46.1233 80.1592 42.9588 80.5083 40.4458C80.6711 38.9986 81.667 38.2912 81.9788 38.6542Z" fill="white"/>
<path d="M80.4479 26.1638C80.4479 26.1638 80.5409 33.3257 81.2623 35.1919C81.9836 37.058 83.7752 38.5564 85.4133 38.4075C87.0514 38.2586 89.3969 36.6671 90.2717 34.1076C91.1466 31.548 91.1466 25.475 90.7976 24.6792C90.4486 23.8835 88.5685 21.4449 84.2313 22.2361C81.2483 22.7805 80.3501 25.0701 80.4479 26.1638Z" fill="#FDBAAC"/>
<path d="M102.516 49.7811C103.12 50.6374 103.549 51.2563 103.651 51.4006C103.809 51.5965 103.927 51.8208 104 52.0614C104.027 52.2819 104.009 52.5057 103.945 52.7187C103.882 52.9317 103.776 53.1293 103.632 53.2993C102.986 54.23 102.032 54.8629 101.199 55.6261C100.261 56.5541 99.4203 57.5754 98.6902 58.6742C98.1253 58.2708 97.6098 57.8022 97.1545 57.2781C96.718 56.9473 96.3763 56.5073 96.1639 56.0024C95.9515 55.4975 95.8758 54.9456 95.9445 54.4022L95.8608 48.399L95.8142 45.3974C95.8142 44.8808 95.1487 42.5447 95.4698 42.1398C96.233 41.1858 100.421 46.8586 102.516 49.7811Z" fill="#4A72CE"/>
<path d="M79.5403 28.8163C79.4872 28.8001 79.4305 28.8001 79.3774 28.8163C79.3258 28.8497 79.284 28.8963 79.2564 28.9513C79.0674 29.2876 79.0031 29.6798 79.075 30.0588C79.1534 30.3708 79.2723 30.6712 79.4286 30.9523C79.5878 31.409 79.8715 31.8119 80.2477 32.1158C80.3231 32.17 80.4158 32.1948 80.5083 32.1856C80.5755 32.1738 80.6374 32.1413 80.6851 32.0925C80.9265 31.8073 81.0527 31.4421 81.0388 31.0687C81.1394 30.547 81.0432 30.0066 80.7689 29.5516C80.6311 29.3459 80.4495 29.1732 80.2371 29.0461C80.0247 28.919 79.7867 28.8405 79.5403 28.8163Z" fill="#FDBAAC"/>
<path d="M91.7469 28.7C91.8006 28.6884 91.8561 28.6884 91.9098 28.7C91.9605 28.7345 92.0021 28.7808 92.0308 28.835C92.2176 29.1737 92.2817 29.5666 92.2123 29.9472C92.1281 30.2573 92.0095 30.557 91.8586 30.8407C91.6989 31.2957 91.4152 31.6971 91.0396 31.9994C90.9631 32.0556 90.8688 32.0821 90.7743 32.0739C90.7096 32.059 90.6501 32.0268 90.6021 31.9808C90.3615 31.6952 90.2355 31.3303 90.2485 30.957C90.1447 30.4354 90.241 29.8938 90.5184 29.4399C90.6556 29.2334 90.837 29.0598 91.0495 28.9319C91.2619 28.8039 91.5001 28.7247 91.7469 28.7Z" fill="#FDBAAC"/>
<path d="M79.2192 25.5029C79.0703 24.5722 79.0377 23.4972 79.6846 22.8131C79.8196 22.6688 79.9824 22.5525 80.122 22.4129C80.2617 22.2733 80.4757 21.9894 80.6572 21.7753C81.1985 21.1895 81.8568 20.7239 82.5896 20.4088C83.3223 20.0938 84.1131 19.9362 84.9107 19.9465C86.5017 19.9784 88.0756 20.2822 89.5643 20.8446C90.402 21.1176 91.2334 21.4139 92.0587 21.7335C92.3794 21.8345 92.6757 22.0008 92.9289 22.2221C93.1082 22.4205 93.2288 22.6648 93.2773 22.9278C93.3258 23.1907 93.3002 23.462 93.2035 23.7113C93.0639 24.1068 92.7754 24.4419 92.659 24.8421C92.5893 25.1582 92.5612 25.482 92.5753 25.8054C92.5459 26.6657 92.3198 27.5078 91.9144 28.2672C91.6906 28.7505 91.3169 29.1487 90.8487 29.4027C90.8856 28.24 90.7284 27.0792 90.3834 25.9683C89.397 26.7639 88.1971 27.2497 86.935 27.3644C85.6782 27.4725 84.4125 27.3285 83.2121 26.9409C82.9191 26.8146 82.5959 26.7758 82.2813 26.8292C81.9788 26.913 81.7369 27.2946 81.909 27.5459C81.8499 27.5082 81.7838 27.4827 81.7147 27.4708C81.6456 27.4588 81.5748 27.4607 81.5065 27.4763C81.4381 27.4918 81.3735 27.5208 81.3164 27.5615C81.2593 27.6022 81.2108 27.6538 81.1738 27.7134C81.0378 27.9627 80.9719 28.2441 80.983 28.5278L80.9039 30.3055C79.8382 29.0537 79.4798 27.127 79.2192 25.5029Z" fill="#FC682D"/>
<path d="M68.1901 53.4947C67.4269 55.0816 66.7241 56.7057 66.1006 58.3531C65.633 59.4957 65.2625 60.6757 64.993 61.8806C64.8953 62.3459 64.6672 62.9835 64.8394 63.4535C65.1047 64.1748 66.1983 64.7379 66.8126 65.1102C68.7702 66.3096 70.8088 67.3717 72.9135 68.2887C73.7293 68.6793 74.593 68.961 75.4823 69.1263C76.1801 69.2117 76.8843 69.2319 77.5858 69.1868L81.6252 69.0472C81.9928 69.0472 82.4721 68.9216 82.5047 68.5539C82.5047 68.298 82.286 68.0886 82.0673 67.9536C81.3468 67.4976 80.5626 67.151 79.7404 66.9251C78.9353 66.7064 77.9395 66.8553 77.1809 66.5854C76.3246 66.2829 75.3706 65.3243 74.6121 64.7984L70.2702 61.8015L71.9502 58.6882L68.1901 53.4947Z" fill="#FDBAAC"/>
<path d="M96.2796 67.4371H73.6396L71.6524 52.1824L97.8851 52.5454L96.2796 67.4371Z" fill="#4A72CE"/>
<path d="M47.5557 69.0752L46.9042 73.0168L39.3839 119.321C39.352 119.617 39.2214 119.895 39.0129 120.108C38.8045 120.322 38.5303 120.459 38.2345 120.498C37.7039 120.498 37.3596 119.968 37.4666 119.321L44.9869 73.0168L45.6245 69.0752H47.5557Z" fill="#473F47"/>
<path d="M122.494 69.0752L123.131 73.0168L130.67 119.321C130.702 119.617 130.833 119.895 131.041 120.108C131.25 120.322 131.524 120.459 131.82 120.498C132.35 120.498 132.694 119.968 132.587 119.321L125.067 73.0168L124.43 69.0752H122.494Z" fill="#473F47"/>
<path d="M96.2796 67.4324H73.5278V69.0938H96.2796V67.4324Z" fill="#4A72CE"/>
<path d="M96.2796 67.4324H73.5278V69.0938H96.2796V67.4324Z" fill="url(#paint2_linear)"/>
<path d="M55.9184 69.0751H44.6798C45.089 67.9115 45.8494 66.9036 46.856 66.1906C47.8625 65.4777 49.0656 65.0947 50.2991 65.0947C51.5326 65.0947 52.7356 65.4777 53.7422 66.1906C54.7487 66.9036 55.5091 67.9115 55.9184 69.0751Z" fill="#4A72CE"/>
<path d="M44.1655 47.7337C44.0137 47.2885 43.5297 47.0507 43.0846 47.2025C42.6394 47.3543 42.4016 47.8383 42.5534 48.2834L48.6005 66.0163C48.7523 66.4615 49.2363 66.6993 49.6815 66.5475C50.1266 66.3957 50.3644 65.9118 50.2126 65.4666L44.1655 47.7337Z" fill="#4A72CE"/>
<path d="M43.1124 47.1775C42.6636 47.3184 42.4142 47.7965 42.5551 48.2452C42.6961 48.6939 43.1741 48.9434 43.6228 48.8024L61.4972 43.1872C61.9459 43.0462 62.1954 42.5682 62.0544 42.1195C61.9135 41.6708 61.4355 41.4213 60.9867 41.5623L43.1124 47.1775Z" fill="#4A72CE"/>
<path d="M68.5624 43.8291C67.1198 45.8953 65.4119 47.2169 64.6812 46.8586C64.6485 46.8412 64.6174 46.8209 64.5882 46.7981L64.4904 46.7376C62.3591 45.2438 60.3906 41.2928 61.8844 39.1568C63.3782 37.0207 67.7666 37.5094 69.898 39.0032L69.9911 39.073C70.0224 39.0921 70.052 39.1139 70.0795 39.1382C70.6659 39.7013 70.0097 41.7582 68.5624 43.8291Z" fill="#4A72CE"/>
<path d="M68.5624 43.829C67.1197 45.8953 65.4118 47.2169 64.6812 46.8586L64.6161 46.8213C64.6046 46.8166 64.5948 46.8085 64.5881 46.7981C63.9413 46.2815 64.5881 44.192 66.068 42.0839C67.5479 39.9758 69.2837 38.6449 69.991 39.073H70.0236L70.0794 39.1195C70.6658 39.7012 70.0096 41.7582 68.5624 43.829Z" fill="#4A72CE"/>
<path d="M68.5624 43.829C67.1197 45.8953 65.4118 47.2169 64.6812 46.8586L64.6161 46.8213C64.6046 46.8166 64.5948 46.8085 64.5881 46.7981C63.9413 46.2815 64.5881 44.192 66.068 42.0839C67.5479 39.9758 69.2837 38.6449 69.991 39.073H70.0236L70.0794 39.1195C70.6658 39.7012 70.0096 41.7582 68.5624 43.829Z" fill="white"/>
<path d="M116.574 53.4901H113.847C113.225 53.4901 112.721 53.9943 112.721 54.6162V68.0746C112.721 68.6966 113.225 69.2008 113.847 69.2008H116.574C117.196 69.2008 117.7 68.6966 117.7 68.0746V54.6162C117.7 53.9943 117.196 53.4901 116.574 53.4901Z" fill="#4A72CE"/>
<path d="M121.407 53.4157L118.687 53.6031C118.066 53.6458 117.598 54.1835 117.641 54.804L118.565 68.2306C118.608 68.8511 119.146 69.3195 119.766 69.2767L122.487 69.0893C123.107 69.0466 123.576 68.5089 123.533 67.8884L122.608 54.4619C122.566 53.8414 122.028 53.373 121.407 53.4157Z" fill="#4A72CE"/>
<path d="M96.3028 67.4371H73.6628L71.6757 52.1824L97.9083 52.5454L96.3028 67.4371Z" fill="#473F47"/>
<path d="M72.6669 51.4285L71.6757 52.1824L97.9083 52.5453L97.0055 51.6612L72.6669 51.4285Z" fill="url(#paint3_linear)"/>
<path d="M120.455 26.322C120.319 28.0185 119.598 29.6154 118.417 30.8407C117.356 31.8869 116.601 33.2032 116.234 34.6474C116.132 35.0895 116.076 35.5455 115.997 36.0435H109.482C109.435 35.7131 109.403 35.3827 109.338 35.0615C109.063 33.6653 108.4 32.3748 107.425 31.3386C106.563 30.4606 105.884 29.4197 105.429 28.2765C105.042 27.2008 104.895 26.0533 105 24.9149C105.105 23.7765 105.458 22.6749 106.035 21.688C106.612 20.701 107.398 19.8526 108.339 19.2028C109.28 18.5529 110.351 18.1173 111.478 17.9268C111.688 17.8942 111.893 17.8709 112.093 17.8523C113.225 17.758 114.364 17.9134 115.43 18.3073C116.496 18.7013 117.462 19.3243 118.261 20.1324C119.06 20.9405 119.671 21.914 120.053 22.9842C120.435 24.0545 120.577 25.1955 120.469 26.3266L120.455 26.322Z" fill="white"/>
<path d="M119.18 26.322C119.047 28.0185 118.328 29.616 117.147 30.8407C116.084 31.8866 115.328 33.2029 114.959 34.6474C114.857 35.0895 114.806 35.5455 114.722 36.0435H109.487C109.44 35.7131 109.408 35.3827 109.342 35.0616C109.068 33.6653 108.405 32.3748 107.43 31.3386C106.568 30.4606 105.889 29.4197 105.433 28.2765C105.046 27.2008 104.9 26.0533 105.005 24.9149C105.109 23.7765 105.463 22.6749 106.04 21.688C106.617 20.701 107.403 19.8526 108.344 19.2028C109.284 18.5529 110.356 18.1173 111.483 17.9268C111.692 17.8942 111.897 17.8709 112.097 17.8523C113.122 17.9364 114.12 18.2232 115.033 18.6961C115.945 19.1689 116.755 19.8184 117.415 20.6068C118.075 21.3952 118.572 22.3068 118.876 23.2887C119.181 24.2706 119.287 25.3032 119.19 26.3266L119.18 26.322Z" fill="#FEFEFE"/>
<path d="M116.146 36.0295H109.687C109.219 36.0295 108.84 36.4087 108.84 36.8765V36.8811C108.84 37.3489 109.219 37.7281 109.687 37.7281H116.146C116.614 37.7281 116.993 37.3489 116.993 36.8811V36.8765C116.993 36.4087 116.614 36.0295 116.146 36.0295Z" fill="#4A72CE"/>
<path d="M115.653 37.4535H109.882C109.463 37.4535 109.124 37.7931 109.124 38.2121C109.124 38.631 109.463 38.9706 109.882 38.9706H115.653C116.072 38.9706 116.411 38.631 116.411 38.2121C116.411 37.7931 116.072 37.4535 115.653 37.4535Z" fill="#4A72CE"/>
<path d="M115.276 38.6961H110.264C109.901 38.6961 109.608 38.9899 109.608 39.3522V39.3569C109.608 39.7193 109.901 40.0131 110.264 40.0131H115.276C115.638 40.0131 115.932 39.7193 115.932 39.3569V39.3522C115.932 38.9899 115.638 38.6961 115.276 38.6961Z" fill="#4A72CE"/>
<path d="M116.146 36.0295H109.687C109.219 36.0295 108.84 36.4087 108.84 36.8765V36.8811C108.84 37.3489 109.219 37.7281 109.687 37.7281H116.146C116.614 37.7281 116.993 37.3489 116.993 36.8811V36.8765C116.993 36.4087 116.614 36.0295 116.146 36.0295Z" fill="#4A72CE"/>
<path d="M115.653 37.4535H109.882C109.463 37.4535 109.124 37.7931 109.124 38.2121C109.124 38.631 109.463 38.9706 109.882 38.9706H115.653C116.072 38.9706 116.411 38.631 116.411 38.2121C116.411 37.7931 116.072 37.4535 115.653 37.4535Z" fill="#4A72CE"/>
<path d="M115.276 38.6961H110.264C109.901 38.6961 109.608 38.9899 109.608 39.3522V39.3569C109.608 39.7193 109.901 40.0131 110.264 40.0131H115.276C115.638 40.0131 115.932 39.7193 115.932 39.3569V39.3522C115.932 38.9899 115.638 38.6961 115.276 38.6961Z" fill="#4A72CE"/>
<path d="M111.125 36.0063C111.075 34.8159 110.919 33.6323 110.659 32.4695C110.46 31.5042 110.316 30.5285 110.227 29.547C110.124 28.0625 110.417 27.0247 111.125 26.3732C111.247 26.2432 111.412 26.1622 111.59 26.1452C111.686 26.1443 111.781 26.1624 111.869 26.1983C111.958 26.2343 112.039 26.2874 112.107 26.3546C112.13 26.3266 112.149 26.2987 112.172 26.2755C112.292 26.1236 112.453 26.0103 112.637 25.9497C112.73 25.9226 112.828 25.9153 112.924 25.9281C113.02 25.9409 113.113 25.9736 113.196 26.0242C113.315 26.0942 113.419 26.1895 113.498 26.3034C113.596 26.2408 113.705 26.1984 113.819 26.1784C113.933 26.1584 114.05 26.1614 114.164 26.187C114.587 26.2941 114.88 26.6943 115.006 27.3411C115.308 28.8955 114.978 30.4638 114.657 31.9948C114.32 33.2724 114.174 34.5928 114.224 35.9132L113.759 35.9551C113.703 34.5895 113.852 33.2232 114.201 31.9017C114.527 30.3614 114.834 28.9094 114.55 27.4482C114.499 27.1876 114.368 26.7362 114.052 26.6571C113.938 26.6364 113.821 26.6615 113.726 26.7269C113.759 26.8085 113.785 26.8925 113.805 26.9782C113.916 27.4352 113.971 27.904 113.968 28.3743C113.972 28.448 113.961 28.5219 113.934 28.5909C113.908 28.6599 113.867 28.7225 113.815 28.7745C113.767 28.8175 113.708 28.8471 113.645 28.8602C113.582 28.8732 113.517 28.8694 113.456 28.8489C113.352 28.8034 113.261 28.7336 113.19 28.6453C113.118 28.557 113.069 28.4529 113.047 28.3417C112.901 27.9084 112.874 27.4441 112.968 26.9968C113.007 26.8611 113.07 26.7334 113.154 26.6198C113.105 26.5404 113.038 26.4734 112.958 26.4244C112.93 26.4064 112.899 26.3945 112.866 26.3897C112.833 26.3849 112.799 26.3872 112.767 26.3965C112.672 26.432 112.589 26.4952 112.53 26.5779C112.493 26.6198 112.465 26.6617 112.432 26.7036C112.816 27.2241 112.983 27.873 112.898 28.5139C112.851 28.835 112.66 29.1421 112.325 29.1421C112.21 29.1296 112.1 29.0838 112.01 29.0103C111.92 28.9368 111.854 28.8387 111.818 28.7279C111.679 28.4167 111.609 28.0787 111.615 27.7377C111.621 27.3968 111.701 27.0612 111.851 26.7548H111.827C111.716 26.6478 111.646 26.6245 111.618 26.6291C111.554 26.6474 111.496 26.6828 111.451 26.7315C110.859 27.276 110.608 28.2207 110.701 29.5237C110.791 30.4862 110.932 31.4431 111.125 32.3904C111.388 33.5809 111.544 34.7926 111.59 36.0109L111.125 36.0063ZM112.186 27.1643C112.036 27.6059 112.058 28.0875 112.246 28.5139C112.269 28.5692 112.304 28.6186 112.349 28.6581C112.403 28.5957 112.436 28.5173 112.442 28.4348C112.49 28.0004 112.399 27.5618 112.181 27.1829L112.186 27.1643ZM113.382 27.2108C113.349 27.5482 113.385 27.8886 113.489 28.2114C113.482 27.8813 113.445 27.5526 113.377 27.2295L113.382 27.2108Z" fill="#4A72CE"/>
</g>
<defs>
<linearGradient id="paint0_linear" x1="85.5995" y1="94.4609" x2="82.4536" y2="25.6705" gradientUnits="userSpaceOnUse">
<stop offset="0.01"/>
<stop offset="0.08" stop-opacity="0.69"/>
<stop offset="0.21" stop-opacity="0.32"/>
<stop offset="1" stop-opacity="0"/>
</linearGradient>
<linearGradient id="paint1_linear" x1="7669.13" y1="4045.76" x2="7638.67" y2="2916.84" gradientUnits="userSpaceOnUse">
<stop offset="0.01"/>
<stop offset="0.08" stop-opacity="0.69"/>
<stop offset="0.21" stop-opacity="0.32"/>
<stop offset="1" stop-opacity="0"/>
</linearGradient>
<linearGradient id="paint2_linear" x1="4229.82" y1="292.845" x2="4229.73" y2="345.735" gradientUnits="userSpaceOnUse">
<stop offset="0.01"/>
<stop offset="0.08" stop-opacity="0.69"/>
<stop offset="0.21" stop-opacity="0.32"/>
<stop offset="1" stop-opacity="0"/>
</linearGradient>
<linearGradient id="paint3_linear" x1="4866.75" y1="166.724" x2="4866.61" y2="216.291" gradientUnits="userSpaceOnUse">
<stop offset="0.01"/>
<stop offset="0.08" stop-opacity="0.69"/>
<stop offset="0.21" stop-opacity="0.32"/>
<stop offset="1" stop-opacity="0"/>
</linearGradient>
<clipPath id="clip0">
<rect width="152.752" height="130" fill="white" transform="translate(0 0.0892944)"/>
</clipPath>
</defs>
</svg>
