<svg width="145" height="130" viewBox="0 0 145 130" fill="none" xmlns="http://www.w3.org/2000/svg">
<g clip-path="url(#clip0)">
<path opacity="0.18" d="M33.9474 119.237C28.6567 117.136 24.4998 112.987 20.7887 108.656C15.3644 102.327 10.6514 95.4213 6.73436 88.0636C1.55703 78.3589 -2.22581 66.8177 1.49657 56.4555C3.0082 52.2531 5.65355 48.5648 8.41227 45.0464C12.6826 39.6084 17.4518 34.2799 23.6419 31.1546C28.1768 28.8569 33.2748 27.8592 37.9003 25.743C47.0419 21.5671 53.6893 13.4043 62.0486 7.82639C76.4355 -1.76867 96.3663 -2.78902 111.177 6.13336C116.77 9.50429 121.535 14.0959 125.828 19.0124C134.72 29.2159 141.931 41.3089 143.99 54.6793C146.016 67.8456 142.739 81.7866 134.898 92.5569C127.056 103.327 114.717 110.761 101.491 112.461C96.389 113.119 90.762 113.119 86.8204 116.429C85.1576 117.828 83.9634 119.698 82.4669 121.274C78.0681 125.915 71.3451 127.653 64.9509 127.744C54.4224 127.895 43.5954 123.073 33.9474 119.237Z" fill="#4A72CE"/>
<path d="M130.155 42.5637L125.533 24.8663L119.702 42.5863L118.867 42.5712L125.575 22.6064L130.937 42.5712L130.155 42.5637Z" fill="#4A72CE"/>
<path d="M125.221 23.7274L124.726 42.6163L125.399 42.6339L125.893 23.745L125.221 23.7274Z" fill="#4A72CE"/>
<path d="M106.324 42.6619L101.132 24.8663L95.2817 42.4805L94.6431 42.2689L101.173 22.6064L106.97 42.4767L106.324 42.6619Z" fill="#4A72CE"/>
<path d="M100.567 24L100 42.8954L100.673 42.9155L101.24 24.0202L100.567 24Z" fill="#4A72CE"/>
<path d="M106.634 25.5163C105.349 25.5163 104.283 24.9759 103.18 24.4166C102.802 24.2314 102.424 24.0387 102.046 23.861C100.296 23.0712 99.5066 24.4846 99.4235 24.6471C99.3603 24.7739 99.2494 24.8704 99.1151 24.9154C98.9808 24.9604 98.8341 24.9502 98.7074 24.8871C98.5806 24.8239 98.4841 24.713 98.439 24.5787C98.394 24.4444 98.4042 24.2977 98.4674 24.1709C98.9058 23.298 100.3 21.9035 102.473 22.8936C102.896 23.0826 103.286 23.2715 103.66 23.4718C105.315 24.3108 106.509 24.9192 108.512 23.9971C109.173 23.6948 109.691 23.4378 110.145 23.2148C111.532 22.527 112.227 22.1831 113.739 22.1831C114.627 22.2081 115.491 22.4846 116.229 22.9805C116.889 23.4147 117.64 23.6914 118.425 23.7892C119.702 23.9215 122.914 24.0802 125.076 22.6933C125.701 22.363 126.431 22.2911 127.109 22.493C128.01 22.6707 128.805 23.1944 129.323 23.9517C129.359 24.0115 129.383 24.0778 129.393 24.1467C129.403 24.2156 129.4 24.2859 129.383 24.3534C129.366 24.421 129.335 24.4845 129.294 24.5404C129.252 24.5963 129.2 24.6435 129.14 24.6792C129.08 24.7149 129.014 24.7385 128.945 24.7487C128.876 24.7588 128.806 24.7553 128.739 24.7382C128.671 24.7212 128.607 24.6911 128.552 24.6495C128.496 24.6079 128.448 24.5557 128.413 24.4959C128.038 23.9893 127.486 23.6426 126.867 23.5247C126.467 23.3988 126.036 23.4202 125.65 23.5852C123.292 25.0968 120.042 25.025 118.315 24.8436C117.385 24.7318 116.492 24.41 115.704 23.9026C115.125 23.4962 114.442 23.2629 113.735 23.2299C112.469 23.2299 111.962 23.4794 110.613 24.1483C110.171 24.3637 109.627 24.6358 108.951 24.9456C108.229 25.3028 107.439 25.4975 106.634 25.5163Z" fill="#4A72CE"/>
<path d="M106.634 25.5163C105.349 25.5163 104.283 24.9759 103.18 24.4166C102.802 24.2314 102.424 24.0387 102.046 23.861C100.296 23.0712 99.5066 24.4846 99.4235 24.6471C99.3603 24.7739 99.2494 24.8704 99.1151 24.9154C98.9808 24.9604 98.8341 24.9502 98.7074 24.8871C98.5806 24.8239 98.4841 24.713 98.439 24.5787C98.394 24.4444 98.4042 24.2977 98.4674 24.1709C98.9058 23.298 100.3 21.9035 102.473 22.8936C102.896 23.0826 103.286 23.2715 103.66 23.4718C105.315 24.3108 106.509 24.9192 108.512 23.9971C109.173 23.6948 109.691 23.4378 110.145 23.2148C111.532 22.527 112.227 22.1831 113.739 22.1831C114.627 22.2081 115.491 22.4846 116.229 22.9805C116.889 23.4147 117.64 23.6914 118.425 23.7892C119.702 23.9215 122.914 24.0802 125.076 22.6933C125.701 22.363 126.431 22.2911 127.109 22.493C128.01 22.6707 128.805 23.1944 129.323 23.9517C129.359 24.0115 129.383 24.0778 129.393 24.1467C129.403 24.2156 129.4 24.2859 129.383 24.3534C129.366 24.421 129.335 24.4845 129.294 24.5404C129.252 24.5963 129.2 24.6435 129.14 24.6792C129.08 24.7149 129.014 24.7385 128.945 24.7487C128.876 24.7588 128.806 24.7553 128.739 24.7382C128.671 24.7212 128.607 24.6911 128.552 24.6495C128.496 24.6079 128.448 24.5557 128.413 24.4959C128.038 23.9893 127.486 23.6426 126.867 23.5247C126.467 23.3988 126.036 23.4202 125.65 23.5852C123.292 25.0968 120.042 25.025 118.315 24.8436C117.385 24.7318 116.492 24.41 115.704 23.9026C115.125 23.4962 114.442 23.2629 113.735 23.2299C112.469 23.2299 111.962 23.4794 110.613 24.1483C110.171 24.3637 109.627 24.6358 108.951 24.9456C108.229 25.3028 107.439 25.4975 106.634 25.5163Z" fill="#473F47"/>
<path d="M79.7119 52.0114C80.2458 52.1223 80.7365 52.3847 81.1253 52.7672C81.4317 53.214 81.6071 53.7376 81.6316 54.2788C84.1674 72.5052 85.6941 90.3235 79.3226 107.586C79.1543 108.168 78.8513 108.701 78.4383 109.143C77.9961 109.496 77.4791 109.743 76.9267 109.865C71.0956 111.566 64.9093 111.471 58.8363 111.335C56.1191 111.271 53.3302 111.192 50.8058 110.179C49.9517 109.835 49.075 109.321 48.75 108.459C48.5965 107.917 48.5465 107.35 48.6026 106.789C48.7197 102.216 47.125 97.791 46.4372 93.2674C45.7645 88.8535 45.961 84.3564 46.1613 79.8971C46.3679 75.3118 46.5808 70.7278 46.8 66.1451C46.9662 62.6532 44.4872 59.5506 45.3828 56.123C46.184 53.0544 59.0782 49.4038 64.2782 49.4869C69.5112 49.6473 74.7004 50.4961 79.7119 52.0114Z" fill="white"/>
<path d="M47.2081 125.034C51.9924 129.392 59.0064 130.703 65.3892 129.652C71.7721 128.602 77.6183 125.393 82.8977 121.656C81.0896 117.308 79.8303 112.752 79.1488 108.093C79.2849 109.022 62.468 110.696 60.8733 110.689C58.0238 110.689 55.0459 109.555 52.2796 109.672C49.861 109.767 49.6343 112.114 49.2564 114.067C48.5686 117.721 47.8858 121.376 47.2081 125.034Z" fill="#3F3D56"/>
<path d="M77.1384 115.152C77.558 115.041 77.9394 114.817 78.2419 114.506C78.5319 114.071 78.6516 113.545 78.5782 113.028C78.4999 111.774 78.0819 110.564 77.3689 109.529C71.4841 111.627 65.18 112.275 58.9913 111.418C57.0413 111.146 50.9948 109.068 51.4332 112.817C51.7053 115.171 55.7262 115.462 57.5628 115.953C64.0218 117.646 70.8394 117.367 77.1384 115.152Z" fill="#3F3D56"/>
<path d="M59.543 48.8142C59.2142 49.6041 58.7872 50.4468 59.014 51.2782C59.1123 51.6116 59.2754 51.9224 59.4939 52.1927C60.0442 52.9189 60.7704 53.493 61.604 53.8609C62.4375 54.2288 63.351 54.3784 64.2584 54.2956C65.1658 54.2128 66.0372 53.9004 66.7904 53.3876C67.5436 52.8749 68.1539 52.1789 68.5637 51.3651C67.6949 49.8462 67.3161 48.0962 67.4791 46.3541C67.5509 45.5983 67.702 44.7253 67.2145 44.1282C66.9602 43.8518 66.6386 43.6461 66.2811 43.5311C64.7695 42.934 62.6154 42.7375 61.2398 43.7881C60.0041 44.7442 60.159 47.3631 59.543 48.8142Z" fill="#F1AF8C"/>
<path d="M61.7764 48.357C62.2059 48.9326 62.7619 49.402 63.4014 49.7288C64.0514 50.0273 68.148 50.7453 67.9099 50.0689C67.464 48.8846 67.3211 47.6076 67.4942 46.3541C67.8721 45.7003 68.3369 45.3753 68.5145 44.6346C68.5712 44.4063 68.5712 44.1676 68.5145 43.9392C68.3997 43.5949 68.1754 43.2976 67.8759 43.0927C67.0703 42.5593 66.1382 42.2478 65.1738 42.1895C64.3953 42.095 63.6131 42.0459 62.8308 41.9968C62.1923 41.9039 61.5406 41.9808 60.9413 42.2198C58.5264 43.448 60.6767 46.9852 61.7764 48.357Z" fill="#EB9D80"/>
<path d="M58.825 44.8047C59.7324 45.7555 60.8547 46.4748 62.0976 46.9021C64.4029 47.6163 67.0104 46.8189 68.8433 45.2695C70.6761 43.7201 71.8665 41.5207 72.6904 39.2457C74.1642 35.066 75.1467 29.73 74.1755 25.4067C73.8392 23.8951 73.3328 22.3834 72.354 21.1817C68.7299 16.7375 59.3049 17.9204 55.3482 21.6541C52.0113 24.7907 53.3264 30.6294 54.0293 34.5861C54.6793 38.3273 56.0738 42.0837 58.825 44.8047Z" fill="#F1AF8C"/>
<path d="M51.8375 30.9581C51.6752 30.8865 51.4982 30.8539 51.321 30.8631C51.1438 30.8723 50.9712 30.923 50.8172 31.011C50.5894 31.2389 50.4547 31.5433 50.4392 31.8651C50.3071 32.3885 50.3071 32.9365 50.4392 33.4599C50.5826 33.8176 50.7872 34.1475 51.0439 34.4349L52.2381 35.9238C52.3765 36.133 52.5683 36.3013 52.7936 36.4113C52.99 36.4756 53.1997 36.4873 53.402 36.4453C53.9651 36.3735 54.6113 36.0863 54.6831 35.5232C54.6921 35.2881 54.6468 35.0541 54.5509 34.8392C53.9462 33.2067 53.6741 31.5703 51.8375 30.9581Z" fill="#F1AF8C"/>
<path d="M74.5422 29.9038C74.6857 29.4827 74.9514 29.1141 75.3055 28.8448C75.6596 28.5755 76.0859 28.4179 76.53 28.3921C76.6587 28.3784 76.7888 28.3979 76.9079 28.4488C77.0544 28.5351 77.1676 28.6682 77.2291 28.8267C77.527 29.617 77.5912 30.4762 77.4143 31.302C77.3496 31.9608 77.1557 32.6003 76.8436 33.184C76.688 33.4706 76.4724 33.7202 76.2115 33.9158C75.9507 34.1115 75.6507 34.2486 75.332 34.3177C75.1236 34.3599 74.9078 34.3472 74.7058 34.281C74.5037 34.2147 74.3223 34.0972 74.1794 33.9398C73.552 33.1387 74.2814 30.7654 74.5422 29.9038Z" fill="#F1AF8C"/>
<path d="M50.8058 29.9303C50.0727 28.4186 49.2602 26.8012 47.9866 25.7166C48.4832 24.4663 49.21 23.3203 50.1294 22.3381C52.3968 19.7154 55.1064 17.4253 58.277 16.0573C61.4477 14.6893 65.0794 14.2471 68.4087 15.2448C69.2186 15.4606 69.9794 15.8301 70.6497 16.3332C71.1187 16.726 71.5387 17.1739 71.9006 17.6672C73.6814 19.9565 75.0637 22.5295 75.9895 25.2782C76.2174 25.8334 76.3181 26.4325 76.2843 27.0317C76.213 27.4568 76.0739 27.8676 75.8724 28.2486C75.3394 29.3964 74.7348 30.5097 74.0622 31.5817C73.8603 30.7782 73.7825 29.9486 73.8317 29.1215C73.8674 27.3973 73.5723 25.6821 72.9625 24.0689C72.3425 22.4503 71.1607 21.1089 69.6331 20.2898C68.8598 19.9268 68.0372 19.6798 67.1919 19.5567C64.9849 19.1797 62.7262 19.2271 60.5369 19.6965C58.2015 20.1991 55.8206 21.3178 54.6794 23.4151C53.8064 25.0288 53.7951 26.9523 53.8102 28.7852C53.8102 29.6355 53.9878 33.2634 53.9878 33.2634C51.7317 30.6936 51.2593 30.7239 50.8058 29.9303Z" fill="#C5733B"/>
<path d="M50.7718 29.6657C50.0387 28.1541 49.2602 26.8012 47.9866 25.7166C48.4832 24.4663 49.21 23.3203 50.1294 22.3381C52.3968 19.7154 55.1064 17.4253 58.277 16.0573C61.4477 14.6893 65.0794 14.2471 68.4087 15.2448C69.2186 15.4606 69.9794 15.8301 70.6497 16.3332C71.1187 16.726 71.5387 17.1739 71.9006 17.6672C73.6814 19.9565 75.0637 22.5295 75.9895 25.2782C76.2174 25.8334 76.3181 26.4325 76.2843 27.0317C76.213 27.4568 76.0739 27.8676 75.8724 28.2486C75.3394 29.3964 74.7348 30.5097 74.0622 31.5817C73.8603 30.7782 73.7825 29.9486 73.8317 29.1215C73.8674 27.3973 73.5723 25.6821 72.9625 24.0689C72.3425 22.4503 71.1607 21.1089 69.6331 20.2898C68.8598 19.9268 68.0372 19.6798 67.1919 19.5567C64.9849 19.1797 62.7262 19.2271 60.5369 19.6965C58.2015 20.1991 55.8206 21.3178 54.6794 23.4151C53.8064 25.0288 53.7951 26.9523 53.8102 28.7852C53.8102 29.6355 53.9878 33.2634 53.9878 33.2634C53.9878 33.2634 51.2291 30.4593 50.7718 29.6657Z" fill="#FC682D"/>
<path d="M69.7465 13.1134C69.0474 13.8201 69.0436 14.9576 69.259 15.925C69.5485 17.2065 70.1363 18.4016 70.9747 19.4131C71.689 20.2747 72.5808 20.989 73.2082 21.9186C74.2814 23.502 74.4628 25.5012 74.8596 27.3718C74.893 27.6879 75.0253 27.9855 75.2375 28.2221C75.657 28.6 76.3712 28.3997 76.7491 27.9538C77.0567 27.4703 77.2205 26.9094 77.2215 26.3363C77.3804 24.3392 77.3817 22.3326 77.2253 20.3352C77.1837 18.9413 76.8825 17.5675 76.3372 16.284C75.4567 14.4512 71.9119 10.914 69.7465 13.1134Z" fill="#C5733B"/>
<path d="M69.7465 13.1134C69.0474 13.8201 69.0436 14.9576 69.259 15.925C69.5485 17.2065 70.1363 18.4016 70.9747 19.4131C71.689 20.2747 72.5808 20.989 73.2082 21.9186C74.2814 23.502 74.4628 25.5012 74.8596 27.3718C74.893 27.6879 75.0253 27.9855 75.2375 28.2221C75.657 28.6 76.3712 28.3997 76.7491 27.9538C77.0567 27.4703 77.2205 26.9094 77.2215 26.3363C77.3804 24.3392 77.3817 22.3326 77.2253 20.3352C77.1837 18.9413 76.8825 17.5675 76.3372 16.284C75.4567 14.4512 71.9119 10.914 69.7465 13.1134Z" fill="#FC682D"/>
<path d="M75.1959 31.1735C75.206 30.9507 75.2663 30.7329 75.3723 30.5366C75.4783 30.3403 75.6273 30.1705 75.8082 30.0398C75.8799 29.9867 75.9638 29.9522 76.0522 29.9397C76.1407 29.9272 76.2308 29.9369 76.3146 29.968C76.5262 30.0738 76.5677 30.3459 76.5715 30.5953C76.6034 31.0877 76.5405 31.5816 76.3864 32.0503C76.1898 32.5642 75.332 33.5619 74.7236 32.9762C74.391 32.6549 74.7651 32.3677 74.9692 32.1183C75.1439 31.8357 75.2233 31.5046 75.1959 31.1735Z" fill="#EB9D80"/>
<path d="M52.8163 33.664C52.702 33.4211 52.5572 33.1938 52.3855 32.9875C52.2091 32.781 51.963 32.6465 51.6939 32.6096C51.3954 32.5869 51.0552 32.7948 51.0628 33.0933C51.0755 33.2288 51.1223 33.3588 51.1989 33.4712C51.5235 34.1229 51.9729 34.7045 52.5215 35.1831C52.7433 35.3775 53.032 35.4778 53.3265 35.4628C53.5036 35.426 53.6638 35.3322 53.7826 35.1957C53.9014 35.0592 53.9721 34.8875 53.984 34.707C54.0105 34.4387 53.9084 33.9512 53.6061 33.8794C53.3038 33.8076 53.0166 34.0608 52.8163 33.664Z" fill="url(#paint0_linear)"/>
<path d="M108.293 68.832C106.808 74.5421 104.635 80.052 102.466 85.543C101.29 88.5247 99.9111 91.7407 97.0957 93.2712C96.2186 93.7816 95.2034 94.0036 94.1933 93.9061C93.548 93.81 92.9293 93.5823 92.3756 93.2372C92.2433 93.1578 92.1186 93.0747 91.9977 92.9878C91.427 92.5892 90.9177 92.1092 90.4861 91.5631C89.407 90.1677 88.7582 88.488 88.6192 86.7296C88.4861 84.6094 88.8538 82.4876 89.6924 80.5357C89.8701 80.0823 90.0704 79.6325 90.2895 79.1942C91.2853 77.2678 92.4116 75.4117 93.6605 73.6389C93.9061 73.2799 94.148 72.9171 94.3898 72.5543C95.3814 71.1107 96.2402 69.5802 96.9558 67.9817C97.5605 66.4994 98.0285 64.965 98.3541 63.3977C98.8114 61.357 98.8794 61.1907 100.47 62.6003C102.688 64.5661 105.13 66.2633 107.745 67.6567C107.865 67.6881 107.976 67.7457 108.07 67.8254C108.165 67.9052 108.24 68.0049 108.291 68.1175C108.342 68.2301 108.368 68.3527 108.365 68.4762C108.363 68.5998 108.333 68.7214 108.278 68.832H108.293Z" fill="#4A72CE"/>
<path d="M99.673 61.1831C99.7863 60.9375 99.9602 60.6578 100.232 60.6578C100.353 60.6663 100.469 60.7068 100.569 60.775C101.076 61.1234 101.562 61.5019 102.024 61.9087C103.463 63.0084 105.262 63.4959 107.012 63.9645C107.372 64.0266 107.707 64.192 107.976 64.4407C108.44 64.9698 108.176 65.7898 107.881 66.4322C107.586 67.0747 107.31 67.668 107.016 68.284C106.922 68.5593 106.726 68.7879 106.468 68.9227C106.241 68.9741 106.005 68.953 105.791 68.8622C103.972 68.2685 102.29 67.3164 100.844 66.0619C100.259 65.5593 99.193 64.7506 98.8718 64.0439C98.5506 63.3372 99.3668 61.8482 99.673 61.1831Z" fill="white"/>
<path d="M101.306 57.8954C102.658 56.2401 104.979 55.6959 107.11 55.8131C109.242 55.9302 111.301 56.5991 113.406 56.9468C116.534 57.4725 119.744 57.1742 122.722 56.0814C123.95 55.6166 125.125 55.0044 126.38 54.6C126.557 54.518 126.751 54.4755 126.947 54.4755C127.142 54.4755 127.336 54.518 127.513 54.6C127.638 54.6913 127.739 54.8108 127.808 54.9488C127.877 55.0869 127.912 55.2393 127.91 55.3936C127.94 56.1759 127.355 56.8372 126.777 57.3701C122.72 61.1224 117.43 63.2586 111.906 63.375C110.779 63.3459 109.651 63.3775 108.527 63.4695C107.511 63.598 106.524 63.8965 105.504 64.0817C104.506 64.3085 103.466 64.2812 102.481 64.0023C99.8431 63.0953 99.7448 59.8113 101.306 57.8954Z" fill="#F1AF8C"/>
<path d="M58.5 74.1378C59.6073 82.5462 61.1983 90.9433 61.1038 99.4235C61.0433 104.688 60.348 109.918 59.5657 115.126C59.5456 115.422 59.4507 115.708 59.2899 115.957C59.0088 116.238 58.6388 116.413 58.2431 116.452C54.3506 117.288 50.4292 117.969 46.4788 118.493C46.4788 107.601 46.664 94.1819 46.1954 83.3058C45.859 75.4113 44.1471 70.1357 44.6195 62.2488L44.9974 55.7035C44.9932 55.3865 45.0604 55.0726 45.1939 54.7852C45.3714 54.5159 45.6096 54.292 45.8893 54.1314C49.4567 51.7203 54.2032 49.1884 58.5567 48.8029C59.0026 50.2238 57.9634 52.9334 57.8009 54.5093C57.563 56.6966 57.4532 58.896 57.4721 61.0962C57.5367 65.4608 57.8801 69.8169 58.5 74.1378Z" fill="#4A72CE"/>
<path d="M58.5 74.1378C59.6073 82.5462 61.1983 90.9433 61.1038 99.4235C61.0433 104.688 60.348 109.918 59.5657 115.126C59.5456 115.422 59.4507 115.708 59.2899 115.957C59.0088 116.238 58.6388 116.413 58.2431 116.452C54.3506 117.288 50.4292 117.969 46.4788 118.493C46.4788 107.601 46.664 94.1819 46.1954 83.3058C45.859 75.4113 44.1471 70.1357 44.6195 62.2488L44.9974 55.7035C44.9932 55.3865 45.0604 55.0726 45.1939 54.7852C45.3714 54.5159 45.6096 54.292 45.8893 54.1314C49.4567 51.7203 54.2032 49.1884 58.5567 48.8029C59.0026 50.2238 57.9634 52.9334 57.8009 54.5093C57.563 56.6966 57.4532 58.896 57.4721 61.0962C57.5367 65.4608 57.8801 69.8169 58.5 74.1378Z" fill="#375498"/>
<path d="M55.08 49.434L50.7076 76.4884L55.0611 81.061L52.0983 88.2413L59.8567 104.949C59.8567 104.949 59.4561 94.8055 57.8651 77.5012C56.2742 60.1968 59.2596 48.6782 59.2596 48.6782L55.08 49.434Z" fill="#4A72CE"/>
<path d="M69.9582 49.0939C69.7362 49.0934 69.5166 49.1388 69.313 49.2272C69.1095 49.3157 68.9264 49.4453 68.7753 49.6078C68.6115 49.9199 68.5494 50.2753 68.5977 50.6244L69.4782 71.6625C69.5434 74.2253 69.7376 76.7832 70.0602 79.3265C70.3059 81.0006 70.6611 82.6558 70.9483 84.3224C72.8 94.9907 71.9157 105.931 72.5506 116.739C72.5363 117.038 72.6257 117.334 72.8038 117.574C73.0078 117.748 73.262 117.853 73.5294 117.873C77.6439 118.607 81.8382 118.786 86.0003 118.406C84.2922 100.992 83.35 83.525 83.1736 66.0052C83.132 61.7084 83.1245 57.3436 81.9492 53.2055C81.8859 52.9097 81.7568 52.632 81.5713 52.393C81.339 52.1751 81.0597 52.0135 80.755 51.9206C78.7407 51.1384 76.7227 50.375 74.7085 49.5738C72.989 48.8823 71.8137 49.0939 69.9582 49.0939Z" fill="#4A72CE"/>
<path d="M69.9582 49.0939C69.7362 49.0934 69.5166 49.1388 69.313 49.2272C69.1095 49.3157 68.9264 49.4453 68.7753 49.6078C68.6115 49.9199 68.5494 50.2753 68.5977 50.6244L69.4782 71.6625C69.5434 74.2253 69.7376 76.7832 70.0602 79.3265C70.3059 81.0006 70.6611 82.6558 70.9483 84.3224C72.8 94.9907 71.9157 105.931 72.5506 116.739C72.5363 117.038 72.6257 117.334 72.8038 117.574C73.0078 117.748 73.262 117.853 73.5294 117.873C77.6439 118.607 81.8382 118.786 86.0003 118.406C84.2922 100.992 83.35 83.525 83.1736 66.0052C83.132 61.7084 83.1245 57.3436 81.9492 53.2055C81.8859 52.9097 81.7568 52.632 81.5713 52.393C81.339 52.1751 81.0597 52.0135 80.755 51.9206C78.7407 51.1384 76.7227 50.375 74.7085 49.5738C72.989 48.8823 71.8137 49.0939 69.9582 49.0939Z" fill="url(#paint1_linear)"/>
<path d="M68.012 48.8936L69.9582 49.0939L77.2593 72.5959L73.5823 78.6651L77.6599 86.7183L72.5846 102.133C72.5846 102.133 69.312 79.3189 69.3573 73.9186C69.4027 68.5183 68.012 48.8936 68.012 48.8936Z" fill="#4A72CE"/>
<path d="M55.08 49.434L50.7076 76.4884L55.0611 81.061L52.0983 88.2413L59.8567 104.949C59.8567 104.949 59.4561 94.8055 57.8651 77.5012C56.2742 60.1968 59.2596 48.6782 59.2596 48.6782L55.08 49.434Z" fill="url(#paint2_linear)"/>
<path d="M68.012 48.8936L69.9582 49.0939L77.2593 72.5959L73.5823 78.6651L77.6599 86.7183L72.5846 102.133C72.5846 102.133 69.312 79.3189 69.3573 73.9186C69.4027 68.5183 68.012 48.8936 68.012 48.8936Z" fill="#3A59A0"/>
<path d="M114.668 21.6352C114.668 21.0195 114.169 20.5204 113.553 20.5204C112.938 20.5204 112.439 21.0195 112.439 21.6352V51.0704C112.439 51.6861 112.938 52.1852 113.553 52.1852C114.169 52.1852 114.668 51.6861 114.668 51.0704V21.6352Z" fill="#4A72CE"/>
<path d="M114.668 21.6352C114.668 21.0195 114.169 20.5204 113.553 20.5204C112.938 20.5204 112.439 21.0195 112.439 21.6352V51.0704C112.439 51.6861 112.938 52.1852 113.553 52.1852C114.169 52.1852 114.668 51.6861 114.668 51.0704V21.6352Z" fill="#473F47"/>
<path d="M96.2282 44.0558L95 42H107.07L104.863 45.4579H97.0634L96.2282 44.0558Z" fill="#4A72CE"/>
<path d="M128.73 46.0291H120.926L118.867 42.5712H130.937L128.73 46.0291Z" fill="#4A72CE"/>
<path d="M110.946 51.418H117.265C118.619 51.418 119.917 51.9559 120.875 52.9134C121.832 53.8709 122.37 55.1695 122.37 56.5236V57.5666H105.84V56.5236C105.84 55.1695 106.378 53.8709 107.336 52.9134C108.293 51.9559 109.592 51.418 110.946 51.418Z" fill="#4A72CE"/>
<path d="M110.946 51.418H117.265C118.619 51.418 119.917 51.9559 120.875 52.9134C121.832 53.8709 122.37 55.1695 122.37 56.5236V57.5666H105.84V56.5236C105.84 55.1695 106.378 53.8709 107.336 52.9134C108.293 51.9559 109.592 51.418 110.946 51.418Z" fill="#473F47"/>
<path d="M68.8282 9.08109C68.6447 8.78509 68.4045 8.52824 68.1215 8.32527C67.7691 8.11587 67.3674 8.00372 66.9575 8.00027C66.0922 8.00722 65.234 8.15791 64.418 8.4462C59.7546 9.8369 54.9703 11.7453 51.8677 15.4791C49.725 18.0413 48.5421 21.2497 47.3971 24.3863C47.193 24.9532 47.0192 25.6599 47.4273 26.0945C47.7101 26.3328 48.0704 26.4592 48.4401 26.4497C50.4279 26.5782 52.3779 25.9811 54.2788 25.384C57.6799 24.3145 61.1227 23.1959 64.2291 21.4046C66.8744 19.8628 69.8712 18.0261 70.2 14.7648C70.4128 12.7687 69.9281 10.7604 68.8282 9.08109Z" fill="#FC682D"/>
<path d="M95.327 81.6317C95.1304 82.8757 94.784 84.0913 94.2953 85.252C94.0188 85.9115 93.6981 86.5517 93.3354 87.168C92.4398 88.6796 94.0346 93.7776 92.368 93.2372C92.2305 93.173 92.1032 93.089 91.9901 92.9878C91.4622 92.539 90.9577 92.0635 90.4785 91.5631C89.2049 90.2744 87.7538 88.6796 87.4552 88.366C85.5921 86.3857 83.8235 84.2355 82.8485 81.6959C82.3913 80.5131 82.0701 76.7831 81.8509 72.3805C81.7715 70.7366 81.7035 68.9793 81.6468 67.2523C81.4163 59.6186 81.4314 51.9849 81.5826 52.4081C81.9605 53.4096 84.8099 58.5189 85.3616 59.4221C86.4953 61.2134 92.1224 70.8462 93.6415 73.6503C93.7927 73.9224 93.8985 74.1302 93.959 74.2625C94.541 75.3784 94.9924 76.5577 95.3043 77.777C95.5443 79.05 95.552 80.3559 95.327 81.6317Z" fill="#4A72CE"/>
<path d="M61.5308 52.1209L63.5904 54.0332C63.6484 54.0627 63.6982 54.106 63.7355 54.1593C63.7728 54.2127 63.7964 54.2743 63.8042 54.3389C63.812 54.4035 63.8039 54.469 63.7804 54.5297C63.757 54.5904 63.719 54.6444 63.6698 54.6869C62.5461 56.1986 61.3545 57.6472 60.0948 59.0329C58.961 56.3875 57.9482 53.5268 58.0805 50.5942C58.1221 49.6646 58.3791 47.7108 59.3541 49.2564C59.9417 50.3086 60.6745 51.2729 61.5308 52.1209Z" fill="white"/>
<path d="M66.3151 52.4573C65.9815 52.8531 65.592 53.1981 65.1587 53.4814C64.8073 53.6503 64.4654 53.8383 64.1346 54.0445C64.0444 54.1093 63.9695 54.1931 63.9154 54.2901C63.734 54.6416 64.0325 55.0459 64.2933 55.3369C64.5956 55.7148 66.9386 59.286 67.018 59.1991C67.5773 58.4962 67.8381 56.7541 68.1971 55.9302C68.6624 54.9554 68.9978 53.9237 69.1948 52.8616C69.3892 51.7897 69.2091 50.6836 68.6846 49.7288C68.5674 49.5323 68.2009 49.1166 67.9741 49.3735C67.9061 49.4491 67.9212 49.8157 67.8985 49.9291C67.8515 50.1259 67.787 50.3181 67.7058 50.5035C67.3541 51.2276 66.8841 51.8879 66.3151 52.4573Z" fill="white"/>
<path d="M61.9352 77.2253C61.9805 83.1622 62.1884 89.1067 61.7538 95.0247C61.5913 97.243 61.3381 99.4878 61.7538 101.68C62.2375 104.359 63.6433 106.762 65.0491 109.106C65.7067 109 66.0279 108.263 66.2396 107.632L68.9454 99.5105C69.1168 99.0842 69.2139 98.6317 69.2326 98.1727C69.1909 97.6672 69.0631 97.1726 68.8547 96.7102C66.8631 91.3174 66.9462 85.4183 66.6099 79.6779C66.2995 74.4303 65.6202 69.2111 64.5768 64.059C64.3605 63.1804 64.2427 62.2805 64.2253 61.3759C64.2276 60.7201 64.367 60.0721 64.6345 59.4733C64.9019 58.8746 65.2916 58.3384 65.7785 57.8991C65.0227 56.6747 64.1573 55.9416 63.5111 54.9892C62.6316 55.7581 61.9673 56.7428 61.5837 57.8462C61.5837 57.8462 63.0538 59.3994 62.8082 61.4136C62.234 66.6647 61.9426 71.9429 61.9352 77.2253Z" fill="#3F3D56"/>
<path d="M56.2666 80.6C56.4631 79.4058 56.4139 78.1814 56.6445 76.9985C56.8618 75.9148 57.3032 74.8884 57.9403 73.9851C58.5774 73.0819 59.3962 72.3216 60.3442 71.7532C60.8959 73.1477 60.2232 74.6895 59.9663 76.1671C59.8831 76.6395 59.9209 77.2593 60.3706 77.4331C60.7485 77.5767 61.1264 77.2933 61.4476 77.025L70.9709 68.711C71.5226 70.4985 70.2491 72.2709 69.3686 73.9224C69.2092 74.1842 69.1063 74.4764 69.0662 74.7802C69.077 75.1617 69.1726 75.5361 69.3459 75.8761C70.3977 78.465 70.7014 81.2972 70.2226 84.0503C70.0412 85.0706 69.7162 86.1363 68.9226 86.8052C68.3836 87.2008 67.7745 87.4906 67.1276 87.6593L58.3753 90.5427C58.2214 90.634 58.0503 90.6925 57.8727 90.7144C57.6952 90.7363 57.515 90.7213 57.3435 90.6701C57.1721 90.619 57.013 90.533 56.8765 90.4174C56.7399 90.3018 56.6287 90.1592 56.55 89.9985C55.507 88.6381 53.9916 86.6918 54.2485 84.8439C54.4526 83.2718 55.9907 82.3119 56.2666 80.6Z" fill="#F1AF8C"/>
<path d="M52.2683 84.5793C52.0839 85.0082 51.9764 85.4661 51.9509 85.9323C51.8602 87.7084 52.9599 89.3334 54.2183 90.5918C54.4778 90.8779 54.7878 91.1136 55.1328 91.2872C55.7715 91.5706 56.5046 91.4459 57.1886 91.3174C57.423 91.2721 57.695 91.2003 57.7895 90.9811C57.9293 90.6485 57.5552 90.3424 57.2567 90.1384C56.2405 89.3819 55.5211 88.2936 55.2235 87.0622C55.0531 86.4176 54.9555 85.7559 54.9325 85.0895C54.9325 84.6247 55.0686 83.918 54.7436 83.525C53.9235 82.55 52.6009 83.8235 52.2683 84.5793Z" fill="white"/>
<path d="M56.3762 79.7573C56.6747 80.5962 57.3172 81.7073 57.7026 82.5122C57.9785 83.1194 58.217 83.7428 58.4169 84.3791C58.9392 85.8156 59.356 87.2883 59.664 88.7855C59.7244 89.1256 60.0608 90.4332 59.9814 90.7733L58.0919 90.8715C58.0239 90.8715 57.6648 89.923 57.6006 89.8927C57.5321 89.85 57.4792 89.7864 57.4494 89.7113C56.5614 88.0675 56.3422 86.1515 55.6695 84.4207C55.4389 83.8962 55.2358 83.3601 55.0611 82.8145C54.8701 82.2469 54.8701 81.6324 55.0611 81.0648C55.2954 80.5698 55.8887 79.8858 56.3762 79.7573Z" fill="white"/>
<path d="M46.0027 56.0474C45.8937 55.7544 45.6832 55.5103 45.4094 55.3596C45.1902 55.2689 45.9611 54.4828 45.7344 54.5471C43.5387 55.1479 41.4791 58.4395 40.8669 60.6314C39.5102 65.5442 38.7469 70.5628 37.9873 75.5851L35.5762 91.5101C35.3192 93.1918 35.066 94.8735 34.8431 96.5627C34.7184 97.5189 34.6088 98.5128 34.9187 99.4273C35.4666 101.026 37.2239 101.959 38.9131 102.039C40.6024 102.118 42.2425 101.502 43.8033 100.856C48.7615 98.7978 53.5098 96.2668 57.9823 93.2976C58.4517 93.053 58.8207 92.652 59.0254 92.1639C59.0996 91.8096 59.0866 91.4426 58.9876 91.0944C58.1909 87.2422 56.8 83.5372 54.8646 80.1125C52.2535 82.3622 49.3485 84.2464 46.2294 85.713C48.58 79.7383 48.0661 73.0721 47.5181 66.6741C47.2233 63.2427 47.571 59.116 46.0027 56.0474Z" fill="#4A72CE"/>
<path d="M46.0027 56.0474C45.8937 55.7544 45.6832 55.5103 45.4094 55.3596C45.1902 55.2689 45.9611 54.4828 45.7344 54.5471C43.5387 55.1479 41.4791 58.4395 40.8669 60.6314C39.5102 65.5442 38.7469 70.5628 37.9873 75.5851L35.5762 91.5101C35.3192 93.1918 35.066 94.8735 34.8431 96.5627C34.7184 97.5189 34.6088 98.5128 34.9187 99.4273C35.4666 101.026 37.2239 101.959 38.9131 102.039C40.6024 102.118 42.2425 101.502 43.8033 100.856C48.7615 98.7978 53.5098 96.2668 57.9823 93.2976C58.4517 93.053 58.8207 92.652 59.0254 92.1639C59.0996 91.8096 59.0866 91.4426 58.9876 91.0944C58.1909 87.2422 56.8 83.5372 54.8646 80.1125C52.2535 82.3622 49.3485 84.2464 46.2294 85.713C48.58 79.7383 48.0661 73.0721 47.5181 66.6741C47.2233 63.2427 47.571 59.116 46.0027 56.0474Z" fill="url(#paint3_linear)"/>
<path d="M108.293 68.832C106.808 74.5421 104.635 80.052 102.466 85.543C101.29 88.5247 99.911 91.7407 97.0956 93.2712C96.2186 93.7816 95.2034 94.0036 94.1933 93.9061C93.548 93.81 92.9293 93.5823 92.3756 93.2372C92.2381 93.173 92.1108 93.089 91.9977 92.9878C91.427 92.5892 90.9177 92.1092 90.4861 91.5631C89.2125 90.2744 87.7613 88.6796 87.4628 88.366C85.5997 86.3857 83.8311 84.2355 82.8561 81.6959L81.8395 72.3654L81.2084 66.4663L81.6355 67.2221C82.8674 69.4366 86.5483 75.948 89.6735 80.5169C91.6651 83.4305 93.4299 85.5506 94.2084 85.2785C94.2418 85.2695 94.2737 85.2554 94.3029 85.2369C96.6233 84.0238 102.432 67.5093 102.432 67.5093L108.293 68.832Z" fill="url(#paint4_linear)"/>
</g>
<defs>
<linearGradient id="paint0_linear" x1="516.953" y1="284.224" x2="500.004" y2="306.439" gradientUnits="userSpaceOnUse">
<stop offset="0.01"/>
<stop offset="1" stop-opacity="0"/>
</linearGradient>
<linearGradient id="paint1_linear" x1="4859.56" y1="16144.7" x2="3357.12" y2="16102.9" gradientUnits="userSpaceOnUse">
<stop offset="0.01"/>
<stop offset="1" stop-opacity="0"/>
</linearGradient>
<linearGradient id="paint2_linear" x1="1822.9" y1="11610" x2="1412.68" y2="11613.1" gradientUnits="userSpaceOnUse">
<stop offset="0.01"/>
<stop offset="1" stop-opacity="0"/>
</linearGradient>
<linearGradient id="paint3_linear" x1="3725.75" y1="13496.7" x2="2754.34" y2="12151.6" gradientUnits="userSpaceOnUse">
<stop offset="0.01"/>
<stop offset="1" stop-opacity="0"/>
</linearGradient>
<linearGradient id="paint4_linear" x1="9172.15" y1="9307.51" x2="6942.11" y2="4865.34" gradientUnits="userSpaceOnUse">
<stop offset="0.01"/>
<stop offset="1" stop-opacity="0"/>
</linearGradient>
<clipPath id="clip0">
<rect width="144.572" height="130" fill="white"/>
</clipPath>
</defs>
</svg>
