<svg width="156" height="131" viewBox="0 0 156 131" fill="none" xmlns="http://www.w3.org/2000/svg">
<path d="M121.362 86.6625L121.364 86.6606C121.695 86.3499 121.958 85.9747 122.137 85.5581C122.317 85.1426 122.409 84.6949 122.408 84.2424C122.392 83.2969 122.008 82.3948 121.339 81.727C120.668 81.0583 119.764 80.6772 118.817 80.6644L118.814 80.6643L116.495 80.6192L115.836 80.6064L116.026 79.9751C116.139 79.6008 116.196 79.2121 116.196 78.8212V78.5948C116.176 77.4512 115.71 76.3606 114.898 75.5546C114.086 74.7482 112.992 74.2902 111.847 74.2778H111.235H111.223L111.223 74.2777C110.541 74.2609 109.865 74.4048 109.25 74.6976L108.815 74.9043L108.592 74.4779C107.946 73.2447 106.982 72.2074 105.798 71.4744C104.615 70.7415 103.257 70.3399 101.865 70.3115L101.865 70.3115L99.4838 70.2607C99.4838 70.2607 99.4838 70.2607 99.4837 70.2607C98.3774 70.2372 97.2791 70.4539 96.2646 70.8959C95.4839 71.2391 94.7693 71.7162 94.153 72.3056L94.1513 72.3072L94.1513 72.3072C93.4543 72.9676 92.8995 73.7634 92.5209 74.6457C92.1422 75.5281 91.9476 76.4785 91.9491 77.4386C91.9502 78.1119 92.0444 78.7818 92.229 79.4293L92.4105 80.0664H91.7481H90.7946H90.787L90.787 80.0663C89.8446 80.0519 88.9341 80.4075 88.2509 81.0568L121.362 86.6625ZM121.362 86.6625C120.793 87.2035 120.058 87.5373 119.276 87.6101C119.137 87.6218 118.998 87.6217 118.86 87.61L118.844 87.6086M121.362 86.6625L118.844 87.6086M118.844 87.6086L118.828 87.6083M118.844 87.6086L118.828 87.6083M118.828 87.6083L90.8047 87.0441L90.8047 87.0441M118.828 87.6083L90.8047 87.0441M90.8047 87.0441L90.8 87.044M90.8047 87.0441L90.8 87.044M90.8 87.044C89.8559 87.0338 88.9531 86.6556 88.2836 85.9898M90.8 87.044L88.2836 85.9898M88.2836 85.9898C87.6149 85.3248 87.2318 84.4253 87.2156 83.4825M88.2836 85.9898L87.2156 83.4825M87.2156 83.4825C87.2142 83.0295 87.3051 82.5811 87.4827 82.1644C87.6607 81.7468 87.9221 81.37 88.2508 81.0569L87.2156 83.4825Z" fill="white" stroke="#C5C5C5"/>
<path d="M119.32 88.1082C119.153 88.1224 118.985 88.1224 118.818 88.1082L90.7946 87.544C89.7203 87.5324 88.6929 87.102 87.9311 86.3444C87.1692 85.5868 86.7331 84.5618 86.7156 83.4875C86.7136 82.9655 86.8181 82.4486 87.0228 81.9684C87.2275 81.4882 87.528 81.0548 87.906 80.6948C86.7776 87.6173 94.0274 86.6244 94.0274 86.6244H112.234L119.32 88.1082Z" fill="url(#paint0_linear)"/>
<path d="M93.8017 80.4014L91.765 79.6285C91.5679 78.9366 91.4672 78.2209 91.466 77.5015C91.4644 76.4732 91.6728 75.4555 92.0783 74.5106C92.4838 73.5657 93.0779 72.7135 93.8243 72.0063C94.483 71.3764 95.2467 70.8666 96.0811 70.4999C90.4448 75.3294 93.8017 80.4014 93.8017 80.4014Z" fill="url(#paint1_linear)"/>
<path opacity="0.23" d="M59.8038 123.629C79.6024 123.629 95.6523 109.133 95.6523 91.2507C95.6523 73.3685 79.6024 58.872 59.8038 58.872C40.0053 58.872 23.9554 73.3685 23.9554 91.2507C23.9554 109.133 40.0053 123.629 59.8038 123.629Z" fill="#4A72CE"/>
<path d="M104.313 85.8853C104.322 93.4024 101.875 100.717 97.3449 106.715L97.2715 106.817C92.3071 113.36 85.1785 117.925 77.1588 119.697C69.1392 121.469 60.7507 120.332 53.4916 116.49C46.2326 112.648 40.5756 106.351 37.531 98.7231C34.4865 91.0951 34.2526 82.6332 36.8712 74.8488C39.4898 67.0643 44.7904 60.4642 51.8262 56.2271C58.862 51.9901 67.1749 50.392 75.2802 51.7184C83.3854 53.0448 90.7553 57.2093 96.0735 63.468C101.392 69.7268 104.312 77.6722 104.313 85.8853Z" fill="#4A72CE"/>
<path d="M58.5457 68.8525C56.6444 69.6367 54.5456 69.8229 52.5935 70.4661C50.6414 71.1092 48.6837 72.4069 48.1816 74.4154C47.922 75.4253 48.0575 76.548 47.561 77.462C46.9009 78.6919 45.355 79.1545 44.4184 80.1701C42.6356 82.1334 43.8091 85.5016 45.9869 87.0193C48.1646 88.537 50.9461 88.7683 53.5526 89.214C54.2659 89.2709 54.9458 89.5401 55.5047 89.9869C57.0224 91.4369 55.3411 94.0604 55.9843 96.0576C56.3454 97.186 57.4117 97.9589 57.8969 99.0421C58.8278 101.107 57.4173 103.386 56.4864 105.451C54.8073 109.218 54.6556 113.49 56.0633 117.367C55.9984 117.46 55.9267 117.549 55.8489 117.632C52.136 116.003 48.7356 113.738 45.8007 110.941C42.9403 106.929 40.6779 102.557 40.9148 97.7501C41.0446 95.1436 41.9135 92.6273 42.0771 90.0321C42.3479 85.8176 40.8246 81.242 42.8895 77.5635C44.0179 75.5268 46.2182 73.2926 44.9883 71.318C42.8162 71.6339 40.4748 71.6847 38.4832 70.9287C40.927 65.8376 44.5785 61.4213 49.1195 58.0641C53.6606 54.707 58.9535 52.511 64.5374 51.6673C66.6813 57.7944 64.9774 66.1444 58.5457 68.8525Z" fill="url(#paint2_linear)"/>
<path d="M104.313 85.8853C104.315 88.0758 104.109 90.2615 103.698 92.4129C102.778 93.161 101.916 93.9776 101.119 94.8559C98.383 98.0605 97.7906 102.506 97.3449 106.704C97.3449 106.794 97.3448 106.884 97.3166 106.969C97.3166 106.913 97.3166 106.862 97.2715 106.805C97.0538 105.727 96.584 104.716 95.9005 103.855C95.122 103.014 93.7397 102.597 92.7919 103.257C92.3405 102.128 91.8873 101.009 91.4322 99.8997C88.6112 99.8997 85.7 99.8997 83.0483 98.9011C80.3967 97.9025 78.202 95.9899 76.0806 94.1224C76.3591 90.8865 76.2986 87.6304 75.9001 84.4071C84.1405 83.5128 91.7628 79.6143 97.311 73.4563C92.349 73.2089 87.4293 74.4782 83.2063 77.0953C82.3036 77.6594 81.3896 78.2913 80.3346 78.3816C79.6661 78.3983 78.9993 78.3069 78.36 78.1108L71.5389 76.3787C70.687 71.9894 73.728 67.5831 77.6378 65.4109C80.5716 63.7861 84.1316 64.102 86.9469 62.6803C88.8764 61.7099 89.4406 60.0117 91.1275 58.7648H91.1614C95.2593 61.9987 98.5714 66.1188 100.849 70.8159C103.127 75.513 104.311 80.6651 104.313 85.8853Z" fill="url(#paint3_linear)"/>
<path d="M80.4023 78.8724C80.1992 79.5382 80.0074 80.3168 80.4023 80.8753C80.5964 81.1141 80.8519 81.2955 81.1414 81.4C81.4784 81.5609 81.8533 81.6255 82.2246 81.5866C82.596 81.5478 82.9494 81.4071 83.2458 81.18C83.5555 80.8412 83.7747 80.4298 83.8833 79.9839C84.4108 78.3651 84.7885 76.7013 85.0117 75.0134C85.0542 74.8583 85.0542 74.6946 85.0117 74.5395C84.9236 74.3767 84.7821 74.2493 84.6112 74.1784C83.7141 73.6988 82.3093 73.3152 81.7902 74.3759C81.1527 75.7412 80.8537 77.4281 80.4023 78.8724Z" fill="#FBC4D6"/>
<path d="M83.116 79.6454C83.3055 79.6194 83.4984 79.6367 83.6802 79.6961C83.804 79.7647 83.9118 79.859 83.9962 79.9726L85.9426 82.156C86.3206 82.5791 86.7155 83.1603 86.4504 83.6624C86.357 83.8021 86.2335 83.9192 86.089 84.0051C85.9446 84.091 85.7828 84.1435 85.6154 84.1589C84.6726 84.2451 83.7249 84.0591 82.8847 83.6229C82.2867 83.3634 81.6943 83.0587 81.1132 82.7766C80.6814 82.5805 80.3038 82.2823 80.013 81.9078C79.5673 81.2307 79.4488 79.6059 80.2274 79.0868C80.628 78.8329 80.9778 79.0135 81.3558 79.1884C81.8962 79.4828 82.5007 79.6397 83.116 79.6454Z" fill="#4A72CE"/>
<path d="M91.1896 86.3084C91.2048 86.4339 91.1913 86.5613 91.1501 86.6808C91.0829 86.7968 90.9853 86.8924 90.868 86.9572C90.498 87.212 90.0642 87.3586 89.6155 87.3804C89.3914 87.3888 89.1683 87.3453 88.9638 87.2533C88.7593 87.1613 88.5787 87.0233 88.4363 86.85C88.2287 86.5217 88.1029 86.1483 88.0696 85.7612C87.9043 84.9289 87.823 84.0821 87.827 83.2336C87.8172 83.1837 87.8183 83.1323 87.8303 83.083C87.8423 83.0336 87.865 82.9874 87.8967 82.9477C87.9283 82.9079 87.9683 82.8756 88.0138 82.8529C88.0592 82.8301 88.1091 82.8176 88.1599 82.8161C88.8595 82.6694 90.253 82.3027 90.6084 83.1603C90.9706 84.1715 91.1668 85.2346 91.1896 86.3084Z" fill="#FBC4D6"/>
<path d="M94.1515 86.2238C94.7528 86.2563 95.3468 86.3701 95.9174 86.5623C96.2011 86.6605 96.4616 86.8157 96.6828 87.0186C96.9041 87.2214 97.0814 87.4674 97.2038 87.7415C97.3177 88.0098 97.3318 88.31 97.2433 88.5878C97.0484 88.9998 96.7062 89.3239 96.2842 89.4961C94.279 90.5617 92.0168 91.0482 89.7509 90.9009C89.1695 90.9243 88.6015 90.7222 88.1655 90.3367C87.8508 89.8708 87.7036 89.3119 87.748 88.7514L87.669 86.0997C88.1796 86.1224 88.6779 86.2634 89.1246 86.5115C89.9596 86.7936 90.2869 86.1166 90.9752 85.9474C91.8722 85.7386 93.2376 86.1335 94.1515 86.2238Z" fill="#4A72CE"/>
<path d="M83.116 79.6454C83.3055 79.6194 83.4984 79.6367 83.6802 79.6961C83.804 79.7647 83.9118 79.859 83.9962 79.9726L85.9426 82.156C86.3206 82.5791 86.7155 83.1603 86.4504 83.6624C86.357 83.8021 86.2335 83.9192 86.089 84.0051C85.9446 84.091 85.7828 84.1435 85.6154 84.1589C84.6726 84.2451 83.7249 84.0591 82.8847 83.6229C82.2867 83.3634 81.6943 83.0587 81.1132 82.7766C80.6814 82.5805 80.3038 82.2823 80.013 81.9078C79.5673 81.2307 79.4488 79.6059 80.2274 79.0868C80.628 78.8329 80.9778 79.0135 81.3558 79.1884C81.8962 79.4828 82.5007 79.6397 83.116 79.6454Z" fill="url(#paint4_linear)"/>
<path d="M94.1515 86.2238C94.7528 86.2563 95.3468 86.3701 95.9174 86.5623C96.2011 86.6605 96.4616 86.8157 96.6828 87.0186C96.9041 87.2214 97.0814 87.4674 97.2038 87.7415C97.3177 88.0098 97.3318 88.31 97.2433 88.5878C97.0484 88.9998 96.7062 89.3239 96.2842 89.4961C94.279 90.5617 92.0168 91.0482 89.7509 90.9009C89.1695 90.9243 88.6015 90.7222 88.1655 90.3367C87.8508 89.8708 87.7036 89.3119 87.748 88.7514L87.669 86.0997C88.1796 86.1224 88.6779 86.2634 89.1246 86.5115C89.9596 86.7936 90.2869 86.1166 90.9752 85.9474C91.8722 85.7386 93.2376 86.1335 94.1515 86.2238Z" fill="url(#paint5_linear)"/>
<path d="M62.0098 57.4954C60.7962 57.39 59.575 57.4089 58.3652 57.5518C58.207 57.5599 58.0535 57.6085 57.9195 57.6928C57.8424 57.7654 57.7807 57.8528 57.738 57.9497C57.6954 58.0467 57.6727 58.1512 57.6712 58.257C57.502 59.8932 58.7996 61.3149 60.1988 62.1781C63.9845 64.5252 68.7575 64.4349 72.9381 65.9695C73.337 66.0752 73.6911 66.3066 73.948 66.6296C74.1224 66.9795 74.2076 67.3671 74.1963 67.7579C74.3824 69.9639 75.6067 71.9499 76.0129 74.122C76.4192 76.2941 75.9847 78.5678 76.3176 80.7568C77.6886 79.2956 80.0243 79.0643 81.3953 77.6199C82.6816 76.2885 82.9355 74.3025 83.1273 72.4633L83.6464 67.4194C83.7426 67.0557 83.7028 66.6694 83.5346 66.3329C83.3663 65.9964 83.0811 65.7328 82.7324 65.5915C76.5602 61.6027 69.3273 58.1273 62.0098 57.4954Z" fill="#213155"/>
<path d="M86.9695 56.9876C87.5397 57.102 88.0682 57.3692 88.4984 57.7606C88.9396 58.3749 89.1403 59.1296 89.0626 59.8819C89.0492 65.2353 88.0371 70.5391 86.078 75.5212C86.0596 75.6963 85.9986 75.8642 85.9003 76.0103C85.8019 76.1564 85.6693 76.2761 85.514 76.359C85.3587 76.442 85.1854 76.4856 85.0093 76.4861C84.8332 76.4866 84.6597 76.4439 84.504 76.3618C83.3307 76.0452 82.1745 75.6685 81.0398 75.2335L82.5744 65.0781C82.6477 64.7963 82.6319 64.4987 82.5293 64.2262C82.416 64.0329 82.2571 63.8702 82.0667 63.7522C80.3163 62.479 78.4675 61.3471 76.5376 60.3671C74.9974 59.5885 73.2315 58.6745 72.814 57.0271C72.7274 56.7456 72.7098 56.4474 72.7629 56.1577C72.8159 55.868 72.9379 55.5953 73.1186 55.3628C73.3627 55.1231 73.6498 54.9316 73.9649 54.7986C74.9861 54.2965 76.2725 53.6702 77.446 53.7718C78.3882 53.8677 78.7492 54.4093 79.5335 54.8099C81.7112 55.8931 84.6055 56.2993 86.9695 56.9876Z" fill="#282328"/>
<path d="M76.4869 40.835C77.2429 42.9168 77.6152 45.1228 78.281 47.2272C78.4268 47.785 78.6882 48.3059 79.0483 48.7561C79.5268 49.2152 80.1066 49.5553 80.7408 49.7491C81.6247 50.0914 82.5237 50.3904 83.4376 50.6462C84.047 50.8098 84.7748 51.0919 84.8425 51.7125C84.8568 51.9195 84.8139 52.1264 84.7183 52.3105C84.4826 52.7308 84.1431 53.0837 83.7322 53.3356C83.3214 53.5874 82.8528 53.7298 82.3713 53.7492C81.4102 53.775 80.4529 53.618 79.5504 53.2866C78.7286 53.1202 77.9746 52.7138 77.3839 52.1187C77.0481 51.6238 76.8124 51.068 76.69 50.4826C75.7641 47.1959 74.4794 44.0211 72.8591 41.0155C72.3745 40.2218 71.9952 39.3683 71.7308 38.4767C71.3584 36.9195 71.3528 33.2297 72.9607 34.5838C74.2583 35.6783 75.917 39.2891 76.4869 40.835Z" fill="#FBC4D6"/>
<path d="M70.3316 56.7902C71.2827 56.4216 72.2081 55.99 73.1017 55.4982C76.4868 53.6251 73.7167 52.7054 72.5883 50.4543C71.7815 48.8577 72.1088 46.9451 72.5262 45.213C73.2653 42.1664 74.2527 39.007 73.5418 35.966C73.4529 35.4725 73.2607 35.0033 72.9776 34.5894C72.7706 34.3326 72.5317 34.1032 72.2667 33.9067C71.5521 33.2894 70.7296 32.8093 69.8407 32.4906C68.1482 31.9264 66.2299 32.3383 64.622 33.1451C58.3031 36.3158 56.9547 44.3216 57.2086 50.7251C57.2763 52.5023 57.5527 54.3811 58.698 55.7408C59.8433 57.1005 61.4625 57.6195 63.1213 57.8226C65.573 58.0732 68.0487 57.7187 70.3316 56.7902Z" fill="white"/>
<path d="M60.9096 53.1681C60.9606 53.7691 61.154 54.3493 61.4738 54.8606C62.038 55.6561 63.0761 55.9495 64.0296 56.1808L68.3231 57.2415C68.8463 57.4001 69.3899 57.4819 69.9366 57.4841C71.1102 57.4277 72.1201 56.6773 73.051 55.9552C73.2889 55.7924 73.4953 55.5879 73.6603 55.3515C71.2907 55.1258 68.9268 54.8888 66.5684 54.5447C65.1805 54.3416 63.7137 54.0595 62.6925 53.106C62.1649 52.5848 61.7635 51.9499 61.519 51.2498C61.3497 50.8154 61.2707 49.7096 60.7799 49.6137C60.6563 50.7987 60.7 51.9952 60.9096 53.1681Z" fill="url(#paint6_linear)"/>
<path d="M69.3837 37.4498C69.3833 37.6277 69.3123 37.7982 69.1863 37.9238C69.069 37.9928 68.9319 38.0206 68.797 38.0027C68.3548 37.982 67.9223 37.8668 67.5285 37.6648C67.1346 37.4628 66.7887 37.1788 66.5139 36.8318C66.2391 36.4848 66.0418 36.083 65.9354 35.6533C65.829 35.2237 65.816 34.7763 65.8971 34.3412C65.9986 33.777 66.2412 33.2918 66.3935 32.7614C66.6926 31.7008 66.6418 30.5047 67.3132 29.6302C67.8944 30.9602 68.5577 32.2527 69.2991 33.5005C69.4886 33.7486 69.6204 34.0359 69.6848 34.3414C69.7492 34.6469 69.7446 34.9629 69.6715 35.2664L69.3837 37.4498Z" fill="#FBC4D6"/>
<path d="M69.7166 34.7192L69.4627 36.4117C69.4627 36.4117 66.5572 34.973 66.9352 32.3044C67.3132 29.6358 69.7166 34.7192 69.7166 34.7192Z" fill="#EB9D80"/>
<path d="M73.113 33.0717C72.964 33.6139 72.6482 34.0955 72.2103 34.4483C72.0014 34.5899 71.768 34.6913 71.522 34.7474C70.6581 34.915 69.7633 34.805 68.9657 34.433C68.1682 34.0611 67.5087 33.4464 67.0819 32.6768C66.6795 31.8973 66.45 31.0401 66.4091 30.1638C66.3683 29.2875 66.5169 28.4127 66.8449 27.5991C67.1134 26.7068 67.7211 25.9553 68.5375 25.506C68.9838 25.33 69.4667 25.2672 69.9432 25.3233C70.4197 25.3795 70.8749 25.5527 71.2681 25.8276C72.3368 26.5737 73.1628 27.6175 73.6433 28.829C74.0552 30.0646 73.5361 31.8926 73.113 33.0717Z" fill="#FBC4D6"/>
<path d="M85.8693 64.0795C86.5924 65.0003 87.1638 66.0307 87.5618 67.1317C89.7807 72.4825 91.2227 78.1232 91.844 83.8824C90.0325 84.1081 88.1999 84.1081 86.3883 83.8824C86.2465 79.8166 85.6196 75.7823 84.5209 71.8653C84.3267 71.0222 83.993 70.2174 83.5336 69.4844C82.7268 68.3165 81.4009 67.6395 80.1484 67.0076C77.2177 65.5835 74.1546 64.4497 71.003 63.6225C69.6715 63.2558 68.3287 62.9172 67.0198 62.4941C65.9196 62.1217 62.8335 60.7564 61.9421 60.0173C61.475 59.6631 61.0842 59.2182 60.7933 58.7092C60.5025 58.2002 60.3175 57.6376 60.2496 57.0553C60.2496 57.3487 68.8478 57.9355 69.4627 57.8678C71.5333 57.6477 73.9762 56.4629 76.0186 57.3036C77.6152 57.958 79.0765 59.3234 80.5321 60.2656C82.298 61.3714 84.4532 62.4433 85.8693 64.0795Z" fill="#473F47"/>
<path d="M76.4473 63.645L65.9535 58.5166L78.2584 53.2978L88.7579 57.8847L76.4473 63.645Z" fill="#4A72CE"/>
<path d="M60.464 39.5655C60.464 39.763 60.4132 39.9548 60.3906 40.1297C60.0803 43.0184 60.3624 45.8506 60.4696 48.7223C60.5373 50.4995 60.7686 53.8846 62.6586 54.7929C66.1905 56.4855 73.0058 55.8423 73.0058 55.8423C73.7961 55.7156 74.6036 55.7483 75.3811 55.9382C75.8042 56.068 76.1935 56.288 76.6053 56.446C78.0948 57.0102 79.7592 56.7281 81.3276 56.446C81.5978 56.4139 81.8588 56.3276 82.0949 56.1921C82.3686 55.949 82.5356 55.608 82.5599 55.2427C82.5842 54.8774 82.4638 54.5172 82.2246 54.24C81.7155 53.705 81.0534 53.3405 80.329 53.1963C78.3483 52.5497 76.2266 52.4677 74.2019 52.9593C73.9431 53.0465 73.6794 53.1181 73.412 53.1737C73.0988 53.2245 72.7815 53.2472 72.4642 53.2414H70.0608C67.2963 53.2414 64.6897 53.2753 64.2722 50.0425C64.1181 48.8452 64.0878 47.6352 64.1819 46.4317C64.3456 44.2596 64.9154 42.1044 64.7969 39.9322C64.7897 39.2434 64.6176 38.5662 64.2948 37.9576C64.1312 37.6554 63.8928 37.4002 63.6023 37.2165C63.3119 37.0328 62.9792 36.9266 62.6361 36.9082C62.2807 36.9347 61.9382 37.0525 61.6417 37.2502C61.3452 37.4479 61.1047 37.7187 60.9435 38.0366C60.6937 38.5135 60.5313 39.0314 60.464 39.5655Z" fill="#FBC4D6"/>
<path d="M93.0796 47.5375L78.4107 55.0017L76.4473 63.645L88.7579 57.8847L93.0796 47.5375Z" fill="#4A72CE"/>
<path d="M73.8352 29.9574C73.8191 29.4203 73.62 28.9047 73.271 28.4962C73.0937 28.2905 72.8841 28.1152 72.6504 27.9771C72.3231 27.7853 72.2442 27.7684 72.0298 28.0787C71.7533 28.4792 71.663 28.9475 71.4092 29.365C71.1314 29.8281 70.7438 30.2156 70.2808 30.4934C69.7604 30.8163 69.155 30.9755 68.5431 30.9504C68.3 30.9136 68.0527 30.9136 67.8096 30.9504C67.728 30.9658 67.6508 30.9991 67.5835 31.0479C67.5162 31.0967 67.4605 31.1597 67.4204 31.2325C67.3621 31.4435 67.3411 31.6631 67.3583 31.8813C67.3075 32.4455 66.749 32.8461 66.4387 33.3369C66.1284 33.8277 66.0381 34.5555 65.6657 35.0802C65.5966 35.1855 65.5014 35.271 65.3893 35.3285C65.1241 35.4413 64.8251 35.2946 64.5486 35.2438C63.7306 35.1028 63.0705 35.8645 62.3709 36.3271C60.9661 37.2524 59.1268 37.0154 57.4681 36.7389C56.9603 36.6775 56.4653 36.5366 56.0012 36.3214C55.5 36.0257 55.055 35.6437 54.6867 35.1931C54.0717 34.516 53.4624 33.8277 52.8587 33.1394C52.6344 32.9191 52.456 32.6563 52.334 32.3665C52.2694 32.1644 52.2521 31.9501 52.2832 31.7402C52.3383 31.3484 52.4544 30.9677 52.6274 30.6119C53.0674 29.6245 53.5809 28.5526 54.5738 28.1069C55.5668 27.6612 56.7403 27.994 57.8348 27.8812C57.9682 27.8809 58.0982 27.8395 58.2072 27.7627C58.2943 27.6643 58.3563 27.5462 58.3877 27.4186C58.8447 25.9009 59.4145 24.2535 60.7799 23.4693C61.832 22.9639 63.018 22.8077 64.165 23.0236C65.3007 23.2381 66.4594 23.3045 67.6122 23.221C68.1764 23.1307 68.7406 22.9446 69.3047 22.8317C70.6241 22.5386 72.0051 22.7393 73.1864 23.3959C73.7693 23.7428 74.257 24.2291 74.6056 24.8111C74.9542 25.3931 75.1528 26.0526 75.1836 26.7303C75.161 26.9949 75.161 27.2611 75.1836 27.5258C75.2231 27.774 75.3303 28.0166 75.3698 28.2649C75.3929 28.4794 75.3703 28.6964 75.3035 28.9017C75.2367 29.1069 75.1272 29.2956 74.9823 29.4555C74.8373 29.6154 74.6602 29.7428 74.4625 29.8293C74.2648 29.9158 74.051 29.9595 73.8352 29.9574Z" fill="#FF681C"/>
<path d="M59.9505 41.1678C59.7766 42.7645 59.7577 44.3743 59.8941 45.9747C59.8873 46.1136 59.9227 46.2513 59.9957 46.3696C60.1156 46.5009 60.281 46.5816 60.4583 46.5953C61.372 46.7654 62.299 46.8541 63.2284 46.8605C63.3589 46.9021 63.4968 46.9145 63.6326 46.8968C63.7683 46.879 63.8985 46.8316 64.0138 46.7578C64.1291 46.6839 64.2267 46.5856 64.2996 46.4698C64.3726 46.3539 64.4191 46.2234 64.4358 46.0875C64.9436 43.9662 65.4457 41.8448 65.8293 39.6953C65.9817 38.8321 66.0889 37.8617 65.5698 37.1621C64.8195 36.1465 62.794 36.0337 61.818 36.7728C60.6388 37.6811 60.1367 39.8025 59.9505 41.1678Z" fill="white"/>
<path d="M75.917 38.4597L77.5137 42.2849C77.5927 42.4336 77.6242 42.603 77.6039 42.7701C77.5633 42.9073 77.4852 43.0304 77.3783 43.1256C76.5983 43.9503 75.6725 44.6236 74.6476 45.1115C73.7026 44.2672 72.9354 43.243 72.3909 42.0987C71.8605 40.739 71.979 39.227 72.137 37.7771C72.2329 36.8574 72.199 33.9011 73.7618 35.0464C74.8507 35.8306 75.4262 37.2806 75.917 38.4597Z" fill="white"/>
<path d="M46.5363 74.3413V74.3425C46.5367 74.796 46.4447 75.2448 46.2659 75.6616C46.0871 76.0782 45.8252 76.4541 45.4963 76.7661C44.928 77.3046 44.1964 77.6379 43.4174 77.7135C43.2707 77.7207 43.1238 77.7205 42.9772 77.713L42.9694 77.7126L42.9616 77.7125L14.9385 77.1483L14.9385 77.1482L14.9338 77.1482C13.9882 77.138 13.0839 76.7592 12.4134 76.0923C11.7438 75.4264 11.3601 74.5258 11.3437 73.5817C11.3438 73.1295 11.4358 72.682 11.6141 72.2665C11.7929 71.8497 12.0549 71.4738 12.3839 71.1617L12.3839 71.1617L12.3863 71.1594C12.7225 70.8361 13.1192 70.5824 13.5536 70.4127C13.988 70.243 14.4516 70.1607 14.9179 70.1704L14.9179 70.1706H14.9284H15.8819H16.5464L16.3623 69.532C16.1755 68.8842 16.0814 68.2132 16.0829 67.539L16.0829 67.537C16.0811 66.5768 16.2755 65.6264 16.6542 64.7441C17.0328 63.8617 17.5878 63.066 18.285 62.4058L18.285 62.4058L18.2868 62.404C18.9021 61.8154 19.6166 61.3402 20.3974 61.0005L20.3979 61.0003C21.4123 60.5577 22.5108 60.3408 23.6173 60.3649L23.6175 60.3649L25.9984 60.4157L25.9997 60.4157C27.3829 60.4414 28.7342 60.8351 29.9148 61.5563C31.0953 62.2775 32.0625 63.3001 32.7167 64.519L32.9403 64.9356L33.3687 64.7357C33.9882 64.4465 34.6655 64.3024 35.349 64.3142L35.349 64.3143H35.3576H35.9694C37.1132 64.3294 38.2064 64.7891 39.0172 65.5962C39.8278 66.403 40.2926 67.4935 40.3133 68.6368L40.3133 68.8638L40.3133 68.8664C40.3153 69.2543 40.2597 69.6405 40.1482 70.0121L39.9595 70.6413L40.6162 70.6556L42.935 70.7064L42.935 70.7065L42.9412 70.7065C43.8987 70.7157 44.8138 71.1028 45.4872 71.7836C46.1606 72.4644 46.5376 73.3837 46.5363 74.3413Z" fill="white" stroke="#C5C5C5"/>
<path d="M43.4537 78.2123C43.2864 78.2209 43.1188 78.2209 42.9516 78.2123L14.9284 77.6482C13.8526 77.6365 12.8237 77.2055 12.0608 76.4469C11.298 75.6882 10.8613 74.6618 10.8437 73.586C10.8432 73.0645 10.949 72.5485 11.1546 72.0693C11.3603 71.5901 11.6615 71.1578 12.0398 70.7989C10.9396 77.7159 18.1612 76.7285 18.1612 76.7285H36.3675L43.4537 78.2123Z" fill="url(#paint7_linear)"/>
<path d="M17.9129 70.5056L15.8819 69.7326C15.682 69.0394 15.5813 68.3214 15.5828 67.6C15.5809 66.5717 15.7891 65.5539 16.1947 64.6089C16.6002 63.664 17.1945 62.8118 17.9411 62.1048C18.599 61.4754 19.363 60.9673 20.1979 60.6041C14.5729 65.4335 17.9129 70.5056 17.9129 70.5056Z" fill="url(#paint8_linear)"/>
<path d="M119.411 43.975L119.411 43.9747C119.742 43.6635 120.005 43.288 120.184 42.8713C120.364 42.455 120.456 42.0062 120.456 41.5528C120.454 40.5965 120.075 39.6796 119.402 39.0002C118.729 38.3207 117.816 37.9333 116.86 37.9216L116.856 37.9215L114.537 37.8764L113.878 37.8636L114.068 37.2323C114.181 36.858 114.238 36.4693 114.239 36.0784V35.852C114.218 34.7084 113.752 33.6178 112.941 32.8118C112.129 32.0054 111.034 31.5474 109.89 31.535H109.277H109.266L109.266 31.5349C108.584 31.5187 107.908 31.6626 107.291 31.955L106.861 32.1594L106.636 31.7389C105.984 30.5188 105.019 29.4949 103.839 28.7727C102.659 28.0505 101.308 27.6563 99.9252 27.6308L99.9238 27.6307L97.5429 27.58L97.5425 27.5799C96.4361 27.5554 95.3377 27.7722 94.3236 28.2153L119.411 43.975ZM119.411 43.975C118.838 44.5158 118.101 44.8497 117.317 44.9238C117.179 44.9355 117.041 44.9355 116.903 44.9236L116.886 44.9222L116.87 44.9219L88.8526 44.3577L88.8492 44.3577C87.9119 44.3451 87.0159 43.9699 86.3493 43.3107C85.6836 42.6524 85.2985 41.762 85.2747 40.826C85.27 40.3691 85.3593 39.916 85.537 39.495C85.715 39.0731 85.978 38.6924 86.3096 38.3765M119.411 43.975L86.3096 38.3765M86.3096 38.3765C86.9953 37.7271 87.9077 37.3715 88.852 37.3856L88.852 37.3856H88.8595H89.8073H90.4697L90.2881 36.7486C90.1036 36.1011 90.0094 35.4312 90.0083 34.7579C90.0068 33.7977 90.2014 32.8473 90.58 31.965C90.9587 31.0826 91.5135 30.2869 92.2105 29.6264L92.2105 29.6264L92.2126 29.6244C92.8281 29.0345 93.5426 28.5575 94.3235 28.2153L86.3096 38.3765Z" fill="white" stroke="#C5C5C5"/>
<path d="M117.368 45.4218C117.201 45.4361 117.033 45.4361 116.866 45.4218L88.8482 44.8576C87.7805 44.8448 86.7595 44.4184 85.9998 43.6682C85.2401 42.918 84.801 41.9024 84.7747 40.835C84.7689 40.3082 84.8715 39.7859 85.0763 39.3006C85.2812 38.8153 85.5837 38.3773 85.9652 38.014C84.8368 44.9366 92.0866 43.9436 92.0866 43.9436H110.293L117.368 45.4218Z" fill="url(#paint9_linear)"/>
<path d="M91.8327 37.715L89.796 36.9421C89.5988 36.2502 89.4982 35.5345 89.497 34.8151C89.4954 33.7868 89.7038 32.7691 90.1093 31.8242C90.5148 30.8793 91.1089 30.0271 91.8553 29.3199C92.5133 28.6892 93.2772 28.1793 94.112 27.8135C88.4927 32.6429 91.8327 37.715 91.8327 37.715Z" fill="#BDBDBD"/>
<path d="M67.8492 30.9617C67.7675 30.9771 67.6903 31.0104 67.623 31.0592C67.5557 31.108 67.5 31.171 67.4599 31.2438C67.4016 31.4548 67.3806 31.6744 67.3978 31.8926C67.347 32.4568 66.7885 32.8574 66.4782 33.3482C66.1679 33.839 66.0776 34.5668 65.7052 35.0915C65.6361 35.1968 65.5409 35.2823 65.4288 35.3398C65.1636 35.4526 64.8646 35.3059 64.5882 35.2552C63.7701 35.1141 63.11 35.8758 62.4104 36.3384C61.0056 37.2637 59.1663 37.0267 57.5076 36.7502C56.9857 36.6894 56.477 36.5446 56.0012 36.3215C55.5 36.0257 55.055 35.6437 54.6867 35.1931C54.0717 34.5161 53.4624 33.8278 52.8587 33.1394C52.6344 32.9191 52.456 32.6564 52.334 32.3665C52.2694 32.1644 52.2521 31.9502 52.2832 31.7403C52.5463 31.5814 52.8196 31.4401 53.1013 31.3171C53.9662 30.853 54.9772 30.7418 55.9222 31.0068C56.6782 31.3002 57.2142 31.9716 57.863 32.4511C58.7679 33.0847 59.8685 33.3758 60.9682 33.2724C62.0679 33.1691 63.0951 32.678 63.866 31.887C64.1503 31.5124 64.4844 31.1783 64.859 30.894C65.5303 30.5273 66.8957 30.5837 67.8492 30.9617Z" fill="url(#paint10_linear)"/>
<defs>
<linearGradient id="paint0_linear" x1="104.166" y1="100.69" x2="101.61" y2="67.7636" gradientUnits="userSpaceOnUse">
<stop offset="0.01"/>
<stop offset="0.13" stop-opacity="0.69"/>
<stop offset="0.25" stop-opacity="0.32"/>
<stop offset="1" stop-opacity="0"/>
</linearGradient>
<linearGradient id="paint1_linear" x1="836.244" y1="1562.36" x2="1110.4" y2="1502.9" gradientUnits="userSpaceOnUse">
<stop offset="0.01"/>
<stop offset="0.13" stop-opacity="0.69"/>
<stop offset="0.25" stop-opacity="0.32"/>
<stop offset="1" stop-opacity="0"/>
</linearGradient>
<linearGradient id="paint2_linear" x1="3322.29" y1="17211.1" x2="-22.2873" y2="-6955.85" gradientUnits="userSpaceOnUse">
<stop offset="0.01"/>
<stop offset="0.13" stop-opacity="0.69"/>
<stop offset="0.25" stop-opacity="0.32"/>
<stop offset="1" stop-opacity="0"/>
</linearGradient>
<linearGradient id="paint3_linear" x1="6120.03" y1="12429.9" x2="4640.22" y2="-5446.54" gradientUnits="userSpaceOnUse">
<stop offset="0.01"/>
<stop offset="0.13" stop-opacity="0.69"/>
<stop offset="0.25" stop-opacity="0.32"/>
<stop offset="1" stop-opacity="0"/>
</linearGradient>
<linearGradient id="paint4_linear" x1="-6035.34" y1="838.561" x2="-6150.9" y2="914.108" gradientUnits="userSpaceOnUse">
<stop offset="0.01"/>
<stop offset="0.13" stop-opacity="0.69"/>
<stop offset="0.25" stop-opacity="0.32"/>
<stop offset="1" stop-opacity="0"/>
</linearGradient>
<linearGradient id="paint5_linear" x1="-8524.41" y1="945.561" x2="-8557.87" y2="801.682" gradientUnits="userSpaceOnUse">
<stop offset="0.01"/>
<stop offset="0.13" stop-opacity="0.69"/>
<stop offset="0.25" stop-opacity="0.32"/>
<stop offset="1" stop-opacity="0"/>
</linearGradient>
<linearGradient id="paint6_linear" x1="2064.56" y1="651.071" x2="1804.1" y2="1275.28" gradientUnits="userSpaceOnUse">
<stop offset="0.01"/>
<stop offset="0.13" stop-opacity="0.69"/>
<stop offset="0.25" stop-opacity="0.32"/>
<stop offset="1" stop-opacity="0"/>
</linearGradient>
<linearGradient id="paint7_linear" x1="2355.5" y1="1291.74" x2="2347.8" y2="856.155" gradientUnits="userSpaceOnUse">
<stop offset="0.01"/>
<stop offset="0.13" stop-opacity="0.69"/>
<stop offset="0.25" stop-opacity="0.32"/>
<stop offset="1" stop-opacity="0"/>
</linearGradient>
<linearGradient id="paint8_linear" x1="139.728" y1="1378.69" x2="413.896" y2="1319.27" gradientUnits="userSpaceOnUse">
<stop offset="0.01"/>
<stop offset="0.13" stop-opacity="0.69"/>
<stop offset="0.25" stop-opacity="0.32"/>
<stop offset="1" stop-opacity="0"/>
</linearGradient>
<linearGradient id="paint9_linear" x1="6698.61" y1="827.567" x2="6690.9" y2="392.139" gradientUnits="userSpaceOnUse">
<stop offset="0.01"/>
<stop offset="0.13" stop-opacity="0.69"/>
<stop offset="0.25" stop-opacity="0.32"/>
<stop offset="1" stop-opacity="0"/>
</linearGradient>
<linearGradient id="paint10_linear" x1="2449.87" y1="541.185" x2="2126.21" y2="-64.2324" gradientUnits="userSpaceOnUse">
<stop offset="0.01"/>
<stop offset="0.13" stop-opacity="0.69"/>
<stop offset="0.25" stop-opacity="0.32"/>
<stop offset="1" stop-opacity="0"/>
</linearGradient>
</defs>
</svg>
