<svg width="166" height="131" viewBox="0 0 166 131" fill="none" xmlns="http://www.w3.org/2000/svg">
<g clip-path="url(#clip0)">
<path opacity="0.24" d="M165.146 67.5156C165.106 68.2187 165.054 68.9178 164.989 69.6129C164.49 74.803 163.252 79.8986 161.988 84.9498C159.474 94.9932 156.603 105.456 149.762 112.956C141.517 121.977 128.948 125.052 117.056 125.475C105.163 125.897 93.2262 124.101 81.3779 125.309C69.3731 126.538 57.6371 130.839 45.588 130.387C39.6261 130.156 33.7656 128.771 28.3311 126.308C22.9106 123.853 17.8682 120.308 14.2231 115.429C8.53376 107.858 6.92682 98.3577 6.22674 89.2419C6.15567 88.348 6.02541 87.4599 5.83682 86.5833C5.78365 86.3056 5.71866 86.0309 5.64481 85.7533C4.55481 81.5144 2.35412 77.8485 1.04552 73.7957C0.815117 73.075 0.602433 72.3453 0.437012 71.5891C0.0281601 69.7631 -0.0934277 67.8844 0.0766316 66.0209C0.566986 60.8959 2.43978 56.013 4.35985 51.2187C5.21058 49.086 6.0879 46.9444 7.03907 44.8382C9.33724 39.7604 12.0903 34.913 16.0781 30.9783C24.0744 23.0943 35.8695 20.0931 47.1684 18.6515C58.4672 17.21 70.1323 16.9619 80.861 13.1956C91.9678 9.2905 101.875 1.69887 113.65 0.564562C122.255 -0.256634 130.889 2.55847 138.286 6.88895C154.627 16.4272 163.639 39.5211 165.051 58.7897C165.27 61.6933 165.302 64.608 165.146 67.5156Z" fill="#4A72CE"/>
<path opacity="0.26" d="M50.2878 97.9146C62.4713 97.9146 72.3479 96.026 72.3479 93.6964C72.3479 91.3667 62.4713 89.4782 50.2878 89.4782C38.1044 89.4782 28.2278 91.3667 28.2278 93.6964C28.2278 96.026 38.1044 97.9146 50.2878 97.9146Z" fill="url(#paint0_linear)"/>
<path opacity="0.26" d="M114.394 97.9146C129.534 97.9146 141.807 95.497 141.807 92.5148C141.807 89.5326 129.534 87.115 114.394 87.115C99.2548 87.115 86.9818 89.5326 86.9818 92.5148C86.9818 95.497 99.2548 97.9146 114.394 97.9146Z" fill="url(#paint1_linear)"/>
<path d="M43.101 77.1336C41.7973 77.0845 40.4974 76.9612 39.2077 76.7644C38.8812 76.6986 38.5474 76.6767 38.2152 76.6994C37.8033 76.7746 37.4051 76.911 37.0336 77.1041C34.777 78.0846 32.2753 78.3546 29.8614 77.878C29.4006 77.7864 28.9014 77.6358 28.6562 77.237C28.5416 77.0213 28.4742 76.7836 28.4583 76.5399C28.3633 75.7706 28.3465 74.9937 28.4081 74.221C28.4173 73.7865 28.518 73.3587 28.7035 72.9656C28.9491 72.5645 29.3049 72.2425 29.7285 72.0381C31.2734 71.211 33.1373 71.4473 34.889 71.5005C36.9568 71.5743 39.0984 71.3971 41.0923 71.9642C42.5102 72.363 43.9045 73.2433 44.6636 74.5371C45.5735 76.0554 44.8911 77.2045 43.101 77.1336Z" fill="#FDB386"/>
<path d="M43.101 77.1336C41.7973 77.0845 40.4974 76.9612 39.2077 76.7644C38.8812 76.6986 38.5474 76.6767 38.2152 76.6994C37.8033 76.7746 37.4051 76.911 37.0336 77.1041C34.777 78.0846 32.2753 78.3546 29.8614 77.878C29.4006 77.7864 28.9014 77.6358 28.6562 77.237C28.5416 77.0213 28.4742 76.7836 28.4583 76.5399C28.3633 75.7706 28.3465 74.9937 28.4081 74.221C28.4173 73.7865 28.518 73.3587 28.7035 72.9656C28.9491 72.5645 29.3049 72.2425 29.7285 72.0381C31.2734 71.211 33.1373 71.4473 34.889 71.5005C36.9568 71.5743 39.0984 71.3971 41.0923 71.9642C42.5102 72.363 43.9045 73.2433 44.6636 74.5371C45.5735 76.0554 44.8911 77.2045 43.101 77.1336Z" fill="url(#paint2_linear)"/>
<path d="M89.4956 83.3546L99.8935 90.7188L134.212 90.9788L124.591 84.1345L89.4956 83.3546Z" fill="#4A72CE"/>
<path d="M93.3947 83.6382L101.397 89.3068L127.799 89.5077L120.397 84.2408L93.3947 83.6382Z" fill="white"/>
<path d="M84.8608 59.7526C84.8608 59.7526 93.3091 55.5935 96.1685 48.9648L105.27 51.8243C105.27 51.8243 95.5216 64.8216 91.7494 65.2115L84.8608 59.7526Z" fill="#4A72CE"/>
<path d="M93.569 67.4063C94.0889 67.0814 101.757 64.5469 104.945 58.5031L112.678 62.5973C112.678 62.5973 105.075 72.8681 98.2481 73.1931L93.569 67.4063Z" fill="#4A72CE"/>
<path d="M120.952 77.8071L126.671 84.3088L105.615 86.7339L102.927 81.9663L120.952 77.8071Z" fill="#4A72CE"/>
<path d="M105.769 81.3725L119.416 78.7376C119.416 78.7376 120.051 79.3284 121.363 79.3284L123.776 82.1258C123.776 82.1258 123.058 83.0888 123.466 83.6796L108.351 85.8153C108.351 85.8153 107.19 85.1063 106.182 85.1329L104.41 82.5541C104.41 82.5541 106.014 82.3798 105.769 81.3725Z" fill="url(#paint3_linear)"/>
<path d="M72.5281 69.5804L71.9698 67.3975C71.6183 66.1391 70.6524 67.235 69.4767 67.8021L36.3925 83.7534C35.9673 83.9597 35.6241 84.3036 35.4188 84.7293C35.2134 85.155 35.1579 85.6376 35.2612 86.0989L35.6865 87.9864C35.7928 88.4621 36.0625 88.8855 36.4487 89.1828L41.9637 93.4424C42.3339 93.7275 42.7888 93.8807 43.2561 93.8775C43.7234 93.8743 44.1762 93.7149 44.5425 93.4246L71.8103 71.7781C72.1328 71.523 72.3728 71.1784 72.5005 70.7875C72.6282 70.3966 72.6378 69.9767 72.5281 69.5804Z" fill="#4A72CE"/>
<path d="M72.5281 69.5804L71.9698 67.3975C71.6183 66.1391 70.6524 67.235 69.4767 67.8021L36.3925 83.7534C35.9673 83.9597 35.6241 84.3036 35.4188 84.7293C35.2134 85.155 35.1579 85.6376 35.2612 86.0989L35.6865 87.9864C35.7928 88.4621 36.0625 88.8855 36.4487 89.1828L41.9637 93.4424C42.3339 93.7275 42.7888 93.8807 43.2561 93.8775C43.7234 93.8743 44.1762 93.7149 44.5425 93.4246L71.8103 71.7781C72.1328 71.523 72.3728 71.1784 72.5005 70.7875C72.6282 70.3966 72.6378 69.9767 72.5281 69.5804Z" fill="url(#paint4_linear)"/>
<path d="M35.9879 83.588L60.4377 63.5366C60.5789 63.4215 60.7467 63.3436 60.9257 63.3101C61.1048 63.2766 61.2894 63.2884 61.4627 63.3446L71.255 66.5172C71.4426 66.5781 71.6102 66.6889 71.7397 66.8377C71.8691 66.9866 71.9557 67.1679 71.99 67.3621C72.0243 67.5564 72.005 67.7564 71.9344 67.9405C71.8637 68.1247 71.7442 68.2862 71.5888 68.4077L43.866 90.0424C43.6798 90.1875 43.4513 90.268 43.2152 90.2717C42.9791 90.2754 42.7482 90.2022 42.5574 90.063L36.0292 85.3072C35.896 85.2084 35.787 85.0806 35.7107 84.9334C35.6343 84.7862 35.5926 84.6235 35.5886 84.4577C35.5846 84.2919 35.6185 84.1274 35.6877 83.9767C35.7569 83.826 35.8595 83.693 35.9879 83.588Z" fill="#4A72CE"/>
<path d="M35.9879 83.588L60.4377 63.5366C60.5789 63.4215 60.7467 63.3436 60.9257 63.3101C61.1048 63.2766 61.2894 63.2884 61.4627 63.3446L71.255 66.5172C71.4426 66.5781 71.6102 66.6889 71.7397 66.8377C71.8691 66.9866 71.9557 67.1679 71.99 67.3621C72.0243 67.5564 72.005 67.7564 71.9344 67.9405C71.8637 68.1247 71.7442 68.2862 71.5888 68.4077L43.866 90.0424C43.6798 90.1875 43.4513 90.268 43.2152 90.2717C42.9791 90.2754 42.7482 90.2022 42.5574 90.063L36.0292 85.3072C35.896 85.2084 35.787 85.0806 35.7107 84.9334C35.6343 84.7862 35.5926 84.6235 35.5886 84.4577C35.5846 84.2919 35.6185 84.1274 35.6877 83.9767C35.7569 83.826 35.8595 83.693 35.9879 83.588Z" fill="url(#paint5_linear)"/>
<path d="M70.0202 68.6617L69.3467 69.1875L45.3193 87.9067L38.1176 83.1508L37.6745 82.8554L59.1615 65.1525L70.0202 68.6617Z" fill="white"/>
<path opacity="0.13" d="M69.3467 69.1875L45.3193 87.9067L38.1176 83.1508L59.0965 65.8732L69.3467 69.1875Z" fill="#4A72CE"/>
<path d="M51.8417 82.4743L44.0403 78.4275L46.433 76.3243L54.2344 80.3682L51.8417 82.4743Z" fill="#4A72CE"/>
<path d="M51.8417 82.4743L44.0403 78.4275L46.433 76.3243L54.2344 80.3682L51.8417 82.4743Z" fill="url(#paint6_linear)"/>
<path d="M68.171 62.5618L67.3203 62.1985C67.5843 61.6203 67.8802 61.0572 68.2065 60.5118L69.007 60.9756C68.698 61.4878 68.4189 62.0174 68.171 62.5618Z" fill="#4A72CE"/>
<path d="M70.7942 58.32L70.0675 57.7499C70.7553 56.8691 71.5109 56.0434 72.3273 55.2804L72.9565 55.9568C72.1748 56.6866 71.4518 57.4767 70.7942 58.32ZM75.4791 54.0102L74.9888 53.2274C75.9427 52.6213 76.9624 52.1258 78.0284 51.7504L78.3238 52.6366C77.3275 52.9873 76.3733 53.448 75.4791 54.0102ZM84.5832 52.0222C83.5332 51.8839 82.4711 51.8631 81.4166 51.9601L81.3279 51.0415C82.4513 50.9385 83.5825 50.9593 84.7013 51.1035L84.5832 52.0222Z" fill="#4A72CE"/>
<path d="M89.404 53.3603C88.8398 53.124 88.2697 52.9113 87.7084 52.7311L88.0038 51.8449C88.5946 52.034 89.1854 52.2555 89.7762 52.5037L89.404 53.3603Z" fill="#4A72CE"/>
<path d="M89.7555 86.2997L89.4956 83.3546L99.8935 90.7188L134.212 90.9788L133.539 92.822L98.898 93.017L89.7555 86.2997Z" fill="#4A72CE"/>
<path d="M89.7555 86.2997L89.4956 83.3546L99.8935 90.7188L134.212 90.9788L133.539 92.822L98.898 93.017L89.7555 86.2997Z" fill="url(#paint7_linear)"/>
<path d="M150.834 64.5351C150.796 65.6989 150.731 66.8598 150.657 68.0237C150.621 68.6883 150.574 69.3441 150.518 70.0087C150.483 70.4991 150.391 71.0721 149.966 71.3025C149.907 71.3347 149.844 71.3595 149.78 71.3764C149.573 71.4135 149.362 71.4224 149.153 71.403L146.261 71.211C145.32 71.1179 144.371 71.1179 143.429 71.211C141.562 71.4502 139.846 72.4103 137.982 72.623C137.158 72.6909 136.329 72.6849 135.506 72.6052L127.923 72.106C127.274 72.0986 126.631 71.9766 126.024 71.7456C125.719 71.6317 125.449 71.4397 125.242 71.1888C125.035 70.9378 124.897 70.6369 124.842 70.3159C124.795 69.861 124.969 69.4091 124.934 68.9483C124.938 68.9298 124.938 68.9106 124.934 68.8921C124.804 67.6633 123.188 66.6678 123.679 65.5305C123.788 65.2647 124.018 65.0343 124.027 64.7478C124.013 64.5145 123.926 64.2915 123.779 64.1097C123.354 63.4273 122.949 62.6327 123.123 61.8381C123.253 61.2739 123.658 60.7658 123.64 60.1957C123.614 59.54 123.049 59.0142 122.976 58.3672C122.902 57.7203 123.41 57.0291 124.036 56.7308C124.683 56.4783 125.375 56.3626 126.068 56.3911L129.708 56.2788C130.298 56.2611 130.972 56.2256 131.415 55.8091C131.95 55.3099 131.941 54.4503 131.71 53.768C131.48 53.0856 131.046 52.4741 130.824 51.7829C130.657 51.2221 130.629 50.6291 130.742 50.0549C130.854 49.4807 131.105 48.9424 131.471 48.4863C131.592 48.3218 131.754 48.1915 131.941 48.1082C132.597 47.8689 133.143 48.6429 133.418 49.2898C134.459 51.6641 135.923 53.8292 137.739 55.6792C140.036 57.9094 142.917 59.4453 146.049 60.1101C146.962 60.3109 148.291 60.1839 149.345 60.3316C149.653 60.3646 149.952 60.4484 150.232 60.5797C151.443 61.1735 150.87 63.4717 150.834 64.5351Z" fill="#FDB386"/>
<path d="M165.146 67.5156C165.146 67.7578 165.116 67.9971 165.099 68.2364C165.072 68.6972 165.034 69.1609 164.989 69.6129C164.835 70.0604 164.586 70.4695 164.26 70.8122C163.427 71.6245 162.192 71.6984 161.072 71.6984C157.49 71.7456 153.908 71.6472 150.326 71.403C150.14 71.403 149.957 71.3734 149.78 71.3557C149.29 71.3206 148.818 71.1621 148.406 70.8949C147.546 70.2746 147.316 69.0753 147.159 67.9941C146.843 65.9087 146.53 63.7464 147.029 61.6963C147.071 61.4815 147.142 61.2737 147.242 61.079C147.328 60.883 147.461 60.7114 147.629 60.5797C147.945 60.3961 148.307 60.3097 148.672 60.3316C148.902 60.3316 149.136 60.3316 149.366 60.3316C151.986 60.3021 154.609 60.562 157.232 60.5059C158.705 60.4921 160.172 60.3248 161.61 60.0067C162.31 59.8501 164.074 58.8517 165.043 58.7778C165.265 61.6852 165.3 64.6038 165.146 67.5156Z" fill="#FDB386"/>
<path d="M165.099 68.2364C165.072 68.6972 165.034 69.1609 164.989 69.6129C164.835 70.0604 164.586 70.4695 164.26 70.8122C163.427 71.6245 162.192 71.6984 161.073 71.6984C157.49 71.7456 153.908 71.6472 150.326 71.403C150.14 71.403 149.957 71.3734 149.78 71.3557C149.573 71.3928 149.362 71.4017 149.153 71.3823L146.261 71.1903C145.319 71.0972 144.371 71.0972 143.429 71.1903C141.562 71.4296 139.846 72.3896 137.982 72.6023C137.158 72.6702 136.329 72.6643 135.506 72.5845L127.923 72.0853C127.274 72.0779 126.631 71.9559 126.024 71.725C125.719 71.611 125.449 71.419 125.242 71.1681C125.035 70.9172 124.897 70.6162 124.842 70.2952C124.795 69.8403 124.969 69.3884 124.934 68.9276C124.938 68.9091 124.938 68.8899 124.934 68.8714C126.503 70.2391 128.801 70.248 130.898 70.183C134.537 70.0737 138.203 69.9615 141.73 69.0664C141.508 68.5298 141.439 67.9423 141.53 67.3689C141.622 66.7954 141.87 66.2584 142.247 65.8171C142.578 65.439 143.003 65.1524 143.364 64.8039C144.129 64.0447 144.563 63.0315 145.266 62.1985C145.756 61.5849 146.464 61.1847 147.242 61.0819C147.536 61.06 147.831 61.1139 148.099 61.2385C149.21 61.7731 149.319 63.2885 149.254 64.5173C149.189 65.7462 149.227 67.232 150.297 67.8494C150.41 67.9149 150.531 67.9674 150.657 68.0059C151.06 68.1146 151.477 68.1673 151.895 68.1625C155.247 68.2482 158.6 68.2364 161.959 68.1448C163.006 68.0923 164.056 68.123 165.099 68.2364Z" fill="url(#paint8_linear)"/>
<path d="M32.3781 66.9721C34.3767 66.6913 36.4104 66.7915 38.3717 67.2675C39.8351 67.6824 41.2196 68.3372 42.4688 69.2053C45.8751 71.4856 48.6249 74.6183 50.4444 78.2916C50.7132 78.841 50.9082 79.6209 50.4031 79.9665C49.9688 80.2619 49.3928 79.9665 48.9615 79.6711C47.0799 78.3832 40.7821 71.9908 36.2744 74.0734C36.1503 75.0423 37.4028 76.9594 37.5534 77.9135C37.6863 78.779 36.9922 79.5972 36.1739 79.9074C35.3557 80.2176 34.4518 80.1378 33.5833 80.0462C31.0902 79.7863 28.6059 80.0639 26.098 80.0049C20.2433 79.8719 16.6011 75.6567 16.9408 73.4589C17.251 71.6423 21.8503 68.2748 32.3781 66.9721Z" fill="#FDB386"/>
<path d="M99.3735 78.4156L115.493 73.1281L120.692 79.6268L102.366 84.0488L99.3735 78.4156Z" fill="#4A72CE"/>
<path d="M21.7204 76.9446C21.4928 78.0584 21.0339 79.1121 20.3734 80.0374C19.616 79.8828 18.8325 79.9142 18.09 80.1289C16.9734 80.4243 15.8745 81.0151 14.8406 81.5616C12.3409 82.9085 9.77014 84.1194 7.13972 85.189C6.65232 85.3928 6.14424 85.5878 5.6273 85.7532C4.97152 83.1685 3.89038 80.8024 2.8565 78.4304C2.17148 76.9175 1.56414 75.3705 1.03687 73.7957C0.806465 73.0749 0.593781 72.3453 0.42836 71.5891C4.65545 69.8522 11.5115 71.1371 15.1006 70.3868C16.1123 70.1573 17.1103 69.8713 18.09 69.5302C19.1322 69.1567 20.2004 68.8605 21.2861 68.644C21.8031 71.3587 22.2846 74.3215 21.7204 76.9446Z" fill="#4A72CE"/>
<path d="M21.7204 76.9446C21.4928 78.0584 21.0339 79.1121 20.3734 80.0374C18.4622 79.612 16.5687 80.6281 14.8495 81.5616C12.3497 82.9085 9.77901 84.1194 7.14859 85.189C6.66119 85.3928 6.15311 85.5878 5.63617 85.7532C4.98039 83.1685 3.89925 80.8024 2.86537 78.4304C4.50176 79.0034 6.23644 79.2425 7.96683 79.1334C10.46 79.0212 12.897 78.4127 15.3517 77.9519C17.4638 77.5354 19.5965 77.24 21.7204 76.9446Z" fill="url(#paint9_linear)"/>
<path d="M97.5125 50.2055L101.964 51.7002C101.964 51.7002 101.373 53.0974 102.094 53.7473C102.094 53.7473 96.9926 61.2532 92.7035 63.0729C92.7035 63.0729 92.0862 62.3905 90.1366 62.5855L87.0792 60.2784C87.0792 60.2784 88.2194 59.7261 87.9654 58.8487C87.9654 58.8487 94.1066 55.7294 95.7963 51.5702C95.7904 51.5702 97.5125 51.8302 97.5125 50.2055Z" fill="url(#paint10_linear)"/>
<path d="M106.12 60.3671L109.878 62.1778C109.878 62.1778 109.207 63.3594 109.768 64.0004C109.768 64.0004 104.434 70.0737 100.443 71.208C100.443 71.208 99.9702 70.5375 98.2274 70.4961L95.7816 68.133C95.7816 68.133 96.8479 67.7697 96.715 66.9514C96.715 66.9514 102.484 64.8837 104.437 61.3832C104.448 61.3832 105.94 61.8027 106.12 60.3671Z" fill="url(#paint11_linear)"/>
<path d="M102.257 78.2827L113.567 74.7085C113.809 74.883 114.082 75.0074 114.373 75.0743C114.663 75.1413 114.963 75.1495 115.257 75.0984L117.531 77.6328C117.531 77.6328 117.012 78.6726 117.401 79.1925L104.815 82.4212C104.815 82.4212 103.775 81.8304 102.927 81.9663L101.217 79.5824C101.217 79.5824 102.549 79.2487 102.257 78.2827Z" fill="url(#paint12_linear)"/>
<path d="M21.7203 76.9446C21.4928 78.0584 21.0339 79.1121 20.3733 80.0374C19.616 79.8828 18.8325 79.9142 18.0899 80.1289V69.5302C19.1321 69.1567 20.2004 68.8605 21.2861 68.644C21.803 71.3587 22.2845 74.3215 21.7203 76.9446Z" fill="url(#paint13_linear)"/>
<path d="M148.452 59.7184L146.042 59.5448C145.437 59.5012 144.911 59.9566 144.867 60.5619L144.151 70.5086C144.107 71.1139 144.563 71.64 145.168 71.6836L147.578 71.8572C148.183 71.9008 148.709 71.4454 148.753 70.8401L149.47 60.8934C149.513 60.2881 149.058 59.762 148.452 59.7184Z" fill="#4A72CE"/>
<path d="M148.452 59.7184L146.042 59.5448C145.437 59.5012 144.911 59.9566 144.867 60.5619L144.151 70.5086C144.107 71.1139 144.563 71.64 145.168 71.6836L147.578 71.8572C148.183 71.9008 148.709 71.4454 148.753 70.8401L149.47 60.8934C149.513 60.2881 149.058 59.762 148.452 59.7184Z" fill="url(#paint14_linear)"/>
<path d="M146.616 69.5745C148.716 69.5745 150.418 67.8724 150.418 65.7728C150.418 63.6731 148.716 61.971 146.616 61.971C144.516 61.971 142.814 63.6731 142.814 65.7728C142.814 67.8724 144.516 69.5745 146.616 69.5745Z" fill="#4A72CE"/>
<path d="M146.616 69.5745C148.716 69.5745 150.418 67.8724 150.418 65.7728C150.418 63.6731 148.716 61.971 146.616 61.971C144.516 61.971 142.814 63.6731 142.814 65.7728C142.814 67.8724 144.516 69.5745 146.616 69.5745Z" fill="url(#paint15_linear)"/>
<path d="M146.589 69.0546C148.389 69.0546 149.848 67.5959 149.848 65.7964C149.848 63.997 148.389 62.5382 146.589 62.5382C144.79 62.5382 143.331 63.997 143.331 65.7964C143.331 67.5959 144.79 69.0546 146.589 69.0546Z" fill="#4A72CE"/>
<path d="M146.589 69.0546C148.389 69.0546 149.848 67.5959 149.848 65.7964C149.848 63.997 148.389 62.5382 146.589 62.5382C144.79 62.5382 143.331 63.997 143.331 65.7964C143.331 67.5959 144.79 69.0546 146.589 69.0546Z" fill="url(#paint16_linear)"/>
<path d="M139.834 46.835V45.745C139.251 45.7447 138.68 45.581 138.185 45.2724L138.442 44.5516C138.909 44.8524 139.453 45.0124 140.008 45.0125C140.773 45.0125 141.29 44.5723 141.29 43.9579C141.29 43.3435 140.868 42.9979 140.073 42.6759C138.971 42.2446 138.301 41.7484 138.301 40.812C138.301 39.8756 138.936 39.2375 139.925 39.075V37.988H140.596V39.0337C141.087 39.0367 141.569 39.1658 141.996 39.4088L141.727 40.1207C141.316 39.8762 140.846 39.7494 140.368 39.7545C139.538 39.7545 139.225 40.2507 139.225 40.682C139.225 41.2432 139.624 41.5209 140.563 41.9108C141.671 42.3628 142.232 42.924 142.232 43.8811C142.232 44.7348 141.641 45.5294 140.531 45.7126V46.835H139.834Z" fill="#4A72CE"/>
<path d="M118.997 52.4416V51.8509C118.683 51.8506 118.376 51.7626 118.11 51.5968L118.249 51.2098C118.497 51.371 118.786 51.4572 119.082 51.458C119.493 51.458 119.771 51.2217 119.771 50.8938C119.771 50.5659 119.543 50.3768 119.115 50.2055C118.524 49.9721 118.164 49.7063 118.164 49.2041C118.167 48.9685 118.258 48.7426 118.42 48.5706C118.581 48.3985 118.8 48.2927 119.035 48.2736V47.6828H119.392V48.2441C119.657 48.247 119.916 48.3171 120.146 48.4479L120.001 48.829C119.781 48.6962 119.528 48.6276 119.271 48.6311C118.828 48.6311 118.66 48.8969 118.66 49.1303C118.66 49.4257 118.873 49.5793 119.375 49.789C119.965 50.0312 120.261 50.3325 120.261 50.8465C120.256 51.0937 120.16 51.3304 119.992 51.5113C119.823 51.6922 119.594 51.8047 119.348 51.8272V52.418L118.997 52.4416Z" fill="#4A72CE"/>
<path d="M138.859 81.5734V80.9826C138.546 80.9817 138.239 80.8938 137.973 80.7286L138.112 80.3416C138.36 80.5025 138.649 80.5886 138.945 80.5898C139.355 80.5898 139.633 80.3534 139.633 80.0226C139.633 79.6917 139.405 79.5086 138.98 79.3343C138.389 79.1039 138.026 78.8381 138.026 78.3359C138.029 78.0997 138.12 77.8731 138.281 77.7005C138.442 77.5278 138.662 77.4216 138.897 77.4024V76.8117H139.258V77.3729C139.521 77.3754 139.779 77.4445 140.008 77.5738L139.863 77.9548C139.643 77.8252 139.392 77.7578 139.137 77.7599C138.691 77.7599 138.522 78.0257 138.522 78.2561C138.522 78.5515 138.735 78.7081 139.24 78.9149C139.831 79.1571 140.126 79.4584 140.126 79.9724C140.122 80.22 140.027 80.4575 139.858 80.639C139.69 80.8206 139.46 80.9335 139.213 80.956V81.5468L138.859 81.5734Z" fill="#4A72CE"/>
</g>
<defs>
<linearGradient id="paint0_linear" x1="50.0811" y1="75.2283" x2="50.8491" y2="144.144" gradientUnits="userSpaceOnUse">
<stop stop-color="#010101" stop-opacity="0"/>
<stop offset="0.95" stop-color="#010101"/>
</linearGradient>
<linearGradient id="paint1_linear" x1="21269.8" y1="2589.82" x2="21276.9" y2="5815.08" gradientUnits="userSpaceOnUse">
<stop stop-color="#010101" stop-opacity="0"/>
<stop offset="0.95" stop-color="#010101"/>
</linearGradient>
<linearGradient id="paint2_linear" x1="2319.27" y1="2024.38" x2="2231.02" y2="1612.28" gradientUnits="userSpaceOnUse">
<stop stop-color="#010101" stop-opacity="0"/>
<stop offset="0.95" stop-color="#010101"/>
</linearGradient>
<linearGradient id="paint3_linear" x1="8474.05" y1="2950.81" x2="8439.1" y2="3720.57" gradientUnits="userSpaceOnUse">
<stop stop-color="#010101" stop-opacity="0"/>
<stop offset="0.95" stop-color="#010101"/>
</linearGradient>
<linearGradient id="paint4_linear" x1="7442.84" y1="8835.51" x2="6882.22" y2="6164.42" gradientUnits="userSpaceOnUse">
<stop stop-color="#010101" stop-opacity="0"/>
<stop offset="0.95" stop-color="#010101"/>
</linearGradient>
<linearGradient id="paint5_linear" x1="7196.87" y1="7678.23" x2="3143.13" y2="4991.94" gradientUnits="userSpaceOnUse">
<stop stop-color="#010101" stop-opacity="0"/>
<stop offset="0.95" stop-color="#010101"/>
</linearGradient>
<linearGradient id="paint6_linear" x1="1790.69" y1="1673.5" x2="1727.53" y2="1833.93" gradientUnits="userSpaceOnUse">
<stop stop-color="#010101" stop-opacity="0"/>
<stop offset="0.95" stop-color="#010101"/>
</linearGradient>
<linearGradient id="paint7_linear" x1="17075.2" y1="2859.83" x2="17051.4" y2="3440.17" gradientUnits="userSpaceOnUse">
<stop stop-color="#010101" stop-opacity="0"/>
<stop offset="0.95" stop-color="#010101"/>
</linearGradient>
<linearGradient id="paint8_linear" x1="19982.9" y1="2406.26" x2="19992.6" y2="5075.04" gradientUnits="userSpaceOnUse">
<stop stop-color="#010101" stop-opacity="0"/>
<stop offset="0.95" stop-color="#010101"/>
</linearGradient>
<linearGradient id="paint9_linear" x1="835.314" y1="2513.24" x2="892.559" y2="3295.38" gradientUnits="userSpaceOnUse">
<stop stop-color="#010101" stop-opacity="0"/>
<stop offset="0.95" stop-color="#010101"/>
</linearGradient>
<linearGradient id="paint10_linear" x1="4656.1" y1="2402.1" x2="5527.25" y2="3677.48" gradientUnits="userSpaceOnUse">
<stop stop-color="#010101" stop-opacity="0"/>
<stop offset="0.95" stop-color="#010101"/>
</linearGradient>
<linearGradient id="paint11_linear" x1="4817.87" y1="2334.59" x2="5305.76" y2="3411.58" gradientUnits="userSpaceOnUse">
<stop stop-color="#010101" stop-opacity="0"/>
<stop offset="0.95" stop-color="#010101"/>
</linearGradient>
<linearGradient id="paint12_linear" x1="6114.95" y1="2058.5" x2="6182.35" y2="2838.7" gradientUnits="userSpaceOnUse">
<stop stop-color="#010101" stop-opacity="0"/>
<stop offset="0.95" stop-color="#010101"/>
</linearGradient>
<linearGradient id="paint13_linear" x1="308.334" y1="2846.96" x2="-100.325" y2="3576.62" gradientUnits="userSpaceOnUse">
<stop stop-color="#010101" stop-opacity="0"/>
<stop offset="0.95" stop-color="#010101"/>
</linearGradient>
<linearGradient id="paint14_linear" x1="2360.79" y1="2872.89" x2="2554.7" y2="2902.65" gradientUnits="userSpaceOnUse">
<stop stop-color="#010101" stop-opacity="0"/>
<stop offset="0.95" stop-color="#010101"/>
</linearGradient>
<linearGradient id="paint15_linear" x1="3916.72" y1="1437.06" x2="3916.72" y2="1928.93" gradientUnits="userSpaceOnUse">
<stop stop-color="#010101" stop-opacity="0"/>
<stop offset="0.95" stop-color="#010101"/>
</linearGradient>
<linearGradient id="paint16_linear" x1="143.334" y1="65.7964" x2="149.848" y2="65.7964" gradientUnits="userSpaceOnUse">
<stop stop-color="white" stop-opacity="0"/>
<stop offset="0.13" stop-color="white" stop-opacity="0.23"/>
<stop offset="0.23" stop-color="white" stop-opacity="0.41"/>
<stop offset="0.35" stop-color="white" stop-opacity="0.59"/>
<stop offset="0.48" stop-color="white" stop-opacity="0.74"/>
<stop offset="0.6" stop-color="white" stop-opacity="0.85"/>
<stop offset="0.72" stop-color="white" stop-opacity="0.93"/>
<stop offset="0.84" stop-color="white" stop-opacity="0.98"/>
<stop offset="0.95" stop-color="white"/>
</linearGradient>
<clipPath id="clip0">
<rect width="165.241" height="130" fill="white" transform="translate(0 0.422729)"/>
</clipPath>
</defs>
</svg>
