<svg width="164" height="131" viewBox="0 0 164 131" fill="none" xmlns="http://www.w3.org/2000/svg">
<g clip-path="url(#clip0)">
<path opacity="0.18" d="M27.6436 126.81C21.7013 125.835 16.1073 123.355 11.3936 119.608C5.84959 115.242 -0.185505 109.36 2.20886e-05 102.059C0.196463 94.3213 3.0885 86.8675 6.22064 79.8938C10.455 70.4756 16.3482 60.5444 14.7876 50.0567C13.227 39.569 15.3224 27.0186 20.8445 18.1351C29.5752 4.14418 44.8539 0.750123 60.1327 0.422722C70.2275 0.215368 80.617 0.815604 89.817 4.9736C99.4862 9.33894 107.278 17.4148 117.1 21.1581C123.648 23.6245 130.808 24.1156 137.214 26.8876C145.279 30.3908 151.499 37.3317 155.526 45.1457C159.553 52.9597 161.605 61.6358 163.166 70.2464C165.719 84.8048 159.652 102.987 150.91 114.904C145.082 122.827 135.326 132.005 125.296 130.084C74.2327 120.393 84.0438 135.967 27.6436 126.81Z" fill="#4A72CE"/>
<path d="M96.5833 23.6027L130.797 28.1536L106.755 30.7073L96.5833 23.6027Z" fill="#4A72CE"/>
<path d="M106.755 30.7073L108.577 41.4461L111.491 32.5298L130.797 28.1536L106.755 30.7073Z" fill="#4A72CE"/>
<path d="M106.755 30.7073L108.577 41.4461L111.491 32.5298L130.797 28.1536L106.755 30.7073Z" fill="url(#paint0_linear)"/>
<path d="M118.77 42.3628L111.491 32.5298L130.797 28.1536L118.77 42.3628Z" fill="#4A72CE"/>
<path d="M108.577 41.4461L115.573 38.0302L111.491 32.5299L108.577 41.4461Z" fill="white"/>
<path opacity="0.59" d="M108.577 41.4461L115.573 38.0302L111.491 32.5299L108.577 41.4461Z" fill="#4A72CE"/>
<path d="M102.804 42.4832L102.487 41.0532C102.857 40.9805 103.221 40.8857 103.579 40.7694L104.081 42.1339C103.663 42.2779 103.237 42.3946 102.804 42.4832Z" fill="#4A72CE"/>
<path d="M58.4738 109.022C57.6771 108.76 56.9023 108.498 56.1492 108.214L56.6513 106.85C57.3825 107.123 58.1464 107.385 58.9212 107.636L58.4738 109.022ZM51.5984 106.304C50.8344 105.933 50.0923 105.551 49.4157 105.213L50.1032 103.892C50.769 104.263 51.4783 104.634 52.2204 104.984L51.5984 106.304ZM110.531 105.409H108.075V103.947L110.487 104.012L110.531 105.409ZM115.442 105.322L115.365 103.871C116.184 103.871 116.991 103.772 117.766 103.696L117.886 105.147C117.122 105.224 116.304 105.278 115.463 105.322H115.442ZM103.197 104.984L100.763 104.733L100.927 103.281C101.734 103.379 102.531 103.456 103.328 103.532L103.197 104.984ZM122.841 104.46L122.59 103.03C123.386 102.888 124.183 102.725 124.936 102.55L125.264 103.969C124.445 104.198 123.627 104.362 122.797 104.503L122.841 104.46ZM130.011 102.539L129.498 101.186C130.262 100.891 130.993 100.586 131.681 100.258L132.314 101.568C131.539 101.961 130.764 102.288 129.967 102.583L130.011 102.539ZM45.3123 102.343C44.6588 101.815 44.0392 101.246 43.457 100.64L44.5483 99.6361C45.0897 100.199 45.6655 100.727 46.2727 101.219L45.3123 102.343ZM136.592 98.9595L135.697 97.8027C136.079 97.508 136.45 97.1915 136.788 96.8641L137.41 96.253L138.425 97.2897L137.748 97.9336C137.41 98.3265 136.963 98.6757 136.548 99.0031L136.592 98.9595ZM40.554 96.4712C40.1826 95.7025 39.8901 94.8981 39.681 94.0703L41.0997 93.7538C41.262 94.5062 41.5073 95.2382 41.8309 95.9365L40.554 96.4712ZM67.7283 96.122L65.382 95.1616L65.9713 93.8302C66.7025 94.1467 67.4446 94.4632 68.1539 94.7688L67.7283 96.122ZM141.743 93.5137L140.553 92.6734C141 92.0387 141.405 91.3752 141.765 90.6872L143.052 91.3529C142.648 92.1179 142.193 92.8544 141.688 93.5574L141.743 93.5137ZM60.9839 93.099C60.2418 92.7389 59.5106 92.3678 58.8012 92.0077L59.456 90.7963C60.1654 91.1674 60.8856 91.5384 61.6387 91.8876L60.9839 93.099ZM54.4686 89.705C53.7592 89.2903 53.0499 88.8646 52.3732 88.4281L53.1481 87.1949C53.8138 87.6205 54.5122 88.0461 55.2107 88.4608L54.4686 89.705ZM41.0452 89.2793L39.6155 89.0065C39.7838 88.1746 40.0174 87.3572 40.314 86.5619L41.6781 87.0639C41.4199 87.7677 41.2156 88.49 41.067 89.2248L41.0452 89.2793ZM144.504 86.5728L143.052 86.42C143.094 86.0577 143.116 85.6934 143.118 85.3287C143.117 84.964 143.095 84.5996 143.052 84.2374L144.504 84.0846C144.547 84.5088 144.569 84.935 144.569 85.3614C144.572 85.7475 144.558 86.1335 144.526 86.5183L144.504 86.5728ZM48.3025 85.6779C47.6368 85.1868 46.9711 84.6957 46.3381 84.1937L47.233 83.0478C47.8551 83.5389 48.499 84.0191 49.1538 84.4993L48.3025 85.6779ZM43.8826 82.8732L42.6712 82.0656C43.1296 81.3999 43.6316 80.7342 44.1664 80.0685L45.2577 80.9852C44.7884 81.6072 44.3082 82.2511 43.8826 82.8732ZM42.6167 80.9743C42.0055 80.4068 41.4162 79.8175 40.8596 79.239L41.951 78.2241C42.4966 78.7916 43.0423 79.3154 43.6534 79.9157L42.6167 80.9743ZM141.699 79.8065C141.334 79.1239 140.922 78.4676 140.466 77.8421L141.645 76.98C142.14 77.6768 142.589 78.406 142.987 79.1626L141.699 79.8065ZM48.5645 77.5147L47.5713 76.4234C48.1607 75.8777 48.7827 75.3321 49.4266 74.7864L50.3542 75.8777C49.7322 76.4452 49.132 76.98 48.5645 77.5147ZM37.6511 75.4194C37.1491 74.7427 36.6689 74.0552 36.2433 73.3677L37.4765 72.5928C37.8803 73.2476 38.3386 73.9024 38.8188 74.5463L37.6511 75.4194ZM137.29 74.328C136.734 73.8151 136.122 73.3022 135.478 72.8002L136.373 71.7088C137.05 72.2327 137.683 72.8002 138.272 73.3131L137.29 74.328ZM54.1739 73.0184L53.3773 71.818C54.043 71.3596 54.7414 70.9012 55.429 70.4538L56.2147 71.687C55.5599 72.1126 54.8287 72.5601 54.1739 73.0184ZM131.539 70.0609C130.873 69.6462 130.175 69.2424 129.465 68.8495L130.175 67.5727C130.906 67.9765 131.626 68.4021 132.303 68.8168L131.539 70.0609ZM60.3291 69.2533L59.6415 67.9764C60.3509 67.5836 61.093 67.2016 61.8242 66.8851L62.479 68.1947C61.7587 68.4785 61.0166 68.8604 60.3291 69.2424V69.2533ZM33.9624 68.9696C33.6568 68.1838 33.384 67.3762 33.1657 66.5905L34.5735 66.2085C34.7809 66.9397 35.0319 67.6927 35.3156 68.3912L33.9624 68.9696ZM125.176 66.6887L122.994 65.7174L123.561 64.375C124.314 64.7024 125.078 65.0298 125.809 65.3682L125.176 66.6887ZM66.8443 66.1321L66.2768 64.7897C67.019 64.4733 67.7938 64.1568 68.5468 63.8621L69.0816 65.2154C68.3395 65.4664 67.5646 65.7829 66.8443 66.0994V66.1321ZM118.475 63.9494C117.722 63.6875 116.959 63.4256 116.184 63.1746L116.631 61.7886C117.417 62.0396 118.203 62.3124 118.956 62.5743L118.475 63.9494ZM73.6215 63.5129L73.1632 62.1269C73.9489 61.8759 74.7347 61.6249 75.5205 61.3957L75.9352 62.7926C75.204 63.0545 74.3855 63.2946 73.6215 63.5129ZM111.545 61.7777C110.771 61.5812 109.974 61.3848 109.199 61.2102L109.527 59.7914C110.312 59.966 111.12 60.1625 111.917 60.3698L111.545 61.7777ZM32.4345 61.5703C32.4345 61.1774 32.4345 60.7955 32.4345 60.4135C32.4345 60.0315 32.4345 59.5186 32.4345 59.0821L33.886 59.1475C33.886 59.5622 33.886 59.977 33.886 60.4135C33.886 60.85 33.886 61.1447 33.886 61.5048L32.4345 61.5703ZM80.5952 61.5703L80.2678 60.2389C81.0644 60.0534 81.872 59.8787 82.6687 59.715L82.9525 61.1447C82.1667 61.2429 81.37 61.4175 80.5952 61.5921V61.5703ZM104.474 60.3044L103.579 60.2389L102.116 60.0643L102.269 58.6128L103.786 58.7983L104.714 58.9402L104.474 60.3044ZM87.7107 60.3044L87.5142 58.8638C88.3327 58.7547 89.1512 58.6674 89.9588 58.591L90.1007 60.0315C89.304 60.097 88.5074 60.2389 87.7107 60.2934V60.3044ZM94.9026 59.7369V58.2854C95.7211 58.2854 96.5396 58.2854 97.3581 58.2854V59.7478C96.5069 59.7041 95.6993 59.715 94.9026 59.7259V59.7369ZM34.4971 54.4875L33.0784 54.171C33.253 53.3525 33.4822 52.545 33.7332 51.7592L35.1192 52.2176C34.8709 52.9624 34.6632 53.7202 34.4971 54.4875ZM37.029 47.9395L35.774 47.2083C36.1967 46.4871 36.6556 45.7877 37.1491 45.113L38.3277 45.9751C37.8514 46.6011 37.4106 47.2533 37.0072 47.9286L37.029 47.9395ZM97.7728 42.8866C96.9352 42.8443 96.1007 42.7532 95.2736 42.6138L95.5137 41.1732C96.2868 41.3036 97.0665 41.391 97.8492 41.4352L97.7728 42.8866ZM41.4817 42.4719L40.4995 41.3806C41.1106 40.8349 41.7545 40.2892 42.4311 39.7872L43.3042 40.955C42.6712 41.4461 42.0492 41.9481 41.4817 42.4719ZM90.4827 41.1951C89.71 40.8735 88.9558 40.5092 88.2236 40.1037L88.9221 38.8269C89.6104 39.2003 90.317 39.539 91.0393 39.8418L90.4827 41.1951ZM47.3203 38.4121L46.6328 37.1244C47.3531 36.7533 48.1061 36.3823 48.8155 36.033L49.4048 37.3645C48.7282 37.7137 47.997 38.0629 47.3203 38.4121ZM84.0765 37.3208C83.4541 36.8954 82.7927 36.53 82.1012 36.2295L82.7124 34.909C83.4777 35.2665 84.2083 35.694 84.895 36.1858L84.0765 37.3208ZM53.9447 35.7275L53.5191 34.3305C54.294 34.1014 55.1016 33.8831 55.9092 33.6757L56.2475 35.0945C55.4726 35.28 54.6978 35.4983 53.9447 35.7275ZM77.6267 34.7125C76.8846 34.5379 76.0989 34.3851 75.2913 34.2542L75.5205 32.8245C76.3608 32.9555 77.1793 33.1192 77.9651 33.3047L77.6267 34.7125ZM61.0166 34.1887L60.8092 32.7481C61.6168 32.639 62.4463 32.5408 63.2648 32.4644L63.3957 33.9158C62.5445 34.0468 61.7478 34.0468 61.0166 34.1887ZM70.5876 33.7631C69.8019 33.7631 68.9943 33.6976 68.1867 33.6976V32.2461C69.0161 32.2461 69.8455 32.2461 70.6531 32.3116L70.5876 33.7631Z" fill="#4A72CE"/>
<path d="M64.4218 110.714L63.1993 110.441L63.5595 109.022C63.9525 109.131 64.3345 109.229 64.7275 109.316L64.4218 110.714Z" fill="#4A72CE"/>
<path d="M79.7003 52.3376C79.6667 52.8295 79.5524 53.3125 79.362 53.7673C79.196 54.0201 78.9756 54.2326 78.7169 54.3894C78.4582 54.5461 78.1678 54.643 77.8668 54.6731C77.2666 54.7713 76.6555 54.7276 76.0552 54.7822C75.455 54.8368 74.8002 55.186 74.8657 55.7426C74.8965 55.9133 74.9676 56.0741 75.073 56.2118L75.8042 57.4451C75.8989 57.5659 75.9455 57.7175 75.9352 57.8707C75.9352 58.078 75.6623 58.1872 75.4659 58.2745C74.971 58.5268 74.534 58.8792 74.1827 59.3095C73.8314 59.7397 73.5734 60.2383 73.4251 60.7736C73.1273 61.8447 73.1273 62.9766 73.4251 64.0476C73.4342 64.1226 73.4582 64.195 73.4957 64.2606C73.5332 64.3262 73.5834 64.3837 73.6434 64.4296C73.7436 64.4841 73.8567 64.5105 73.9708 64.506C74.3133 64.5642 74.6406 64.6909 74.9331 64.8784C75.2256 65.0659 75.4773 65.3104 75.6733 65.5973C76.0521 66.1927 76.3911 66.8125 76.6882 67.4526C77.5059 68.9862 78.7001 70.2866 80.1587 71.2316C81.6172 72.1767 83.2922 72.7352 85.026 72.8547C85.3099 72.8827 85.5965 72.8492 85.8663 72.7565C86.1892 72.5932 86.4498 72.3287 86.6084 72.0035C87.3615 70.6284 87.1432 68.9805 87.1978 67.4744C87.1945 66.727 87.3353 65.9859 87.6125 65.2918C87.7871 64.8989 87.9508 64.8771 88.2018 64.6479C88.3213 64.5692 88.4196 64.4624 88.4881 64.3368C88.5566 64.2112 88.5932 64.0707 88.5947 63.9276C88.5366 63.5564 88.4453 63.1911 88.3218 62.8363C88.2314 62.1505 88.386 61.4548 88.7584 60.8719C89.1281 60.3012 89.4669 59.711 89.7733 59.1039C89.9862 58.5396 90.1185 57.9481 90.1662 57.3468C90.4778 55.8126 90.2177 54.2173 89.435 52.8615C89.1288 52.4283 88.734 52.0651 88.2768 51.7961C87.8196 51.527 87.3104 51.3582 86.7831 51.3008C86.3501 51.2883 85.9191 51.2372 85.4953 51.148C84.8514 50.9407 84.6331 50.275 83.9565 50.0567C83.3708 49.8523 82.7399 49.8145 82.134 49.9476C81.5435 50.0744 81.0013 50.3664 80.5704 50.7896C80.1396 51.2127 79.8378 51.7496 79.7003 52.3376Z" fill="#FC682D"/>
<path d="M82.9852 117.927C83.3846 118.275 83.7271 118.684 84.0002 119.138C84.0539 119.223 84.077 119.323 84.0657 119.422C84.0657 119.575 83.8583 119.662 83.6946 119.706C83.018 119.88 82.3025 119.824 81.6618 119.545C81.021 119.266 80.492 118.781 80.1587 118.167C79.6534 117.443 79.3795 116.583 79.3729 115.701L79.5585 114.282C79.5809 114.061 79.6322 113.845 79.7112 113.638C79.8166 113.436 79.9528 113.252 80.115 113.092C80.3845 112.788 80.7108 112.54 81.0754 112.361C81.1178 112.346 81.164 112.346 81.2064 112.361C81.2937 112.361 81.3373 112.47 81.3592 112.547C81.42 112.911 81.3976 113.284 81.2937 113.638C81.1666 114.678 81.4101 115.729 81.9812 116.606C82.2572 117.088 82.5948 117.532 82.9852 117.927Z" fill="#F89659"/>
<path d="M86.6413 109.895C86.662 110.005 86.7067 110.11 86.7723 110.201C86.8297 110.276 86.9046 110.336 86.9906 110.375C87.363 110.53 87.7699 110.583 88.1695 110.528C88.6607 110.528 89.141 110.43 89.6213 110.354C89.7579 110.355 89.8927 110.322 90.013 110.257C90.1332 110.192 90.2351 110.098 90.3089 109.983C90.3442 109.853 90.3342 109.715 90.2806 109.592C90.227 109.469 90.1331 109.368 90.0142 109.306C89.7762 109.184 89.5166 109.11 89.2501 109.087C88.9815 109.053 88.7319 108.93 88.5406 108.738C88.2677 108.4 88.3878 107.865 88.104 107.537C87.9298 107.407 87.727 107.32 87.5124 107.284C87.2979 107.248 87.0778 107.264 86.8705 107.33C85.9864 107.603 86.4557 109.273 86.6413 109.895Z" fill="#F89659"/>
<path d="M90.4827 96.8969C90.4281 97.1261 90.3845 97.3552 90.3408 97.5844C89.8497 100.422 89.2495 103.248 88.6929 106.075C88.6236 106.697 88.3731 107.285 87.9726 107.767C87.8632 107.902 87.7228 108.01 87.5633 108.08C87.4038 108.15 87.2298 108.181 87.0559 108.17H86.9577C86.4993 108.018 86.2374 107.374 86.2374 106.73L86.4775 95.1616C86.5152 95.026 86.5152 94.8826 86.4775 94.7469C86.3872 94.6242 86.2669 94.5265 86.1283 94.4632C85.8009 94.2886 85.4844 94.1031 85.1679 93.9175C84.1966 93.3609 83.2471 92.7607 82.3195 92.1386C81.0754 91.2983 79.864 90.4143 78.6963 89.4649C77.8477 88.948 77.1745 88.1873 76.7646 87.2822C76.3761 86.1692 75.9318 85.0764 75.4332 84.0082C74.8563 82.6594 74.1701 81.36 73.3815 80.123C73.2832 79.9812 72.9122 79.2609 72.7048 79.2281L80.6389 80.1012C81.3424 80.0704 82.0307 80.3128 82.5596 80.7778C83.4242 81.7871 84.2122 82.8596 84.9169 83.9864C86.5648 86.169 88.1909 88.4281 89.8716 90.6435C90.5612 91.3845 91.0003 92.3238 91.1266 93.3282C91.033 94.5364 90.8172 95.7321 90.4827 96.8969Z" fill="#473F47"/>
<path d="M81.4682 113.278C81.3611 113.427 81.2323 113.559 81.0863 113.671C80.8617 113.866 80.6121 114.032 80.3442 114.162H80.2678C79.9637 114.287 79.6224 114.287 79.3183 114.162C78.5216 113.824 78.7617 111.87 78.7181 111.106C78.6417 109.906 78.5762 108.716 78.4998 107.516C78.3688 105.18 78.227 102.845 78.096 100.498C78.0305 99.4069 77.9541 98.3156 77.8996 97.2243L77.4958 96.5149L77.3103 96.1984L77.092 95.8164L76.8628 95.3908C76.7318 95.1726 76.6009 94.9325 76.459 94.6815C76.2298 94.2558 76.0116 93.8084 75.7824 93.3719C75.6396 93.0787 75.4792 92.7945 75.3022 92.5206C75.2438 92.4282 75.1781 92.3406 75.1058 92.2587C74.6688 91.7853 74.1983 91.344 73.6979 90.9382C72.1884 89.532 71.1837 87.6682 70.8386 85.6343C70.7482 85.0789 70.7116 84.5161 70.7295 83.9536C70.7412 83.0795 70.8809 82.2117 71.1442 81.3781C71.3506 80.7831 71.6137 80.2093 71.93 79.6647C72.1783 79.1805 72.5109 78.7444 72.9122 78.3769C73.0999 78.2032 73.3135 78.0596 73.5452 77.9513C75.0512 77.2637 76.5791 78.9771 77.6267 79.8829C78.6744 80.7887 80.486 82.0656 81.0535 83.4298C81.621 84.7939 82.6905 96.253 82.6905 96.253C82.6905 99.0686 82.6905 101.884 82.5268 104.689C82.4614 106.359 82.385 108.028 82.2213 109.687C82.2139 110.923 81.9578 112.144 81.4682 113.278Z" fill="#473F47"/>
<path d="M80.3442 114.162H80.2678C79.9637 114.287 79.6224 114.287 79.3183 114.162C78.5216 113.823 78.7617 111.87 78.7181 111.106C78.6417 109.906 78.5762 108.716 78.4998 107.516C78.3689 105.18 78.227 102.845 78.096 100.498C78.0305 99.4069 77.9541 98.3156 77.8996 97.2243L77.4958 96.5149L77.3103 96.1984L77.092 95.8164L76.8628 95.3908C76.7318 95.1726 76.6009 94.9325 76.459 94.6815L75.6842 93.2955L75.1058 92.2041C74.6688 91.7308 74.1983 91.2895 73.6979 90.8836C72.1988 89.4917 71.1949 87.6486 70.8386 85.6343C70.7482 85.0789 70.7116 84.516 70.7295 83.9536C70.7412 83.0795 70.8809 82.2117 71.1442 81.3781C71.3506 80.7831 71.6137 80.2093 71.93 79.6647C72.1783 79.1805 72.5109 78.7444 72.9122 78.3769C73 78.4576 73.077 78.5493 73.1414 78.6497C73.9708 79.8393 73.9271 81.3999 74.0144 82.8514C74.0693 84.662 74.4386 86.4493 75.1058 88.1334L75.4004 88.7337C75.4398 88.8195 75.4835 88.9033 75.5314 88.9847C76.669 90.789 77.6792 92.6707 78.5544 94.616C80.2678 98.9813 79.6457 103.761 79.864 108.389C79.9314 109.669 80.0699 110.944 80.2787 112.208C80.4073 112.852 80.4294 113.511 80.3442 114.162Z" fill="url(#paint1_linear)"/>
<path d="M104.79 78.4096C104.343 78.4096 103.895 78.4096 103.459 78.4096C103 78.3732 102.55 78.2626 102.127 78.0822C101.723 77.8967 101.385 77.613 100.97 77.4384C100.119 77.0673 99.1916 76.8927 98.3621 76.4671C97.1071 75.8341 95.8957 75.1138 94.6953 74.4044L91.7923 72.6801C90.8115 72.119 89.8608 71.507 88.9439 70.8467L88.4091 70.432C88.1472 70.2137 87.8198 69.9736 87.4924 70.0718C87.3596 70.1347 87.2408 70.2238 87.1432 70.3337C86.7634 70.8539 86.523 71.4625 86.4447 72.1017C86.3011 72.6588 86.0846 73.1945 85.8009 73.6951C85.2661 74.6773 84.7641 75.6813 84.1857 76.6308C83.7654 77.5595 83.1729 78.4001 82.4395 79.1081C81.9578 79.363 81.4075 79.4586 80.868 79.3809C79.7144 79.2263 78.5486 79.1825 77.3867 79.25C76.8551 79.3753 76.3154 79.4628 75.7715 79.5119C74.9309 79.494 74.1175 79.2114 73.4469 78.7043C72.8576 78.2459 73.1195 77.613 73.3596 77.0127C74.2763 74.6227 75.1822 73.2258 74.1126 70.7703C74.32 71.2505 69.8783 72.953 69.3217 72.953C66.9971 72.953 65.6111 71.2505 63.865 69.93C62.8267 69.168 61.7323 68.4858 60.591 67.8892C60.2441 67.6872 59.8787 67.5191 59.4996 67.3871C59.1395 67.2671 58.6702 67.278 58.4083 67.027C58.2992 66.9273 58.2038 66.8135 58.1246 66.6887C57.9799 66.4634 57.8626 66.2215 57.7753 65.9684C57.7021 65.6668 57.5473 65.3912 57.3279 65.1717C56.9987 64.9789 56.6079 64.9203 56.2366 65.008C56.0371 65.0298 55.8358 65.0298 55.6363 65.008C55.5984 65.0069 55.5612 64.9975 55.5273 64.9805C55.4934 64.9635 55.4636 64.9394 55.4399 64.9098C55.4124 64.8737 55.3976 64.8296 55.3976 64.7843C55.3976 64.739 55.4124 64.6949 55.4399 64.6588C55.5159 64.6069 55.6011 64.5699 55.6909 64.5497L57.186 64.2332C56.7604 63.8621 56.0947 63.9603 55.5708 63.7857C55.5003 63.7668 55.4361 63.7291 55.3853 63.6766C55.3597 63.6158 55.3591 63.5473 55.3836 63.486C55.4081 63.4247 55.4558 63.3756 55.5163 63.3492C55.6443 63.3103 55.7811 63.3103 55.9092 63.3492L57.5243 63.5347C57.0441 62.9454 56.0183 63.12 55.5272 62.5416C55.7181 62.4138 55.9379 62.3358 56.1667 62.3149C56.3955 62.2939 56.6258 62.3306 56.8368 62.4216C57.4654 62.5113 58.0742 62.7068 58.6375 63C58.9797 63.1992 59.2951 63.4413 59.576 63.7202C60.655 64.8913 61.8146 65.9853 63.0465 66.9943C63.9076 67.5558 64.8399 67.9999 65.8185 68.3148C66.2441 68.4676 66.6916 68.5658 67.1172 68.7077C67.5428 68.8495 68.0776 69.1114 68.5468 69.3079C68.7216 69.4008 68.9164 69.4495 69.1143 69.4498C69.2729 69.4194 69.4246 69.3602 69.5618 69.2752C70.5471 68.6714 71.4189 67.8994 72.1373 66.9943C72.9122 66.0775 73.818 65.2699 74.6365 64.3969C74.9539 64.0223 75.3485 63.7207 75.7933 63.5129C76.6227 63.2291 77.5067 63.6439 78.3907 63.6766C78.7593 63.6948 79.1276 63.6352 79.4717 63.5017C79.8158 63.3682 80.1279 63.1638 80.3878 62.9017C80.9008 62.3015 80.8789 61.4066 81.4792 60.8064C81.8163 60.4869 82.2358 60.2677 82.6905 60.1734C83.1895 60.012 83.6748 59.8113 84.142 59.5732C84.5131 59.3986 84.9824 59.2348 85.3098 59.4859C85.3605 59.5189 85.4022 59.5642 85.4308 59.6177C85.4594 59.6711 85.4741 59.7308 85.4735 59.7914C85.4713 59.8973 85.437 60.0001 85.3752 60.0861C85.1432 60.5404 84.9356 61.0067 84.7532 61.483C84.5182 61.9635 84.4272 62.5017 84.4913 63.0327C84.644 63.7857 85.5826 64.2113 86.2156 64.4842C87.1323 64.8771 88.1472 64.9425 89.0639 65.3136C89.978 65.7358 90.7981 66.3369 91.4758 67.0816C92.5672 68.1729 93.473 69.2642 94.4661 70.3556C94.9681 70.9012 95.481 71.4469 96.0376 71.9598C96.7769 72.4817 97.5581 72.9416 98.3731 73.3349C99.2739 73.9268 100.219 74.4485 101.2 74.8955C101.9 75.2091 102.632 75.4469 103.382 75.6049C103.688 75.6931 103.997 75.766 104.31 75.8232C104.637 75.8232 104.812 75.714 105.085 75.5503C105.501 75.3331 105.982 75.2749 106.438 75.3866C107.423 75.6054 108.345 76.0458 109.134 76.6744C109.363 76.8272 109.614 77.0564 109.57 77.3292C109.582 77.3647 109.582 77.4029 109.57 77.4384C109.483 77.5147 109.352 77.4384 109.254 77.362C108.916 77.118 108.501 77.0055 108.086 77.0455C108.392 77.2856 108.719 77.5802 108.686 77.9622C108.697 77.9903 108.697 78.0214 108.686 78.0495C108.671 78.0572 108.654 78.0612 108.637 78.0612C108.62 78.0612 108.603 78.0572 108.588 78.0495C108.25 78.0495 107.999 77.733 107.682 77.5802C107.375 77.4399 107.037 77.3798 106.7 77.4056C106.547 77.4056 106.056 77.4056 106.056 77.6021C106.047 77.6341 106.047 77.6682 106.056 77.7003C106.147 77.819 106.254 77.9254 106.373 78.0168C106.432 78.0614 106.477 78.1223 106.502 78.1921C106.527 78.2619 106.531 78.3375 106.514 78.4096C106.438 78.5624 106.231 78.5843 106.056 78.5733C105.598 78.5515 105.205 78.4533 104.79 78.4096Z" fill="#F89659"/>
<path d="M103.415 78.2569C103.295 78.3312 103.162 78.3795 103.022 78.3987C102.57 78.3673 102.143 78.1825 101.811 77.8749C100.688 77.3166 99.5285 76.8353 98.3403 76.4343C97.0853 75.8013 95.8739 75.0811 94.6734 74.3717L91.7923 72.6801C90.8115 72.119 89.8608 71.507 88.9439 70.8467C89.1949 71.0322 90.2317 69.4607 90.4063 69.3188C91.4212 68.4894 91.0611 70.2683 91.0393 70.8685C91.0173 70.9875 91.0173 71.1096 91.0393 71.2286C91.118 71.3839 91.2441 71.5101 91.3994 71.5888C93.2329 72.7893 95.1209 73.9024 97.0635 74.9283C98.0457 75.4412 99.0606 75.9105 100.054 76.4125C100.872 76.8272 101.756 77.0673 102.607 77.4056C102.968 77.5475 103.371 77.7658 103.382 78.1477C103.399 78.1822 103.41 78.219 103.415 78.2569Z" fill="#D57439"/>
<path d="M80.9336 61.4286C80.9596 61.8106 80.8682 62.1915 80.6716 62.5201C80.3878 62.9022 82.2871 63.4043 82.8547 62.8585C83.4468 62.1936 83.9938 61.4897 84.492 60.7518L80.9336 61.4286Z" fill="#D57439"/>
<path d="M83.1817 61.5594C82.5734 61.796 81.9083 61.8454 81.2718 61.7013C80.9566 61.6234 80.6628 61.4762 80.4117 61.2704C80.1606 61.0647 79.9586 60.8055 79.8204 60.5117C79.683 60.1122 79.6273 59.6891 79.6566 59.2676C79.7259 57.2244 80.4275 55.253 81.6647 53.6254C81.8469 53.3558 82.0851 53.1287 82.3632 52.9597C82.7403 52.7774 83.1709 52.7386 83.5745 52.8505C84.3515 53.0557 85.0409 53.5077 85.5389 54.1383C86.032 54.7598 86.4496 55.4375 86.7831 56.1573C87.0232 56.6047 87.4706 57.3141 87.2633 57.8379C86.9607 58.3221 86.5936 58.7627 86.1719 59.1475C85.4147 60.2101 84.3804 61.0443 83.1817 61.5594Z" fill="#F89659"/>
<path d="M83.7819 79.2718C83.5264 79.6782 83.1646 80.007 82.7356 80.2224C82.3066 80.4379 81.8268 80.5318 81.3482 80.4941C79.4602 80.6469 77.5613 80.1558 75.6842 80.4941C75.1058 80.5923 74.5928 80.7669 73.9598 80.8106H73.7961C73.4785 80.8405 73.1582 80.7959 72.8607 80.6803C72.5633 80.5648 72.2969 80.3814 72.0827 80.1448C71.4934 79.37 71.8645 78.2568 72.2464 77.351C72.9558 75.7249 74.2872 73.8588 73.5233 72.0471C73.4251 71.8507 73.2941 71.6761 73.2068 71.4796C73.1171 71.2665 73.0548 71.0428 73.0213 70.8139L72.7375 69.417C72.5411 68.4894 72.3556 67.5617 72.1591 66.6232C72.1154 66.4366 72.1154 66.2423 72.1591 66.0557C72.2554 65.8117 72.4275 65.605 72.6502 65.4664L74.6256 63.8949C75.0099 63.5344 75.4734 63.269 75.9788 63.12C76.515 63.073 77.0552 63.1024 77.5831 63.2073C78.2857 63.1817 78.9823 63.0681 79.6566 62.869C79.7439 62.869 79.8422 62.869 79.9076 62.869C79.9756 62.935 80.0148 63.0252 80.0168 63.12C80.0925 63.4268 80.234 63.7136 80.4315 63.9603C80.5728 64.1344 80.726 64.2985 80.8898 64.4514L81.0972 64.6479L82.2868 65.7392C82.5366 66.0029 82.8278 66.2241 83.1489 66.394C84.2402 66.8851 85.0151 65.5755 84.9605 64.6042C84.8978 64.0589 84.735 63.5299 84.4803 63.0436C84.9824 63.2401 85.4844 63.4583 85.9864 63.6875C86.4412 63.9586 86.9154 64.1957 87.4051 64.3969C88.1691 64.6042 88.9003 64.3969 89.5878 64.8771C90.4961 65.4676 91.3314 66.1637 92.076 66.9506L91.574 68.1074C90.9083 69.5043 90.1335 71.0104 88.7147 71.6215C88.3437 71.7743 87.9617 71.8725 87.6234 72.0471C87.0122 72.3527 86.9468 72.8329 86.6739 73.3786C86.2047 74.328 85.7354 75.2775 85.3098 76.2379C84.8834 77.2888 84.3724 78.3035 83.7819 79.2718Z" fill="white"/>
<path d="M85.7572 65.6192C85.8456 65.5114 85.9576 65.4255 86.0846 65.3682C86.1884 65.3409 86.2974 65.3409 86.4011 65.3682C87.7762 65.4773 89.1513 65.6301 90.5155 65.8156C88.8239 64.3096 86.1501 64.3751 84.3385 63.0982C84.0875 63.5675 84.3385 64.1131 84.4695 64.6261C84.546 65.0885 84.546 65.5605 84.4695 66.023C84.7006 66.0765 84.9419 66.0673 85.1683 65.9963C85.3947 65.9253 85.598 65.7951 85.7572 65.6192Z" fill="url(#paint2_linear)"/>
<path d="M59.0746 66.7874C58.7727 66.8663 58.453 66.8393 58.1686 66.711C58.0218 66.4868 57.9044 66.2447 57.8193 65.9906C57.746 65.689 57.5912 65.4133 57.3718 65.1938C57.0421 65.002 56.6516 64.9434 56.2802 65.03C56.4863 64.8997 56.7241 64.828 56.9679 64.8226C57.099 64.8186 57.2271 64.7827 57.3412 64.718C57.4553 64.6534 57.552 64.5619 57.6228 64.4515C57.6228 64.3642 57.6228 64.255 57.732 64.1786C57.8411 64.1022 58.0158 64.0804 58.1686 64.1022C58.4771 64.1766 58.777 64.2827 59.0637 64.4188C59.2694 64.4944 59.4585 64.6094 59.6204 64.7571C59.6984 64.8156 59.7639 64.8892 59.8126 64.9736C59.8614 65.0581 59.8926 65.1515 59.9042 65.2483C59.8059 65.2483 59.664 65.1392 59.5658 65.0846C59.4407 65.0196 59.309 64.9683 59.1728 64.9318C58.8955 64.8578 58.6075 64.832 58.3214 64.8554C58.3214 64.8554 58.2341 64.8554 58.2232 64.8554C58.2123 64.8554 58.2232 64.9536 58.2887 64.9864C58.6925 65.3029 59.2056 65.4557 59.5985 65.7941C59.6625 65.8317 59.7124 65.8892 59.7404 65.9579C59.778 66.0487 59.778 66.1508 59.7404 66.2417C59.687 66.383 59.5974 66.5078 59.4805 66.6036C59.3636 66.6994 59.2237 66.7628 59.0746 66.7874Z" fill="#D57439"/>
<path d="M91.0502 109.414C90.8854 109.322 90.7025 109.266 90.5141 109.251C90.3257 109.236 90.1363 109.262 89.9589 109.327C89.7953 109.438 89.6386 109.558 89.4896 109.687C89.0199 109.873 88.4969 109.873 88.0272 109.687C87.5112 109.526 86.9815 109.413 86.4448 109.349C86.4448 109.349 86.4448 110.44 86.6412 110.539C86.8979 110.628 87.1663 110.68 87.4379 110.691C88.5247 110.831 89.625 110.831 90.7119 110.691C91.0175 110.626 92.0433 110.462 92.1852 110.124C92.3271 109.786 91.3339 109.513 91.0502 109.414Z" fill="#4A72CE"/>
<path d="M84.7314 119.346C84.9284 119.565 85.054 119.839 85.0915 120.131C85.0964 120.233 85.0656 120.334 85.0042 120.415C84.931 120.47 84.8442 120.504 84.7532 120.513C84.0361 120.671 83.2958 120.693 82.5705 120.579C81.8552 120.467 81.2001 120.113 80.7153 119.575C80.3988 119.193 80.1914 118.735 79.8968 118.342C79.6021 117.949 79.3293 117.698 79.1001 117.338C78.8709 116.977 79.1001 116.334 79.2747 115.941C79.4711 115.941 79.4057 116.323 79.493 116.497C79.79 117.139 80.2131 117.714 80.7371 118.189C80.9612 118.446 81.2357 118.654 81.5436 118.8C81.8514 118.947 82.1861 119.028 82.5269 119.04C82.6509 119.04 82.7731 119.01 82.8832 118.953C82.9934 118.896 83.0882 118.814 83.1598 118.713C83.269 118.538 83.1598 118.134 83.3454 118.069C83.5309 118.003 84.5568 119.171 84.7314 119.346Z" fill="#4A72CE"/>
<path d="M87.0996 108.17H87.0013C86.543 108.018 86.2811 107.374 86.2811 106.73L86.4775 95.1616C86.5152 95.026 86.5152 94.8826 86.4775 94.7469C86.3872 94.6242 86.267 94.5265 86.1283 94.4632C85.8009 94.2886 85.4844 94.103 85.1679 93.9175C84.1966 93.3609 83.2471 92.7607 82.3195 92.1386L81.752 87.5223C81.752 87.5223 87.5034 91.331 88.1036 93.1208C88.7038 94.9106 87.0996 108.17 87.0996 108.17Z" fill="url(#paint3_linear)"/>
<path d="M84.3603 56.6375C84.794 56.7978 85.2391 56.9254 85.6918 57.0194C86.1392 57.1722 86.5867 57.5105 86.5976 57.9689C86.9795 57.9689 87.1869 57.5324 87.296 57.1722C87.517 56.5703 87.6636 55.9436 87.7326 55.306C87.7942 54.6669 87.6406 54.0254 87.296 53.4835C86.674 52.5995 84.3712 50.9407 83.64 52.4904C83.0835 53.6909 83.018 55.939 84.3603 56.6375Z" fill="#FC682D"/>
<path d="M95.9398 104.111C95.1321 103.98 94.3244 103.849 93.5166 103.696L93.7786 102.266C94.5754 102.408 95.3722 102.55 96.1691 102.67L95.9398 104.111Z" fill="#4A72CE"/>
<path d="M88.6825 102.736C87.8856 102.561 87.0997 102.376 86.3029 102.179L86.6412 100.771L88.999 101.317L88.6825 102.736Z" fill="#4A72CE"/>
<path d="M81.5561 100.946L79.1983 100.258L79.624 98.8613C80.399 99.1014 81.174 99.3197 81.949 99.538L81.5561 100.946Z" fill="#4A72CE"/>
<path d="M74.5387 98.7526C73.7746 98.4906 72.9996 98.2177 72.2355 97.9339L72.7376 96.5695L75.019 97.3772L74.5387 98.7526Z" fill="#4A72CE"/>
<path d="M110.29 79.2936L121.52 55.5243L141.579 60.3044L130.153 84.3356L110.29 79.2936Z" fill="#4A72CE"/>
<path d="M26.2685 28.1536L60.7547 17.142L69.3763 52.785L40.5104 67.5617L26.2685 28.1536Z" fill="white"/>
<path d="M24.2713 98.7521L40.6741 109.022L46.1853 90.7417L28.091 78.3987L24.2713 98.7521Z" fill="#4A72CE"/>
<path d="M110.563 118.298L113.685 97.8572L137.41 96.2966L132.314 116.072L110.563 118.298Z" fill="white"/>
<path d="M118.334 75.8894L116.26 75.42L117.886 72.1999L119.971 72.6693L118.334 75.8894Z" fill="white"/>
<path d="M120.898 76.4561L118.814 75.9978L122.142 69.4388L124.227 69.8972L120.898 76.4561Z" fill="#4A72CE"/>
<path d="M123.463 77.0354L121.378 76.5661L123.409 72.571L125.483 73.0403L123.463 77.0354Z" fill="white"/>
<path d="M126.017 77.613L123.943 77.1437L128.33 68.5112L130.404 68.9805L126.017 77.613Z" fill="#4A72CE"/>
<path d="M120.898 76.4561L118.814 75.9978L122.142 69.4388L124.227 69.8972L120.898 76.4561Z" fill="url(#paint4_linear)"/>
<path d="M126.017 77.613L123.943 77.1437L128.33 68.5112L130.404 68.9805L126.017 77.613Z" fill="url(#paint5_linear)"/>
<path d="M128.581 78.1914L126.508 77.7221L132.117 66.6778L134.191 67.147L128.581 78.1914Z" fill="white"/>
<path d="M43.7408 39.7981C43.7359 38.8484 43.9409 37.9093 44.341 37.048L40.2812 34.8107C39.5088 36.3596 39.109 38.0674 39.1135 39.7981C39.1216 42.3052 39.9636 44.7383 41.5067 46.7141C43.0498 48.69 45.2065 50.0963 47.6368 50.7115L48.4662 46.0952C47.1087 45.689 45.9171 44.8582 45.0666 43.7248C44.216 42.5914 43.7513 41.2151 43.7408 39.7981Z" fill="#473F47"/>
<path opacity="0.18" d="M60.0563 45.6041C59.0471 47.2732 57.6234 48.6529 55.9233 49.6091C54.2232 50.5652 52.3048 51.0653 50.3543 51.0607C49.4193 51.061 48.488 50.9436 47.5823 50.7115L48.4117 46.0952C49.0419 46.284 49.6964 46.3796 50.3543 46.3789C51.4676 46.381 52.5634 46.1021 53.5401 45.5679C54.5169 45.0337 55.343 44.2616 55.9419 43.3232L60.0563 45.6041Z" fill="#4A72CE"/>
<path d="M61.6605 39.7982C61.6633 41.8433 61.1087 43.8505 60.0562 45.6041L55.9419 43.3668C56.4383 42.6011 56.7711 41.7411 56.9195 40.8407C57.0679 39.9403 57.0287 39.019 56.8043 38.1345C56.5799 37.2499 56.1752 36.4213 55.6155 35.7006C55.0558 34.9798 54.3533 34.3824 53.5519 33.946C52.7506 33.5095 51.8677 33.2432 50.9586 33.164C50.0495 33.0847 49.1338 33.1942 48.269 33.4854C47.4042 33.7767 46.6089 34.2434 45.9329 34.8565C45.257 35.4695 44.715 36.2156 44.341 37.048L40.2812 34.8107C41.4062 32.5201 43.2739 30.6779 45.5798 29.5843C47.8857 28.4908 50.494 28.2104 52.9796 28.7888C55.4653 29.3671 57.6818 30.7702 59.2681 32.7694C60.8543 34.7686 61.7168 37.2461 61.715 39.7982H61.6605Z" fill="#4A72CE"/>
<path d="M117.766 111.991C117.763 111.928 117.773 111.866 117.796 111.808C117.818 111.75 117.853 111.697 117.897 111.653C118.1 111.446 118.247 111.19 118.323 110.91C118.369 110.734 118.359 110.548 118.295 110.378C118.23 110.208 118.114 110.062 117.963 109.961C117.776 109.821 117.565 109.717 117.341 109.655C117.229 109.625 117.132 109.555 117.068 109.459C117.004 109.362 116.977 109.246 116.991 109.132C116.991 108.99 116.991 108.837 116.991 108.695C116.995 108.629 117.013 108.565 117.042 108.505C117.071 108.446 117.112 108.393 117.161 108.349C117.211 108.306 117.269 108.272 117.331 108.251C117.394 108.23 117.46 108.221 117.526 108.226C117.741 108.223 117.953 108.174 118.148 108.084C118.358 108.003 118.53 107.845 118.629 107.643C118.728 107.441 118.747 107.208 118.683 106.993C118.63 106.801 118.561 106.615 118.476 106.436C118.425 106.332 118.413 106.214 118.441 106.103C118.469 105.991 118.535 105.893 118.628 105.825C118.742 105.744 118.851 105.656 118.956 105.563C119.053 105.489 119.172 105.448 119.294 105.448C119.416 105.448 119.535 105.489 119.632 105.563C119.792 105.724 119.981 105.854 120.189 105.945C120.378 106.026 120.59 106.039 120.788 105.984C120.987 105.928 121.16 105.807 121.28 105.639C121.424 105.442 121.532 105.22 121.597 104.984C121.634 104.875 121.71 104.782 121.81 104.724C121.911 104.666 122.029 104.646 122.142 104.668H122.579C122.696 104.679 122.804 104.733 122.883 104.82C122.962 104.907 123.005 105.02 123.005 105.137C123.016 105.419 123.091 105.695 123.223 105.945C123.32 106.107 123.463 106.235 123.635 106.313C123.806 106.391 123.998 106.415 124.183 106.381C124.396 106.337 124.601 106.263 124.794 106.163C124.906 106.098 125.039 106.078 125.166 106.109C125.292 106.139 125.401 106.217 125.471 106.327C125.547 106.458 125.667 106.567 125.755 106.698C125.814 106.79 125.84 106.899 125.83 107.007C125.82 107.116 125.775 107.218 125.7 107.298C125.535 107.467 125.405 107.667 125.318 107.887C125.221 108.102 125.213 108.346 125.295 108.566C125.376 108.787 125.542 108.966 125.755 109.066C125.914 109.16 126.082 109.237 126.257 109.295C126.36 109.325 126.451 109.388 126.514 109.475C126.578 109.562 126.61 109.668 126.606 109.775C126.606 109.95 126.606 110.125 126.54 110.31C126.524 110.425 126.466 110.53 126.378 110.604C126.289 110.679 126.176 110.718 126.06 110.714C125.803 110.725 125.551 110.788 125.318 110.899C125.142 110.983 124.998 111.122 124.909 111.296C124.82 111.47 124.791 111.668 124.827 111.86C124.862 112.084 124.932 112.301 125.034 112.504C125.07 112.558 125.095 112.619 125.106 112.682C125.118 112.746 125.117 112.811 125.102 112.875C125.088 112.938 125.061 112.998 125.023 113.05C124.985 113.103 124.937 113.147 124.882 113.18L124.576 113.41C124.486 113.499 124.364 113.549 124.238 113.549C124.111 113.549 123.989 113.499 123.899 113.41C123.721 113.24 123.509 113.11 123.277 113.028C123.083 112.951 122.868 112.944 122.669 113.008C122.471 113.071 122.3 113.202 122.186 113.377C122.051 113.565 121.951 113.775 121.891 113.999C121.859 114.106 121.789 114.197 121.695 114.257C121.601 114.317 121.489 114.342 121.378 114.326L120.866 114.261C120.761 114.242 120.666 114.189 120.595 114.11C120.523 114.031 120.481 113.93 120.473 113.824C120.469 113.56 120.41 113.3 120.298 113.06C120.209 112.858 120.048 112.696 119.847 112.606C119.645 112.515 119.417 112.502 119.207 112.569C119.001 112.626 118.8 112.699 118.606 112.788C118.508 112.838 118.396 112.854 118.288 112.835C118.179 112.815 118.08 112.76 118.006 112.678C117.897 112.537 117.788 112.406 117.69 112.253C117.64 112.168 117.604 112.076 117.581 111.98L117.766 111.991ZM121.848 107.898C121.532 107.896 121.223 107.988 120.96 108.162C120.696 108.335 120.49 108.583 120.368 108.874C120.246 109.165 120.213 109.486 120.273 109.796C120.333 110.106 120.484 110.39 120.706 110.614C120.929 110.838 121.213 110.991 121.522 111.054C121.831 111.116 122.152 111.085 122.444 110.965C122.736 110.844 122.985 110.64 123.161 110.378C123.336 110.116 123.43 109.807 123.43 109.492C123.43 109.281 123.388 109.072 123.307 108.877C123.225 108.682 123.106 108.505 122.956 108.357C122.806 108.209 122.627 108.092 122.431 108.013C122.236 107.935 122.026 107.895 121.815 107.898H121.848Z" fill="#4A72CE"/>
<path d="M129.836 107.363C129.842 107.425 129.842 107.487 129.836 107.548C129.833 107.624 129.804 107.696 129.755 107.754C129.705 107.811 129.638 107.85 129.563 107.865L129.236 107.952C129.151 107.975 129.06 107.967 128.979 107.929C128.899 107.891 128.836 107.826 128.8 107.745C128.723 107.614 128.647 107.483 128.559 107.363C128.502 107.286 128.429 107.222 128.346 107.175C128.263 107.128 128.171 107.098 128.076 107.088C127.981 107.078 127.884 107.087 127.793 107.116C127.702 107.144 127.617 107.191 127.545 107.254C127.435 107.336 127.333 107.427 127.239 107.526C127.182 107.592 127.104 107.636 127.018 107.65C126.932 107.664 126.844 107.647 126.77 107.603L126.508 107.45C126.416 107.405 126.346 107.327 126.311 107.231C126.277 107.135 126.281 107.03 126.322 106.937C126.376 106.786 126.409 106.628 126.42 106.468C126.433 106.294 126.377 106.121 126.265 105.987C126.153 105.853 125.994 105.767 125.82 105.748C125.649 105.737 125.478 105.737 125.307 105.748C125.222 105.745 125.14 105.712 125.078 105.654C125.016 105.595 124.977 105.516 124.969 105.431C124.954 105.339 124.932 105.248 124.903 105.158C124.877 105.07 124.883 104.974 124.921 104.89C124.959 104.806 125.027 104.738 125.111 104.7C125.275 104.621 125.425 104.518 125.558 104.394C125.677 104.287 125.753 104.141 125.771 103.982C125.789 103.823 125.748 103.663 125.657 103.532C125.568 103.415 125.473 103.302 125.373 103.194C125.327 103.165 125.288 103.126 125.258 103.08C125.229 103.035 125.209 102.984 125.201 102.93C125.192 102.876 125.196 102.821 125.21 102.769C125.225 102.717 125.251 102.668 125.285 102.626L125.416 102.386C125.464 102.307 125.539 102.248 125.628 102.219C125.716 102.191 125.812 102.196 125.897 102.233C126.083 102.312 126.285 102.342 126.486 102.321C126.623 102.317 126.756 102.268 126.862 102.181C126.969 102.094 127.044 101.975 127.075 101.841C127.116 101.662 127.134 101.478 127.13 101.295C127.122 101.211 127.143 101.127 127.188 101.056C127.234 100.985 127.301 100.931 127.381 100.902L127.763 100.815C127.85 100.791 127.942 100.801 128.022 100.844C128.101 100.887 128.161 100.958 128.188 101.044C128.273 101.24 128.404 101.412 128.57 101.546C128.692 101.649 128.847 101.706 129.007 101.706C129.167 101.706 129.321 101.649 129.443 101.546C129.542 101.471 129.633 101.387 129.716 101.295C129.773 101.227 129.852 101.18 129.939 101.162C130.026 101.144 130.117 101.156 130.196 101.197L130.513 101.382C130.586 101.428 130.641 101.498 130.667 101.58C130.693 101.662 130.689 101.75 130.655 101.83C130.585 102.007 130.552 102.196 130.557 102.386C130.558 102.551 130.618 102.71 130.726 102.834C130.834 102.958 130.983 103.039 131.146 103.063H131.604C131.697 103.053 131.789 103.08 131.862 103.137C131.935 103.194 131.984 103.277 131.997 103.368C131.997 103.478 132.052 103.587 132.074 103.696C132.098 103.777 132.09 103.864 132.051 103.94C132.013 104.015 131.946 104.072 131.866 104.1C131.689 104.175 131.529 104.287 131.397 104.427C131.294 104.527 131.227 104.659 131.207 104.801C131.187 104.944 131.216 105.088 131.288 105.213C131.382 105.365 131.496 105.504 131.626 105.628C131.704 105.688 131.756 105.776 131.772 105.872C131.788 105.969 131.767 106.069 131.713 106.151L131.561 106.402C131.54 106.446 131.51 106.485 131.474 106.517C131.438 106.549 131.396 106.573 131.35 106.588C131.304 106.604 131.256 106.61 131.207 106.606C131.159 106.602 131.112 106.588 131.07 106.566C130.835 106.49 130.583 106.49 130.349 106.566C130.231 106.602 130.124 106.67 130.041 106.762C129.958 106.855 129.903 106.968 129.88 107.09C129.869 107.213 129.869 107.338 129.88 107.461L129.836 107.363ZM128.483 103.172C128.326 103.171 128.17 103.2 128.024 103.259C127.879 103.319 127.746 103.406 127.635 103.517C127.523 103.627 127.435 103.759 127.374 103.904C127.314 104.049 127.283 104.204 127.283 104.362C127.28 104.599 127.349 104.833 127.48 105.031C127.61 105.23 127.797 105.386 128.016 105.478C128.235 105.571 128.477 105.596 128.71 105.551C128.944 105.506 129.159 105.393 129.328 105.225C129.497 105.058 129.612 104.844 129.66 104.611C129.707 104.378 129.684 104.136 129.593 103.916C129.503 103.696 129.349 103.508 129.151 103.375C128.953 103.243 128.721 103.172 128.483 103.172Z" fill="#4A72CE"/>
<path d="M33.7114 98.7958C36.5623 98.7958 38.8734 96.4847 38.8734 93.6338C38.8734 90.7829 36.5623 88.4717 33.7114 88.4717C30.8605 88.4717 28.5494 90.7829 28.5494 93.6338C28.5494 96.4847 30.8605 98.7958 33.7114 98.7958Z" fill="#473F47"/>
<path d="M33.7332 87.5223V93.8302L39.2881 89.825C39.2881 89.825 36.7235 87.0312 33.7332 87.5223Z" fill="white"/>
<path d="M69.7255 111.182L62.8828 113.103L65.251 117.676L70.1075 116.312L69.7255 111.182Z" fill="#4A72CE"/>
<path d="M69.7255 111.182L62.8828 113.103L65.251 117.676L70.1075 116.312L69.7255 111.182Z" fill="url(#paint6_linear)"/>
<path d="M58.6157 101.622C58.5541 102.015 58.5916 102.416 58.7248 102.79C59.115 104.549 59.8093 106.225 60.7765 107.745C62.2935 109.927 64.6617 111.292 66.9535 112.612C66.7571 112.448 66.7898 111.237 66.7571 110.964L66.5934 109.349C66.4538 108.496 66.1216 107.686 65.6221 106.981C64.6223 105.336 63.2457 103.952 61.606 102.943C60.6766 102.364 59.6698 101.919 58.6157 101.622Z" fill="#4A72CE"/>
<path d="M58.6157 101.622C58.5541 102.015 58.5916 102.416 58.7248 102.79C59.115 104.549 59.8093 106.225 60.7765 107.745C62.2935 109.927 64.6617 111.292 66.9535 112.612C66.7571 112.448 66.7898 111.237 66.7571 110.964L66.5934 109.349C66.4538 108.496 66.1216 107.686 65.6221 106.981C64.6223 105.336 63.2457 103.952 61.606 102.943C60.6766 102.364 59.6698 101.919 58.6157 101.622Z" fill="url(#paint7_linear)"/>
<path d="M68.0448 104.984C68.2779 103.54 68.3183 102.072 68.1648 100.618C67.9915 99.1387 67.2379 97.7884 66.0695 96.8641L64.3561 102.888C63.9654 104.031 63.7555 105.228 63.734 106.435C63.8245 107.624 64.1626 108.781 64.7264 109.831C65.2902 110.882 66.0674 111.803 67.008 112.536C67.5537 111.674 67.4336 110.124 67.5537 109.109L68.0448 104.984Z" fill="#4A72CE"/>
<path d="M68.0448 104.984C68.2779 103.54 68.3183 102.072 68.1648 100.618C67.9915 99.1387 67.2379 97.7884 66.0695 96.8641L64.3561 102.888C63.9654 104.031 63.7555 105.228 63.734 106.435C63.8245 107.624 64.1626 108.781 64.7264 109.831C65.2902 110.882 66.0674 111.803 67.008 112.536C67.5537 111.674 67.4336 110.124 67.5537 109.109L68.0448 104.984Z" fill="url(#paint8_linear)"/>
<path d="M69.515 109.436L62.1723 111.504C61.5573 111.677 61.1985 112.314 61.3709 112.926C61.5433 113.538 62.1816 113.894 62.7965 113.72L70.1393 111.652C70.7543 111.479 71.113 110.843 70.9407 110.23C70.7683 109.618 70.13 109.263 69.515 109.436Z" fill="#4A72CE"/>
</g>
<defs>
<linearGradient id="paint0_linear" x1="106.755" y1="34.7998" x2="130.797" y2="34.7998" gradientUnits="userSpaceOnUse">
<stop offset="0.01"/>
<stop offset="0.08" stop-opacity="0.69"/>
<stop offset="0.21" stop-opacity="0.32"/>
<stop offset="1" stop-opacity="0"/>
</linearGradient>
<linearGradient id="paint1_linear" x1="-2609.37" y1="3141.67" x2="47.3422" y2="4005.88" gradientUnits="userSpaceOnUse">
<stop offset="0.01"/>
<stop offset="0.08" stop-opacity="0.69"/>
<stop offset="0.21" stop-opacity="0.32"/>
<stop offset="1" stop-opacity="0"/>
</linearGradient>
<linearGradient id="paint2_linear" x1="-1127.09" y1="30.5017" x2="-860.986" y2="605.995" gradientUnits="userSpaceOnUse">
<stop offset="0.01"/>
<stop offset="0.08" stop-opacity="0.69"/>
<stop offset="0.21" stop-opacity="0.32"/>
<stop offset="1" stop-opacity="0"/>
</linearGradient>
<linearGradient id="paint3_linear" x1="-1339.81" y1="2528.77" x2="-1080.66" y2="2547.32" gradientUnits="userSpaceOnUse">
<stop offset="0.01"/>
<stop offset="0.08" stop-opacity="0.69"/>
<stop offset="0.21" stop-opacity="0.32"/>
<stop offset="1" stop-opacity="0"/>
</linearGradient>
<linearGradient id="paint4_linear" x1="-2416.54" y1="269.354" x2="-2314.62" y2="536.068" gradientUnits="userSpaceOnUse">
<stop offset="0.01"/>
<stop offset="0.08" stop-opacity="0.69"/>
<stop offset="0.21" stop-opacity="0.32"/>
<stop offset="1" stop-opacity="0"/>
</linearGradient>
<linearGradient id="paint5_linear" x1="-3042.42" y1="354.686" x2="-2904.42" y2="683.885" gradientUnits="userSpaceOnUse">
<stop offset="0.01"/>
<stop offset="0.08" stop-opacity="0.69"/>
<stop offset="0.21" stop-opacity="0.32"/>
<stop offset="1" stop-opacity="0"/>
</linearGradient>
<linearGradient id="paint6_linear" x1="3488.96" y1="7.78973" x2="3575.66" y2="122.161" gradientUnits="userSpaceOnUse">
<stop offset="0.01"/>
<stop offset="0.08" stop-opacity="0.69"/>
<stop offset="0.21" stop-opacity="0.32"/>
<stop offset="1" stop-opacity="0"/>
</linearGradient>
<linearGradient id="paint7_linear" x1="69.1877" y1="103.963" x2="50.4368" y2="112.969" gradientUnits="userSpaceOnUse">
<stop offset="0.01"/>
<stop offset="0.13" stop-opacity="0.69"/>
<stop offset="0.25" stop-opacity="0.32"/>
<stop offset="1" stop-opacity="0"/>
</linearGradient>
<linearGradient id="paint8_linear" x1="-3356.04" y1="13919.8" x2="-3179.06" y2="13919.3" gradientUnits="userSpaceOnUse">
<stop offset="0.01"/>
<stop offset="0.13" stop-opacity="0.69"/>
<stop offset="0.25" stop-opacity="0.32"/>
<stop offset="1" stop-opacity="0"/>
</linearGradient>
<clipPath id="clip0">
<rect width="163.733" height="130" fill="white" transform="translate(0 0.422729)"/>
</clipPath>
</defs>
</svg>
